<?xml version="1.0" encoding="UTF-8" standalone="no"?>
<!DOCTYPE svg PUBLIC "-//W3C//DTD SVG 1.1//EN"
 "http://www.w3.org/Graphics/SVG/1.1/DTD/svg11.dtd">
<!-- Generated by graphviz version 2.43.0 (0)
 -->
<!-- Title: com.example.cleanarchitecture.infrastructure.config.db.schema.OrderSchema Pages: 1 -->
<svg width="340pt" height="438pt"
 viewBox="0.00 0.00 340.00 438.00" xmlns="http://www.w3.org/2000/svg" xmlns:xlink="http://www.w3.org/1999/xlink">
<g id="graph0" class="graph" transform="scale(1 1) rotate(0) translate(4 434)">
<title>com.example.cleanarchitecture.infrastructure.config.db.schema.OrderSchema</title>
<!-- Node1 -->
<g id="node1" class="node">
<title>Node1</title>
<g id="a_node1"><a xlink:title=" ">
<polygon fill="#999999" stroke="#666666" points="0,-0.5 0,-112.5 332,-112.5 332,-0.5 0,-0.5"/>
<text text-anchor="start" x="8" y="-100.5" font-family="Helvetica,sans-Serif" font-size="10.00">com.example.cleanarchitecture.infrastructure.config.db.schema.</text>
<text text-anchor="middle" x="166" y="-89.5" font-family="Helvetica,sans-Serif" font-size="10.00">OrderSchema</text>
<polyline fill="none" stroke="#666666" points="0,-82.5 332,-82.5 "/>
<text text-anchor="start" x="8" y="-70.5" font-family="Helvetica,sans-Serif" font-size="10.00">&#45; customerInfo</text>
<text text-anchor="start" x="8" y="-59.5" font-family="Helvetica,sans-Serif" font-size="10.00">&#45; quantity</text>
<text text-anchor="start" x="8" y="-48.5" font-family="Helvetica,sans-Serif" font-size="10.00">&#45; createdAt</text>
<text text-anchor="start" x="8" y="-37.5" font-family="Helvetica,sans-Serif" font-size="10.00">&#45; updatedAt</text>
<text text-anchor="start" x="8" y="-26.5" font-family="Helvetica,sans-Serif" font-size="10.00">&#45; inventorySchema</text>
<polyline fill="none" stroke="#666666" points="0,-19.5 332,-19.5 "/>
<text text-anchor="start" x="8" y="-7.5" font-family="Helvetica,sans-Serif" font-size="10.00">+ OrderSchema()</text>
</a>
</g>
</g>
<!-- Node2 -->
<g id="node2" class="node">
<title>Node2</title>
<g id="a_node2"><a xlink:href="classcom_1_1example_1_1cleanarchitecture_1_1infrastructure_1_1config_1_1db_1_1schema_1_1AbstractEntitySchema.html" target="_top" xlink:title=" ">
<polygon fill="white" stroke="#666666" points="0,-150.5 0,-218.5 332,-218.5 332,-150.5 0,-150.5"/>
<text text-anchor="start" x="8" y="-206.5" font-family="Helvetica,sans-Serif" font-size="10.00">com.example.cleanarchitecture.infrastructure.config.db.schema.</text>
<text text-anchor="middle" x="166" y="-195.5" font-family="Helvetica,sans-Serif" font-size="10.00">AbstractEntitySchema&lt; Long &gt;</text>
<polyline fill="none" stroke="#666666" points="0,-188.5 332,-188.5 "/>
<text text-anchor="start" x="8" y="-176.5" font-family="Helvetica,sans-Serif" font-size="10.00">&#45; id</text>
<polyline fill="none" stroke="#666666" points="0,-169.5 332,-169.5 "/>
<text text-anchor="middle" x="166" y="-157.5" font-family="Helvetica,sans-Serif" font-size="10.00"> </text>
</a>
</g>
</g>
<!-- Node2&#45;&gt;Node1 -->
<g id="edge1" class="edge">
<title>Node2&#45;&gt;Node1</title>
<path fill="none" stroke="#63b8ff" d="M166,-140.31C166,-131.45 166,-122.01 166,-112.79"/>
<polygon fill="none" stroke="#63b8ff" points="162.5,-140.39 166,-150.39 169.5,-140.4 162.5,-140.39"/>
</g>
<!-- Node3 -->
<g id="node3" class="node">
<title>Node3</title>
<g id="a_node3"><a xlink:href="classcom_1_1example_1_1cleanarchitecture_1_1infrastructure_1_1config_1_1db_1_1schema_1_1AbstractEntitySchema.html" target="_top" xlink:title=" ">
<polygon fill="white" stroke="#666666" points="0,-266.5 0,-334.5 332,-334.5 332,-266.5 0,-266.5"/>
<text text-anchor="start" x="8" y="-322.5" font-family="Helvetica,sans-Serif" font-size="10.00">com.example.cleanarchitecture.infrastructure.config.db.schema.</text>
<text text-anchor="middle" x="166" y="-311.5" font-family="Helvetica,sans-Serif" font-size="10.00">AbstractEntitySchema&lt; ID extends Serializable &gt;</text>
<polyline fill="none" stroke="#666666" points="0,-304.5 332,-304.5 "/>
<text text-anchor="start" x="8" y="-292.5" font-family="Helvetica,sans-Serif" font-size="10.00">&#45; id</text>
<polyline fill="none" stroke="#666666" points="0,-285.5 332,-285.5 "/>
<text text-anchor="middle" x="166" y="-273.5" font-family="Helvetica,sans-Serif" font-size="10.00"> </text>
</a>
</g>
</g>
<!-- Node3&#45;&gt;Node2 -->
<g id="edge2" class="edge">
<title>Node3&#45;&gt;Node2</title>
<path fill="none" stroke="orange" d="M166,-256.06C166,-243.64 166,-230.32 166,-218.62"/>
<polygon fill="orange" stroke="orange" points="162.5,-256.22 166,-266.22 169.5,-256.22 162.5,-256.22"/>
<text text-anchor="middle" x="190.5" y="-240" font-family="Helvetica,sans-Serif" font-size="10.00"> &lt; Long &gt;</text>
</g>
<!-- Node4 -->
<g id="node4" class="node">
<title>Node4</title>
<g id="a_node4"><a xlink:title=" ">
<polygon fill="white" stroke="#666666" points="129,-372.5 129,-429.5 203,-429.5 203,-372.5 129,-372.5"/>
<text text-anchor="middle" x="166" y="-417.5" font-family="Helvetica,sans-Serif" font-size="10.00">Serializable</text>
<polyline fill="none" stroke="#666666" points="129,-410.5 203,-410.5 "/>
<text text-anchor="middle" x="166" y="-398.5" font-family="Helvetica,sans-Serif" font-size="10.00"> </text>
<polyline fill="none" stroke="#666666" points="129,-391.5 203,-391.5 "/>
<text text-anchor="middle" x="166" y="-379.5" font-family="Helvetica,sans-Serif" font-size="10.00"> </text>
</a>
</g>
</g>
<!-- Node4&#45;&gt;Node3 -->
<g id="edge3" class="edge">
<title>Node4&#45;&gt;Node3</title>
<path fill="none" stroke="#63b8ff" d="M166,-362.01C166,-352.96 166,-343.38 166,-334.58"/>
<polygon fill="none" stroke="#63b8ff" points="162.5,-362.3 166,-372.3 169.5,-362.3 162.5,-362.3"/>
</g>
</g>
</svg>
