<?xml version="1.0" encoding="UTF-8" standalone="no"?>
<!DOCTYPE svg PUBLIC "-//W3C//DTD SVG 1.1//EN"
 "http://www.w3.org/Graphics/SVG/1.1/DTD/svg11.dtd">
<!-- Generated by graphviz version 2.43.0 (0)
 -->
<!-- Title: com.example.cleanarchitecture.domain.inventory.model.Inventory Pages: 1 -->
<svg width="304pt" height="331pt"
 viewBox="0.00 0.00 304.00 331.00" xmlns="http://www.w3.org/2000/svg" xmlns:xlink="http://www.w3.org/1999/xlink">
<g id="graph0" class="graph" transform="scale(1 1) rotate(0) translate(4 327)">
<title>com.example.cleanarchitecture.domain.inventory.model.Inventory</title>
<!-- Node1 -->
<g id="node1" class="node">
<title>Node1</title>
<g id="a_node1"><a xlink:title=" ">
<polygon fill="#999999" stroke="#666666" points="0,-0.5 0,-123.5 296,-123.5 296,-0.5 0,-0.5"/>
<text text-anchor="start" x="8" y="-111.5" font-family="Helvetica,sans-Serif" font-size="10.00">com.example.cleanarchitecture.domain.inventory.model.</text>
<text text-anchor="middle" x="148" y="-100.5" font-family="Helvetica,sans-Serif" font-size="10.00">Inventory</text>
<polyline fill="none" stroke="#666666" points="0,-93.5 296,-93.5 "/>
<text text-anchor="start" x="8" y="-81.5" font-family="Helvetica,sans-Serif" font-size="10.00">&#45; name</text>
<text text-anchor="start" x="8" y="-70.5" font-family="Helvetica,sans-Serif" font-size="10.00">&#45; quantity</text>
<polyline fill="none" stroke="#666666" points="0,-63.5 296,-63.5 "/>
<text text-anchor="start" x="8" y="-51.5" font-family="Helvetica,sans-Serif" font-size="10.00">+ Inventory()</text>
<text text-anchor="start" x="8" y="-40.5" font-family="Helvetica,sans-Serif" font-size="10.00">+ reducible()</text>
<text text-anchor="start" x="8" y="-29.5" font-family="Helvetica,sans-Serif" font-size="10.00">+ reduce()</text>
<text text-anchor="start" x="8" y="-18.5" font-family="Helvetica,sans-Serif" font-size="10.00">&#45; validateName()</text>
<text text-anchor="start" x="8" y="-7.5" font-family="Helvetica,sans-Serif" font-size="10.00">&#45; validateQuantity()</text>
</a>
</g>
</g>
<!-- Node2 -->
<g id="node2" class="node">
<title>Node2</title>
<g id="a_node2"><a xlink:href="classcom_1_1example_1_1cleanarchitecture_1_1core_1_1domain_1_1AbstractEntity.html" target="_top" xlink:title=" ">
<polygon fill="white" stroke="#666666" points="29,-160.5 29,-228.5 267,-228.5 267,-160.5 29,-160.5"/>
<text text-anchor="start" x="37" y="-216.5" font-family="Helvetica,sans-Serif" font-size="10.00">com.example.cleanarchitecture.core.domain.</text>
<text text-anchor="middle" x="148" y="-205.5" font-family="Helvetica,sans-Serif" font-size="10.00">AbstractEntity&lt; ID extends Serializable &gt;</text>
<polyline fill="none" stroke="#666666" points="29,-198.5 267,-198.5 "/>
<text text-anchor="start" x="37" y="-186.5" font-family="Helvetica,sans-Serif" font-size="10.00">&#45; id</text>
<polyline fill="none" stroke="#666666" points="29,-179.5 267,-179.5 "/>
<text text-anchor="middle" x="148" y="-167.5" font-family="Helvetica,sans-Serif" font-size="10.00"> </text>
</a>
</g>
</g>
<!-- Node2&#45;&gt;Node1 -->
<g id="edge1" class="edge">
<title>Node2&#45;&gt;Node1</title>
<path fill="none" stroke="#63b8ff" d="M148,-150.17C148,-141.65 148,-132.57 148,-123.61"/>
<polygon fill="none" stroke="#63b8ff" points="144.5,-150.23 148,-160.23 151.5,-150.23 144.5,-150.23"/>
</g>
<!-- Node3 -->
<g id="node3" class="node">
<title>Node3</title>
<g id="a_node3"><a xlink:title=" ">
<polygon fill="white" stroke="#666666" points="111,-265.5 111,-322.5 185,-322.5 185,-265.5 111,-265.5"/>
<text text-anchor="middle" x="148" y="-310.5" font-family="Helvetica,sans-Serif" font-size="10.00">Serializable</text>
<polyline fill="none" stroke="#666666" points="111,-303.5 185,-303.5 "/>
<text text-anchor="middle" x="148" y="-291.5" font-family="Helvetica,sans-Serif" font-size="10.00"> </text>
<polyline fill="none" stroke="#666666" points="111,-284.5 185,-284.5 "/>
<text text-anchor="middle" x="148" y="-272.5" font-family="Helvetica,sans-Serif" font-size="10.00"> </text>
</a>
</g>
</g>
<!-- Node3&#45;&gt;Node2 -->
<g id="edge2" class="edge">
<title>Node3&#45;&gt;Node2</title>
<path fill="none" stroke="#63b8ff" d="M148,-255.06C148,-246.39 148,-237.24 148,-228.79"/>
<polygon fill="none" stroke="#63b8ff" points="144.5,-255.32 148,-265.32 151.5,-255.32 144.5,-255.32"/>
</g>
</g>
</svg>
