<?xml version="1.0" encoding="UTF-8" standalone="no"?>
<!DOCTYPE svg PUBLIC "-//W3C//DTD SVG 1.1//EN"
 "http://www.w3.org/Graphics/SVG/1.1/DTD/svg11.dtd">
<!-- Generated by graphviz version 2.43.0 (0)
 -->
<!-- Title: com.example.cleanarchitecture.infrastructure.inventory.gateway.InventoryDatabaseGateway Pages: 1 -->
<svg width="672pt" height="398pt"
 viewBox="0.00 0.00 672.00 398.00" xmlns="http://www.w3.org/2000/svg" xmlns:xlink="http://www.w3.org/1999/xlink">
<g id="graph0" class="graph" transform="scale(1 1) rotate(0) translate(4 394)">
<title>com.example.cleanarchitecture.infrastructure.inventory.gateway.InventoryDatabaseGateway</title>
<!-- Node1 -->
<g id="node1" class="node">
<title>Node1</title>
<g id="a_node1"><a xlink:title=" ">
<polygon fill="#999999" stroke="#666666" points="155,-0.5 155,-123.5 490,-123.5 490,-0.5 155,-0.5"/>
<text text-anchor="start" x="163" y="-111.5" font-family="Helvetica,sans-Serif" font-size="10.00">com.example.cleanarchitecture.infrastructure.inventory.gateway.</text>
<text text-anchor="middle" x="322.5" y="-100.5" font-family="Helvetica,sans-Serif" font-size="10.00">InventoryDatabaseGateway</text>
<polyline fill="none" stroke="#666666" points="155,-93.5 490,-93.5 "/>
<text text-anchor="middle" x="322.5" y="-81.5" font-family="Helvetica,sans-Serif" font-size="10.00"> </text>
<polyline fill="none" stroke="#666666" points="155,-74.5 490,-74.5 "/>
<text text-anchor="start" x="163" y="-62.5" font-family="Helvetica,sans-Serif" font-size="10.00">+ create()</text>
<text text-anchor="start" x="163" y="-51.5" font-family="Helvetica,sans-Serif" font-size="10.00">+ delete()</text>
<text text-anchor="start" x="163" y="-40.5" font-family="Helvetica,sans-Serif" font-size="10.00">+ findAll()</text>
<text text-anchor="start" x="163" y="-29.5" font-family="Helvetica,sans-Serif" font-size="10.00">+ findById()</text>
<text text-anchor="start" x="163" y="-18.5" font-family="Helvetica,sans-Serif" font-size="10.00">+ update()</text>
<text text-anchor="start" x="163" y="-7.5" font-family="Helvetica,sans-Serif" font-size="10.00">+ findAll()</text>
</a>
</g>
</g>
<!-- Node2 -->
<g id="node2" class="node">
<title>Node2</title>
<g id="a_node2"><a xlink:href="interfacecom_1_1example_1_1cleanarchitecture_1_1domain_1_1inventory_1_1gateway_1_1InventoryGateway.html" target="_top" xlink:title=" ">
<polygon fill="white" stroke="#666666" points="0,-171.5 0,-239.5 305,-239.5 305,-171.5 0,-171.5"/>
<text text-anchor="start" x="8" y="-227.5" font-family="Helvetica,sans-Serif" font-size="10.00">com.example.cleanarchitecture.domain.inventory.gateway.</text>
<text text-anchor="middle" x="152.5" y="-216.5" font-family="Helvetica,sans-Serif" font-size="10.00">InventoryGateway</text>
<polyline fill="none" stroke="#666666" points="0,-209.5 305,-209.5 "/>
<text text-anchor="middle" x="152.5" y="-197.5" font-family="Helvetica,sans-Serif" font-size="10.00"> </text>
<polyline fill="none" stroke="#666666" points="0,-190.5 305,-190.5 "/>
<text text-anchor="start" x="8" y="-178.5" font-family="Helvetica,sans-Serif" font-size="10.00">+ findAll()</text>
</a>
</g>
</g>
<!-- Node2&#45;&gt;Node1 -->
<g id="edge1" class="edge">
<title>Node2&#45;&gt;Node1</title>
<path fill="none" stroke="#63b8ff" d="M200.17,-164.82C215.5,-152.06 232.85,-137.62 249.56,-123.71"/>
<polygon fill="none" stroke="#63b8ff" points="197.8,-162.24 192.36,-171.32 202.28,-167.62 197.8,-162.24"/>
</g>
<!-- Node3 -->
<g id="node3" class="node">
<title>Node3</title>
<g id="a_node3"><a xlink:href="interfacecom_1_1example_1_1cleanarchitecture_1_1core_1_1domain_1_1IGateway.html" target="_top" xlink:title=" ">
<polygon fill="white" stroke="#666666" points="33.5,-277.5 33.5,-389.5 271.5,-389.5 271.5,-277.5 33.5,-277.5"/>
<text text-anchor="start" x="41.5" y="-377.5" font-family="Helvetica,sans-Serif" font-size="10.00">com.example.cleanarchitecture.core.domain.</text>
<text text-anchor="middle" x="152.5" y="-366.5" font-family="Helvetica,sans-Serif" font-size="10.00">IGateway&lt; S, ID &gt;</text>
<polyline fill="none" stroke="#666666" points="33.5,-359.5 271.5,-359.5 "/>
<text text-anchor="middle" x="152.5" y="-347.5" font-family="Helvetica,sans-Serif" font-size="10.00"> </text>
<polyline fill="none" stroke="#666666" points="33.5,-340.5 271.5,-340.5 "/>
<text text-anchor="start" x="41.5" y="-328.5" font-family="Helvetica,sans-Serif" font-size="10.00">+ create()</text>
<text text-anchor="start" x="41.5" y="-317.5" font-family="Helvetica,sans-Serif" font-size="10.00">+ update()</text>
<text text-anchor="start" x="41.5" y="-306.5" font-family="Helvetica,sans-Serif" font-size="10.00">+ delete()</text>
<text text-anchor="start" x="41.5" y="-295.5" font-family="Helvetica,sans-Serif" font-size="10.00">+ findById()</text>
<text text-anchor="start" x="41.5" y="-284.5" font-family="Helvetica,sans-Serif" font-size="10.00">+ findAll()</text>
</a>
</g>
</g>
<!-- Node3&#45;&gt;Node2 -->
<g id="edge2" class="edge">
<title>Node3&#45;&gt;Node2</title>
<path fill="none" stroke="#63b8ff" d="M152.5,-266.96C152.5,-257.48 152.5,-248.08 152.5,-239.62"/>
<polygon fill="none" stroke="#63b8ff" points="149,-267.23 152.5,-277.23 156,-267.23 149,-267.23"/>
</g>
<!-- Node4 -->
<g id="node4" class="node">
<title>Node4</title>
<g id="a_node4"><a xlink:href="interfacecom_1_1example_1_1cleanarchitecture_1_1infrastructure_1_1config_1_1db_1_1repository_1_1InventoryRepository.html" target="_top" xlink:title=" ">
<polygon fill="white" stroke="#666666" points="323,-171.5 323,-239.5 664,-239.5 664,-171.5 323,-171.5"/>
<text text-anchor="start" x="331" y="-227.5" font-family="Helvetica,sans-Serif" font-size="10.00">com.example.cleanarchitecture.infrastructure.config.db.repository.</text>
<text text-anchor="middle" x="493.5" y="-216.5" font-family="Helvetica,sans-Serif" font-size="10.00">InventoryRepository</text>
<polyline fill="none" stroke="#666666" points="323,-209.5 664,-209.5 "/>
<text text-anchor="middle" x="493.5" y="-197.5" font-family="Helvetica,sans-Serif" font-size="10.00"> </text>
<polyline fill="none" stroke="#666666" points="323,-190.5 664,-190.5 "/>
<text text-anchor="start" x="331" y="-178.5" font-family="Helvetica,sans-Serif" font-size="10.00">+ existsByName()</text>
</a>
</g>
</g>
<!-- Node4&#45;&gt;Node1 -->
<g id="edge3" class="edge">
<title>Node4&#45;&gt;Node1</title>
<path fill="none" stroke="#404040" d="M453.41,-171.32C438.92,-159.33 421.97,-145.31 405.17,-131.41"/>
<polygon fill="none" stroke="#404040" points="405.12,-131.36 397.94,-130.62 395.87,-123.71 403.04,-124.46 405.12,-131.36"/>
<text text-anchor="middle" x="481.5" y="-145" font-family="Helvetica,sans-Serif" font-size="10.00"> &#45;inventoryRepository</text>
</g>
<!-- Node5 -->
<g id="node5" class="node">
<title>Node5</title>
<g id="a_node5"><a xlink:title=" ">
<polygon fill="white" stroke="#666666" points="422.5,-299.5 422.5,-367.5 564.5,-367.5 564.5,-299.5 422.5,-299.5"/>
<text text-anchor="start" x="430.5" y="-355.5" font-family="Helvetica,sans-Serif" font-size="10.00">JpaRepository&lt; Inventory</text>
<text text-anchor="middle" x="493.5" y="-344.5" font-family="Helvetica,sans-Serif" font-size="10.00">Schema, Long &gt;</text>
<polyline fill="none" stroke="#666666" points="422.5,-337.5 564.5,-337.5 "/>
<text text-anchor="middle" x="493.5" y="-325.5" font-family="Helvetica,sans-Serif" font-size="10.00"> </text>
<polyline fill="none" stroke="#666666" points="422.5,-318.5 564.5,-318.5 "/>
<text text-anchor="middle" x="493.5" y="-306.5" font-family="Helvetica,sans-Serif" font-size="10.00"> </text>
</a>
</g>
</g>
<!-- Node5&#45;&gt;Node4 -->
<g id="edge4" class="edge">
<title>Node5&#45;&gt;Node4</title>
<path fill="none" stroke="#63b8ff" d="M493.5,-289.11C493.5,-272.97 493.5,-254.92 493.5,-239.82"/>
<polygon fill="none" stroke="#63b8ff" points="490,-289.39 493.5,-299.39 497,-289.4 490,-289.39"/>
</g>
</g>
</svg>
