<?xml version="1.0" encoding="UTF-8" standalone="no"?>
<!DOCTYPE svg PUBLIC "-//W3C//DTD SVG 1.1//EN"
 "http://www.w3.org/Graphics/SVG/1.1/DTD/svg11.dtd">
<!-- Generated by graphviz version 2.43.0 (0)
 -->
<!-- Title: com.example.cleanarchitecture.infrastructure.order.controller.CreateOrderController Pages: 1 -->
<svg width="616pt" height="586pt"
 viewBox="0.00 0.00 616.00 586.00" xmlns="http://www.w3.org/2000/svg" xmlns:xlink="http://www.w3.org/1999/xlink">
<g id="graph0" class="graph" transform="scale(1 1) rotate(0) translate(4 582)">
<title>com.example.cleanarchitecture.infrastructure.order.controller.CreateOrderController</title>
<!-- Node1 -->
<g id="node1" class="node">
<title>Node1</title>
<g id="a_node1"><a xlink:title=" ">
<polygon fill="#999999" stroke="#666666" points="138.5,-0.5 138.5,-68.5 458.5,-68.5 458.5,-0.5 138.5,-0.5"/>
<text text-anchor="start" x="146.5" y="-56.5" font-family="Helvetica,sans-Serif" font-size="10.00">com.example.cleanarchitecture.infrastructure.order.controller.</text>
<text text-anchor="middle" x="298.5" y="-45.5" font-family="Helvetica,sans-Serif" font-size="10.00">CreateOrderController</text>
<polyline fill="none" stroke="#666666" points="138.5,-38.5 458.5,-38.5 "/>
<text text-anchor="middle" x="298.5" y="-26.5" font-family="Helvetica,sans-Serif" font-size="10.00"> </text>
<polyline fill="none" stroke="#666666" points="138.5,-19.5 458.5,-19.5 "/>
<text text-anchor="start" x="146.5" y="-7.5" font-family="Helvetica,sans-Serif" font-size="10.00">+ createOrder()</text>
</a>
</g>
</g>
<!-- Node2 -->
<g id="node2" class="node">
<title>Node2</title>
<g id="a_node2"><a xlink:href="classcom_1_1example_1_1cleanarchitecture_1_1application_1_1order_1_1CreateOrderService.html" target="_top" xlink:title=" ">
<polygon fill="white" stroke="#666666" points="169,-116.5 169,-184.5 428,-184.5 428,-116.5 169,-116.5"/>
<text text-anchor="start" x="177" y="-172.5" font-family="Helvetica,sans-Serif" font-size="10.00">com.example.cleanarchitecture.application.order.</text>
<text text-anchor="middle" x="298.5" y="-161.5" font-family="Helvetica,sans-Serif" font-size="10.00">CreateOrderService</text>
<polyline fill="none" stroke="#666666" points="169,-154.5 428,-154.5 "/>
<text text-anchor="middle" x="298.5" y="-142.5" font-family="Helvetica,sans-Serif" font-size="10.00"> </text>
<polyline fill="none" stroke="#666666" points="169,-135.5 428,-135.5 "/>
<text text-anchor="start" x="177" y="-123.5" font-family="Helvetica,sans-Serif" font-size="10.00">+ createOrder()</text>
</a>
</g>
</g>
<!-- Node2&#45;&gt;Node1 -->
<g id="edge1" class="edge">
<title>Node2&#45;&gt;Node1</title>
<path fill="none" stroke="#404040" d="M298.5,-116.22C298.5,-105.1 298.5,-92.51 298.5,-80.64"/>
<polygon fill="none" stroke="#404040" points="298.5,-80.62 294.5,-74.62 298.5,-68.62 302.5,-74.62 298.5,-80.62"/>
<text text-anchor="middle" x="349" y="-90" font-family="Helvetica,sans-Serif" font-size="10.00"> &#45;createOrderService</text>
</g>
<!-- Node3 -->
<g id="node3" class="node">
<title>Node3</title>
<g id="a_node3"><a xlink:href="classcom_1_1example_1_1cleanarchitecture_1_1usecase_1_1order_1_1CreateOrderUseCase.html" target="_top" xlink:title=" ">
<polygon fill="white" stroke="#666666" points="176,-232.5 176,-311.5 421,-311.5 421,-232.5 176,-232.5"/>
<text text-anchor="start" x="184" y="-299.5" font-family="Helvetica,sans-Serif" font-size="10.00">com.example.cleanarchitecture.usecase.order.</text>
<text text-anchor="middle" x="298.5" y="-288.5" font-family="Helvetica,sans-Serif" font-size="10.00">CreateOrderUseCase</text>
<polyline fill="none" stroke="#666666" points="176,-281.5 421,-281.5 "/>
<text text-anchor="middle" x="298.5" y="-269.5" font-family="Helvetica,sans-Serif" font-size="10.00"> </text>
<polyline fill="none" stroke="#666666" points="176,-262.5 421,-262.5 "/>
<text text-anchor="start" x="184" y="-250.5" font-family="Helvetica,sans-Serif" font-size="10.00">+ CreateOrderUseCase()</text>
<text text-anchor="start" x="184" y="-239.5" font-family="Helvetica,sans-Serif" font-size="10.00">+ createOrder()</text>
</a>
</g>
</g>
<!-- Node3&#45;&gt;Node2 -->
<g id="edge2" class="edge">
<title>Node3&#45;&gt;Node2</title>
<path fill="none" stroke="#404040" d="M298.5,-232.2C298.5,-220.99 298.5,-208.65 298.5,-197.07"/>
<polygon fill="none" stroke="#404040" points="298.5,-196.89 294.5,-190.89 298.5,-184.89 302.5,-190.89 298.5,-196.89"/>
<text text-anchor="middle" x="352.5" y="-206" font-family="Helvetica,sans-Serif" font-size="10.00"> &#45;createOrderUseCase</text>
</g>
<!-- Node4 -->
<g id="node4" class="node">
<title>Node4</title>
<g id="a_node4"><a xlink:href="interfacecom_1_1example_1_1cleanarchitecture_1_1domain_1_1order_1_1gateway_1_1OrderGateway.html" target="_top" xlink:title=" ">
<polygon fill="white" stroke="#666666" points="0,-359.5 0,-427.5 285,-427.5 285,-359.5 0,-359.5"/>
<text text-anchor="start" x="8" y="-415.5" font-family="Helvetica,sans-Serif" font-size="10.00">com.example.cleanarchitecture.domain.order.gateway.</text>
<text text-anchor="middle" x="142.5" y="-404.5" font-family="Helvetica,sans-Serif" font-size="10.00">OrderGateway</text>
<polyline fill="none" stroke="#666666" points="0,-397.5 285,-397.5 "/>
<text text-anchor="middle" x="142.5" y="-385.5" font-family="Helvetica,sans-Serif" font-size="10.00"> </text>
<polyline fill="none" stroke="#666666" points="0,-378.5 285,-378.5 "/>
<text text-anchor="middle" x="142.5" y="-366.5" font-family="Helvetica,sans-Serif" font-size="10.00"> </text>
</a>
</g>
</g>
<!-- Node4&#45;&gt;Node3 -->
<g id="edge3" class="edge">
<title>Node4&#45;&gt;Node3</title>
<path fill="none" stroke="#404040" d="M185.95,-359.21C202.23,-346.74 221.03,-332.35 238.54,-318.93"/>
<polygon fill="none" stroke="#404040" points="238.58,-318.9 240.91,-312.07 248.11,-311.6 245.78,-318.42 238.58,-318.9"/>
<text text-anchor="middle" x="258.5" y="-333" font-family="Helvetica,sans-Serif" font-size="10.00"> &#45;orderGateway</text>
</g>
<!-- Node5 -->
<g id="node5" class="node">
<title>Node5</title>
<g id="a_node5"><a xlink:href="interfacecom_1_1example_1_1cleanarchitecture_1_1core_1_1domain_1_1IGateway.html" target="_top" xlink:title=" ">
<polygon fill="white" stroke="#666666" points="23.5,-465.5 23.5,-577.5 261.5,-577.5 261.5,-465.5 23.5,-465.5"/>
<text text-anchor="start" x="31.5" y="-565.5" font-family="Helvetica,sans-Serif" font-size="10.00">com.example.cleanarchitecture.core.domain.</text>
<text text-anchor="middle" x="142.5" y="-554.5" font-family="Helvetica,sans-Serif" font-size="10.00">IGateway&lt; S, ID &gt;</text>
<polyline fill="none" stroke="#666666" points="23.5,-547.5 261.5,-547.5 "/>
<text text-anchor="middle" x="142.5" y="-535.5" font-family="Helvetica,sans-Serif" font-size="10.00"> </text>
<polyline fill="none" stroke="#666666" points="23.5,-528.5 261.5,-528.5 "/>
<text text-anchor="start" x="31.5" y="-516.5" font-family="Helvetica,sans-Serif" font-size="10.00">+ create()</text>
<text text-anchor="start" x="31.5" y="-505.5" font-family="Helvetica,sans-Serif" font-size="10.00">+ update()</text>
<text text-anchor="start" x="31.5" y="-494.5" font-family="Helvetica,sans-Serif" font-size="10.00">+ delete()</text>
<text text-anchor="start" x="31.5" y="-483.5" font-family="Helvetica,sans-Serif" font-size="10.00">+ findById()</text>
<text text-anchor="start" x="31.5" y="-472.5" font-family="Helvetica,sans-Serif" font-size="10.00">+ findAll()</text>
</a>
</g>
</g>
<!-- Node5&#45;&gt;Node4 -->
<g id="edge4" class="edge">
<title>Node5&#45;&gt;Node4</title>
<path fill="none" stroke="#63b8ff" d="M142.5,-454.96C142.5,-445.48 142.5,-436.08 142.5,-427.62"/>
<polygon fill="none" stroke="#63b8ff" points="139,-455.23 142.5,-465.23 146,-455.23 139,-455.23"/>
</g>
<!-- Node6 -->
<g id="node6" class="node">
<title>Node6</title>
<g id="a_node6"><a xlink:href="interfacecom_1_1example_1_1cleanarchitecture_1_1domain_1_1inventory_1_1gateway_1_1InventoryGateway.html" target="_top" xlink:title=" ">
<polygon fill="white" stroke="#666666" points="303,-359.5 303,-427.5 608,-427.5 608,-359.5 303,-359.5"/>
<text text-anchor="start" x="311" y="-415.5" font-family="Helvetica,sans-Serif" font-size="10.00">com.example.cleanarchitecture.domain.inventory.gateway.</text>
<text text-anchor="middle" x="455.5" y="-404.5" font-family="Helvetica,sans-Serif" font-size="10.00">InventoryGateway</text>
<polyline fill="none" stroke="#666666" points="303,-397.5 608,-397.5 "/>
<text text-anchor="middle" x="455.5" y="-385.5" font-family="Helvetica,sans-Serif" font-size="10.00"> </text>
<polyline fill="none" stroke="#666666" points="303,-378.5 608,-378.5 "/>
<text text-anchor="start" x="311" y="-366.5" font-family="Helvetica,sans-Serif" font-size="10.00">+ findAll()</text>
</a>
</g>
</g>
<!-- Node6&#45;&gt;Node3 -->
<g id="edge5" class="edge">
<title>Node6&#45;&gt;Node3</title>
<path fill="none" stroke="#404040" d="M411.77,-359.21C395.38,-346.74 376.47,-332.35 358.85,-318.93"/>
<polygon fill="none" stroke="#404040" points="358.76,-318.87 351.56,-318.42 349.21,-311.6 356.41,-312.05 358.76,-318.87"/>
<text text-anchor="middle" x="435" y="-333" font-family="Helvetica,sans-Serif" font-size="10.00"> &#45;inventoryGateway</text>
</g>
<!-- Node7 -->
<g id="node7" class="node">
<title>Node7</title>
<g id="a_node7"><a xlink:href="interfacecom_1_1example_1_1cleanarchitecture_1_1core_1_1domain_1_1IGateway.html" target="_top" xlink:title=" ">
<polygon fill="white" stroke="#666666" points="336.5,-465.5 336.5,-577.5 574.5,-577.5 574.5,-465.5 336.5,-465.5"/>
<text text-anchor="start" x="344.5" y="-565.5" font-family="Helvetica,sans-Serif" font-size="10.00">com.example.cleanarchitecture.core.domain.</text>
<text text-anchor="middle" x="455.5" y="-554.5" font-family="Helvetica,sans-Serif" font-size="10.00">IGateway&lt; S, ID &gt;</text>
<polyline fill="none" stroke="#666666" points="336.5,-547.5 574.5,-547.5 "/>
<text text-anchor="middle" x="455.5" y="-535.5" font-family="Helvetica,sans-Serif" font-size="10.00"> </text>
<polyline fill="none" stroke="#666666" points="336.5,-528.5 574.5,-528.5 "/>
<text text-anchor="start" x="344.5" y="-516.5" font-family="Helvetica,sans-Serif" font-size="10.00">+ create()</text>
<text text-anchor="start" x="344.5" y="-505.5" font-family="Helvetica,sans-Serif" font-size="10.00">+ update()</text>
<text text-anchor="start" x="344.5" y="-494.5" font-family="Helvetica,sans-Serif" font-size="10.00">+ delete()</text>
<text text-anchor="start" x="344.5" y="-483.5" font-family="Helvetica,sans-Serif" font-size="10.00">+ findById()</text>
<text text-anchor="start" x="344.5" y="-472.5" font-family="Helvetica,sans-Serif" font-size="10.00">+ findAll()</text>
</a>
</g>
</g>
<!-- Node7&#45;&gt;Node6 -->
<g id="edge6" class="edge">
<title>Node7&#45;&gt;Node6</title>
<path fill="none" stroke="#63b8ff" d="M455.5,-454.96C455.5,-445.48 455.5,-436.08 455.5,-427.62"/>
<polygon fill="none" stroke="#63b8ff" points="452,-455.23 455.5,-465.23 459,-455.23 452,-455.23"/>
</g>
</g>
</svg>
