<?xml version="1.0" encoding="UTF-8" standalone="no"?>
<!DOCTYPE svg PUBLIC "-//W3C//DTD SVG 1.1//EN"
 "http://www.w3.org/Graphics/SVG/1.1/DTD/svg11.dtd">
<!-- Generated by graphviz version 2.43.0 (0)
 -->
<!-- Title: com.example.cleanarchitecture.core.domain.AbstractEntity&lt; ID extends Serializable &gt; Pages: 1 -->
<svg width="854pt" height="354pt"
 viewBox="0.00 0.00 854.00 354.00" xmlns="http://www.w3.org/2000/svg" xmlns:xlink="http://www.w3.org/1999/xlink">
<g id="graph0" class="graph" transform="scale(1 1) rotate(0) translate(4 350)">
<title>com.example.cleanarchitecture.core.domain.AbstractEntity&lt; ID extends Serializable &gt;</title>
<!-- Node1 -->
<g id="node1" class="node">
<title>Node1</title>
<g id="a_node1"><a xlink:title=" ">
<polygon fill="#999999" stroke="#666666" points="333,-182.5 333,-250.5 571,-250.5 571,-182.5 333,-182.5"/>
<text text-anchor="start" x="341" y="-238.5" font-family="Helvetica,sans-Serif" font-size="10.00">com.example.cleanarchitecture.core.domain.</text>
<text text-anchor="middle" x="452" y="-227.5" font-family="Helvetica,sans-Serif" font-size="10.00">AbstractEntity&lt; ID extends Serializable &gt;</text>
<polyline fill="none" stroke="#666666" points="333,-220.5 571,-220.5 "/>
<text text-anchor="start" x="341" y="-208.5" font-family="Helvetica,sans-Serif" font-size="10.00">&#45; id</text>
<polyline fill="none" stroke="#666666" points="333,-201.5 571,-201.5 "/>
<text text-anchor="middle" x="452" y="-189.5" font-family="Helvetica,sans-Serif" font-size="10.00"> </text>
</a>
</g>
</g>
<!-- Node3 -->
<g id="node3" class="node">
<title>Node3</title>
<g id="a_node3"><a xlink:href="classcom_1_1example_1_1cleanarchitecture_1_1domain_1_1inventory_1_1model_1_1Inventory.html" target="_top" xlink:title=" ">
<polygon fill="white" stroke="#666666" points="0,-6 0,-129 296,-129 296,-6 0,-6"/>
<text text-anchor="start" x="8" y="-117" font-family="Helvetica,sans-Serif" font-size="10.00">com.example.cleanarchitecture.domain.inventory.model.</text>
<text text-anchor="middle" x="148" y="-106" font-family="Helvetica,sans-Serif" font-size="10.00">Inventory&lt; Long &gt;</text>
<polyline fill="none" stroke="#666666" points="0,-99 296,-99 "/>
<text text-anchor="start" x="8" y="-87" font-family="Helvetica,sans-Serif" font-size="10.00">&#45; name</text>
<text text-anchor="start" x="8" y="-76" font-family="Helvetica,sans-Serif" font-size="10.00">&#45; quantity</text>
<polyline fill="none" stroke="#666666" points="0,-69 296,-69 "/>
<text text-anchor="start" x="8" y="-57" font-family="Helvetica,sans-Serif" font-size="10.00">+ Inventory()</text>
<text text-anchor="start" x="8" y="-46" font-family="Helvetica,sans-Serif" font-size="10.00">+ reducible()</text>
<text text-anchor="start" x="8" y="-35" font-family="Helvetica,sans-Serif" font-size="10.00">+ reduce()</text>
<text text-anchor="start" x="8" y="-24" font-family="Helvetica,sans-Serif" font-size="10.00">&#45; validateName()</text>
<text text-anchor="start" x="8" y="-13" font-family="Helvetica,sans-Serif" font-size="10.00">&#45; validateQuantity()</text>
</a>
</g>
</g>
<!-- Node1&#45;&gt;Node3 -->
<g id="edge2" class="edge">
<title>Node1&#45;&gt;Node3</title>
<path fill="none" stroke="#63b8ff" d="M374.05,-177.81C343.35,-162.96 307.32,-145.54 273.15,-129.02"/>
<polygon fill="none" stroke="#63b8ff" points="372.87,-181.12 383.4,-182.33 375.92,-174.82 372.87,-181.12"/>
</g>
<!-- Node4 -->
<g id="node4" class="node">
<title>Node4</title>
<g id="a_node4"><a xlink:href="classcom_1_1example_1_1cleanarchitecture_1_1domain_1_1order_1_1model_1_1Order.html" target="_top" xlink:title=" ">
<polygon fill="white" stroke="#666666" points="314.5,-0.5 314.5,-134.5 589.5,-134.5 589.5,-0.5 314.5,-0.5"/>
<text text-anchor="start" x="322.5" y="-122.5" font-family="Helvetica,sans-Serif" font-size="10.00">com.example.cleanarchitecture.domain.order.model.</text>
<text text-anchor="middle" x="452" y="-111.5" font-family="Helvetica,sans-Serif" font-size="10.00">Order&lt; Long &gt;</text>
<polyline fill="none" stroke="#666666" points="314.5,-104.5 589.5,-104.5 "/>
<text text-anchor="start" x="322.5" y="-92.5" font-family="Helvetica,sans-Serif" font-size="10.00">&#45; quantity</text>
<text text-anchor="start" x="322.5" y="-81.5" font-family="Helvetica,sans-Serif" font-size="10.00">&#45; customerInfo</text>
<text text-anchor="start" x="322.5" y="-70.5" font-family="Helvetica,sans-Serif" font-size="10.00">&#45; inventoryId</text>
<text text-anchor="start" x="322.5" y="-59.5" font-family="Helvetica,sans-Serif" font-size="10.00">&#45; inventoryName</text>
<polyline fill="none" stroke="#666666" points="314.5,-52.5 589.5,-52.5 "/>
<text text-anchor="start" x="322.5" y="-40.5" font-family="Helvetica,sans-Serif" font-size="10.00">+ Order()</text>
<text text-anchor="start" x="322.5" y="-29.5" font-family="Helvetica,sans-Serif" font-size="10.00">+ Order()</text>
<text text-anchor="start" x="322.5" y="-18.5" font-family="Helvetica,sans-Serif" font-size="10.00">&#45; validateCustomerInfo()</text>
<text text-anchor="start" x="322.5" y="-7.5" font-family="Helvetica,sans-Serif" font-size="10.00">&#45; validateQuantity()</text>
</a>
</g>
</g>
<!-- Node1&#45;&gt;Node4 -->
<g id="edge3" class="edge">
<title>Node1&#45;&gt;Node4</title>
<path fill="none" stroke="#63b8ff" d="M452,-171.83C452,-160.19 452,-147.35 452,-134.79"/>
<polygon fill="none" stroke="#63b8ff" points="448.5,-172.14 452,-182.14 455.5,-172.14 448.5,-172.14"/>
</g>
<!-- Node5 -->
<g id="node5" class="node">
<title>Node5</title>
<g id="a_node5"><a xlink:href="classcom_1_1example_1_1cleanarchitecture_1_1core_1_1domain_1_1AbstractEntity.html" target="_top" xlink:title=" ">
<polygon fill="white" stroke="#666666" points="608,-33.5 608,-101.5 846,-101.5 846,-33.5 608,-33.5"/>
<text text-anchor="start" x="616" y="-89.5" font-family="Helvetica,sans-Serif" font-size="10.00">com.example.cleanarchitecture.core.domain.</text>
<text text-anchor="middle" x="727" y="-78.5" font-family="Helvetica,sans-Serif" font-size="10.00">AbstractEntity&lt; Long &gt;</text>
<polyline fill="none" stroke="#666666" points="608,-71.5 846,-71.5 "/>
<text text-anchor="start" x="616" y="-59.5" font-family="Helvetica,sans-Serif" font-size="10.00">&#45; id</text>
<polyline fill="none" stroke="#666666" points="608,-52.5 846,-52.5 "/>
<text text-anchor="middle" x="727" y="-40.5" font-family="Helvetica,sans-Serif" font-size="10.00"> </text>
</a>
</g>
</g>
<!-- Node1&#45;&gt;Node5 -->
<g id="edge4" class="edge">
<title>Node1&#45;&gt;Node5</title>
<path fill="none" stroke="orange" d="M522.98,-177.56C566.99,-154.03 622.98,-124.1 665.17,-101.55"/>
<polygon fill="orange" stroke="orange" points="521.23,-174.53 514.06,-182.33 524.53,-180.7 521.23,-174.53"/>
<text text-anchor="middle" x="588.5" y="-156" font-family="Helvetica,sans-Serif" font-size="10.00"> &lt; Long &gt;</text>
</g>
<!-- Node2 -->
<g id="node2" class="node">
<title>Node2</title>
<g id="a_node2"><a xlink:title=" ">
<polygon fill="white" stroke="#666666" points="415,-288.5 415,-345.5 489,-345.5 489,-288.5 415,-288.5"/>
<text text-anchor="middle" x="452" y="-333.5" font-family="Helvetica,sans-Serif" font-size="10.00">Serializable</text>
<polyline fill="none" stroke="#666666" points="415,-326.5 489,-326.5 "/>
<text text-anchor="middle" x="452" y="-314.5" font-family="Helvetica,sans-Serif" font-size="10.00"> </text>
<polyline fill="none" stroke="#666666" points="415,-307.5 489,-307.5 "/>
<text text-anchor="middle" x="452" y="-295.5" font-family="Helvetica,sans-Serif" font-size="10.00"> </text>
</a>
</g>
</g>
<!-- Node2&#45;&gt;Node1 -->
<g id="edge1" class="edge">
<title>Node2&#45;&gt;Node1</title>
<path fill="none" stroke="#63b8ff" d="M452,-278.01C452,-268.96 452,-259.38 452,-250.58"/>
<polygon fill="none" stroke="#63b8ff" points="448.5,-278.3 452,-288.3 455.5,-278.3 448.5,-278.3"/>
</g>
</g>
</svg>
