<?xml version="1.0" encoding="UTF-8" standalone="no"?>
<!DOCTYPE svg PUBLIC "-//W3C//DTD SVG 1.1//EN"
 "http://www.w3.org/Graphics/SVG/1.1/DTD/svg11.dtd">
<!-- Generated by graphviz version 2.43.0 (0)
 -->
<!-- Title: com.example.cleanarchitecture.infrastructure.config.exception.ErrorHandlers.ValidationErrorData Pages: 1 -->
<svg width="696pt" height="56pt"
 viewBox="0.00 0.00 696.00 56.00" xmlns="http://www.w3.org/2000/svg" xmlns:xlink="http://www.w3.org/1999/xlink">
<g id="graph0" class="graph" transform="scale(1 1) rotate(0) translate(4 52)">
<title>com.example.cleanarchitecture.infrastructure.config.exception.ErrorHandlers.ValidationErrorData</title>
<!-- Node1 -->
<g id="node1" class="node">
<title>Node1</title>
<g id="a_node1"><a xlink:title=" ">
<polygon fill="#999999" stroke="#666666" points="688,-30 362,-30 362,0 688,0 688,-30"/>
<text text-anchor="start" x="370" y="-18" font-family="Helvetica,sans-Serif" font-size="10.00">com.example.cleanarchitecture.infrastructure.config.exception.</text>
<text text-anchor="middle" x="525" y="-7" font-family="Helvetica,sans-Serif" font-size="10.00">ErrorHandlers.ValidationErrorData</text>
</a>
</g>
</g>
<!-- Node1&#45;&gt;Node1 -->
<g id="edge2" class="edge">
<title>Node1&#45;&gt;Node1</title>
<path fill="none" stroke="#63b8ff" d="M589.17,-40.16C581.07,-44.77 559.68,-48 525,-48 468.08,-48 446.96,-39.3 461.64,-30.1"/>
<polygon fill="#63b8ff" stroke="#63b8ff" points="592.66,-39.79 588.36,-30.1 585.68,-40.35 592.66,-39.79"/>
</g>
<!-- Node2 -->
<g id="node2" class="node">
<title>Node2</title>
<g id="a_node2"><a xlink:href="classcom_1_1example_1_1cleanarchitecture_1_1infrastructure_1_1config_1_1exception_1_1ErrorHandlers.html#ab08f9fcf4cd81f5260e06827e2e6750d" target="_top" xlink:title=" ">
<polygon fill="white" stroke="#666666" points="326,-30 0,-30 0,0 326,0 326,-30"/>
<text text-anchor="start" x="8" y="-18" font-family="Helvetica,sans-Serif" font-size="10.00">com.example.cleanarchitecture.infrastructure.config.exception.</text>
<text text-anchor="middle" x="163" y="-7" font-family="Helvetica,sans-Serif" font-size="10.00">ErrorHandlers.handleValidationError</text>
</a>
</g>
</g>
<!-- Node1&#45;&gt;Node2 -->
<g id="edge1" class="edge">
<title>Node1&#45;&gt;Node2</title>
<path fill="none" stroke="#63b8ff" d="M351.88,-15C343.34,-15 334.76,-15 326.25,-15"/>
<polygon fill="#63b8ff" stroke="#63b8ff" points="351.9,-18.5 361.9,-15 351.9,-11.5 351.9,-18.5"/>
</g>
</g>
</svg>
