<?xml version="1.0" encoding="UTF-8" standalone="no"?>
<!DOCTYPE svg PUBLIC "-//W3C//DTD SVG 1.1//EN"
 "http://www.w3.org/Graphics/SVG/1.1/DTD/svg11.dtd">
<!-- Generated by graphviz version 2.43.0 (0)
 -->
<!-- Title: com.example.cleanarchitecture.infrastructure.order.gateway.OrderDatabaseGateway Pages: 1 -->
<svg width="1011pt" height="387pt"
 viewBox="0.00 0.00 1011.00 387.00" xmlns="http://www.w3.org/2000/svg" xmlns:xlink="http://www.w3.org/1999/xlink">
<g id="graph0" class="graph" transform="scale(1 1) rotate(0) translate(4 383)">
<title>com.example.cleanarchitecture.infrastructure.order.gateway.OrderDatabaseGateway</title>
<!-- Node1 -->
<g id="node1" class="node">
<title>Node1</title>
<g id="a_node1"><a xlink:title=" ">
<polygon fill="#999999" stroke="#666666" points="316.5,-0.5 316.5,-112.5 630.5,-112.5 630.5,-0.5 316.5,-0.5"/>
<text text-anchor="start" x="324.5" y="-100.5" font-family="Helvetica,sans-Serif" font-size="10.00">com.example.cleanarchitecture.infrastructure.order.gateway.</text>
<text text-anchor="middle" x="473.5" y="-89.5" font-family="Helvetica,sans-Serif" font-size="10.00">OrderDatabaseGateway</text>
<polyline fill="none" stroke="#666666" points="316.5,-82.5 630.5,-82.5 "/>
<text text-anchor="middle" x="473.5" y="-70.5" font-family="Helvetica,sans-Serif" font-size="10.00"> </text>
<polyline fill="none" stroke="#666666" points="316.5,-63.5 630.5,-63.5 "/>
<text text-anchor="start" x="324.5" y="-51.5" font-family="Helvetica,sans-Serif" font-size="10.00">+ create()</text>
<text text-anchor="start" x="324.5" y="-40.5" font-family="Helvetica,sans-Serif" font-size="10.00">+ delete()</text>
<text text-anchor="start" x="324.5" y="-29.5" font-family="Helvetica,sans-Serif" font-size="10.00">+ findAll()</text>
<text text-anchor="start" x="324.5" y="-18.5" font-family="Helvetica,sans-Serif" font-size="10.00">+ findById()</text>
<text text-anchor="start" x="324.5" y="-7.5" font-family="Helvetica,sans-Serif" font-size="10.00">+ update()</text>
</a>
</g>
</g>
<!-- Node2 -->
<g id="node2" class="node">
<title>Node2</title>
<g id="a_node2"><a xlink:href="interfacecom_1_1example_1_1cleanarchitecture_1_1domain_1_1order_1_1gateway_1_1OrderGateway.html" target="_top" xlink:title=" ">
<polygon fill="white" stroke="#666666" points="0,-160.5 0,-228.5 285,-228.5 285,-160.5 0,-160.5"/>
<text text-anchor="start" x="8" y="-216.5" font-family="Helvetica,sans-Serif" font-size="10.00">com.example.cleanarchitecture.domain.order.gateway.</text>
<text text-anchor="middle" x="142.5" y="-205.5" font-family="Helvetica,sans-Serif" font-size="10.00">OrderGateway</text>
<polyline fill="none" stroke="#666666" points="0,-198.5 285,-198.5 "/>
<text text-anchor="middle" x="142.5" y="-186.5" font-family="Helvetica,sans-Serif" font-size="10.00"> </text>
<polyline fill="none" stroke="#666666" points="0,-179.5 285,-179.5 "/>
<text text-anchor="middle" x="142.5" y="-167.5" font-family="Helvetica,sans-Serif" font-size="10.00"> </text>
</a>
</g>
</g>
<!-- Node2&#45;&gt;Node1 -->
<g id="edge1" class="edge">
<title>Node2&#45;&gt;Node1</title>
<path fill="none" stroke="#63b8ff" d="M232.65,-156.46C265.59,-142.92 303.6,-127.31 339.54,-112.54"/>
<polygon fill="none" stroke="#63b8ff" points="230.97,-153.37 223.05,-160.4 233.63,-159.84 230.97,-153.37"/>
</g>
<!-- Node3 -->
<g id="node3" class="node">
<title>Node3</title>
<g id="a_node3"><a xlink:href="interfacecom_1_1example_1_1cleanarchitecture_1_1core_1_1domain_1_1IGateway.html" target="_top" xlink:title=" ">
<polygon fill="white" stroke="#666666" points="23.5,-266.5 23.5,-378.5 261.5,-378.5 261.5,-266.5 23.5,-266.5"/>
<text text-anchor="start" x="31.5" y="-366.5" font-family="Helvetica,sans-Serif" font-size="10.00">com.example.cleanarchitecture.core.domain.</text>
<text text-anchor="middle" x="142.5" y="-355.5" font-family="Helvetica,sans-Serif" font-size="10.00">IGateway&lt; S, ID &gt;</text>
<polyline fill="none" stroke="#666666" points="23.5,-348.5 261.5,-348.5 "/>
<text text-anchor="middle" x="142.5" y="-336.5" font-family="Helvetica,sans-Serif" font-size="10.00"> </text>
<polyline fill="none" stroke="#666666" points="23.5,-329.5 261.5,-329.5 "/>
<text text-anchor="start" x="31.5" y="-317.5" font-family="Helvetica,sans-Serif" font-size="10.00">+ create()</text>
<text text-anchor="start" x="31.5" y="-306.5" font-family="Helvetica,sans-Serif" font-size="10.00">+ update()</text>
<text text-anchor="start" x="31.5" y="-295.5" font-family="Helvetica,sans-Serif" font-size="10.00">+ delete()</text>
<text text-anchor="start" x="31.5" y="-284.5" font-family="Helvetica,sans-Serif" font-size="10.00">+ findById()</text>
<text text-anchor="start" x="31.5" y="-273.5" font-family="Helvetica,sans-Serif" font-size="10.00">+ findAll()</text>
</a>
</g>
</g>
<!-- Node3&#45;&gt;Node2 -->
<g id="edge2" class="edge">
<title>Node3&#45;&gt;Node2</title>
<path fill="none" stroke="#63b8ff" d="M142.5,-255.96C142.5,-246.48 142.5,-237.08 142.5,-228.62"/>
<polygon fill="none" stroke="#63b8ff" points="139,-256.23 142.5,-266.23 146,-256.23 139,-256.23"/>
</g>
<!-- Node4 -->
<g id="node4" class="node">
<title>Node4</title>
<g id="a_node4"><a xlink:href="interfacecom_1_1example_1_1cleanarchitecture_1_1infrastructure_1_1config_1_1db_1_1repository_1_1OrderRepository.html" target="_top" xlink:title=" ">
<polygon fill="white" stroke="#666666" points="303,-160.5 303,-228.5 644,-228.5 644,-160.5 303,-160.5"/>
<text text-anchor="start" x="311" y="-216.5" font-family="Helvetica,sans-Serif" font-size="10.00">com.example.cleanarchitecture.infrastructure.config.db.repository.</text>
<text text-anchor="middle" x="473.5" y="-205.5" font-family="Helvetica,sans-Serif" font-size="10.00">OrderRepository</text>
<polyline fill="none" stroke="#666666" points="303,-198.5 644,-198.5 "/>
<text text-anchor="middle" x="473.5" y="-186.5" font-family="Helvetica,sans-Serif" font-size="10.00"> </text>
<polyline fill="none" stroke="#666666" points="303,-179.5 644,-179.5 "/>
<text text-anchor="middle" x="473.5" y="-167.5" font-family="Helvetica,sans-Serif" font-size="10.00"> </text>
</a>
</g>
</g>
<!-- Node4&#45;&gt;Node1 -->
<g id="edge3" class="edge">
<title>Node4&#45;&gt;Node1</title>
<path fill="none" stroke="#404040" d="M473.5,-160.23C473.5,-149.5 473.5,-137.18 473.5,-124.9"/>
<polygon fill="none" stroke="#404040" points="473.5,-124.68 469.5,-118.68 473.5,-112.68 477.5,-118.68 473.5,-124.68"/>
<text text-anchor="middle" x="516" y="-134" font-family="Helvetica,sans-Serif" font-size="10.00"> &#45;orderRepository</text>
</g>
<!-- Node5 -->
<g id="node5" class="node">
<title>Node5</title>
<g id="a_node5"><a xlink:title=" ">
<polygon fill="white" stroke="#666666" points="391.5,-288.5 391.5,-356.5 555.5,-356.5 555.5,-288.5 391.5,-288.5"/>
<text text-anchor="start" x="399.5" y="-344.5" font-family="Helvetica,sans-Serif" font-size="10.00">JpaRepository&lt; OrderSchema,</text>
<text text-anchor="middle" x="473.5" y="-333.5" font-family="Helvetica,sans-Serif" font-size="10.00"> Long &gt;</text>
<polyline fill="none" stroke="#666666" points="391.5,-326.5 555.5,-326.5 "/>
<text text-anchor="middle" x="473.5" y="-314.5" font-family="Helvetica,sans-Serif" font-size="10.00"> </text>
<polyline fill="none" stroke="#666666" points="391.5,-307.5 555.5,-307.5 "/>
<text text-anchor="middle" x="473.5" y="-295.5" font-family="Helvetica,sans-Serif" font-size="10.00"> </text>
</a>
</g>
</g>
<!-- Node5&#45;&gt;Node4 -->
<g id="edge4" class="edge">
<title>Node5&#45;&gt;Node4</title>
<path fill="none" stroke="#63b8ff" d="M473.5,-278.11C473.5,-261.97 473.5,-243.92 473.5,-228.82"/>
<polygon fill="none" stroke="#63b8ff" points="470,-278.39 473.5,-288.39 477,-278.4 470,-278.39"/>
</g>
<!-- Node6 -->
<g id="node6" class="node">
<title>Node6</title>
<g id="a_node6"><a xlink:href="interfacecom_1_1example_1_1cleanarchitecture_1_1infrastructure_1_1config_1_1db_1_1repository_1_1InventoryRepository.html" target="_top" xlink:title=" ">
<polygon fill="white" stroke="#666666" points="662,-160.5 662,-228.5 1003,-228.5 1003,-160.5 662,-160.5"/>
<text text-anchor="start" x="670" y="-216.5" font-family="Helvetica,sans-Serif" font-size="10.00">com.example.cleanarchitecture.infrastructure.config.db.repository.</text>
<text text-anchor="middle" x="832.5" y="-205.5" font-family="Helvetica,sans-Serif" font-size="10.00">InventoryRepository</text>
<polyline fill="none" stroke="#666666" points="662,-198.5 1003,-198.5 "/>
<text text-anchor="middle" x="832.5" y="-186.5" font-family="Helvetica,sans-Serif" font-size="10.00"> </text>
<polyline fill="none" stroke="#666666" points="662,-179.5 1003,-179.5 "/>
<text text-anchor="start" x="670" y="-167.5" font-family="Helvetica,sans-Serif" font-size="10.00">+ existsByName()</text>
</a>
</g>
</g>
<!-- Node6&#45;&gt;Node1 -->
<g id="edge5" class="edge">
<title>Node6&#45;&gt;Node1</title>
<path fill="none" stroke="#404040" d="M745.14,-160.4C710.49,-147.28 669.57,-131.78 630.14,-116.84"/>
<polygon fill="none" stroke="#404040" points="630.01,-116.79 622.98,-118.41 618.79,-112.54 625.82,-110.93 630.01,-116.79"/>
<text text-anchor="middle" x="749.5" y="-134" font-family="Helvetica,sans-Serif" font-size="10.00"> &#45;inventoryRepository</text>
</g>
<!-- Node7 -->
<g id="node7" class="node">
<title>Node7</title>
<g id="a_node7"><a xlink:title=" ">
<polygon fill="white" stroke="#666666" points="761.5,-288.5 761.5,-356.5 903.5,-356.5 903.5,-288.5 761.5,-288.5"/>
<text text-anchor="start" x="769.5" y="-344.5" font-family="Helvetica,sans-Serif" font-size="10.00">JpaRepository&lt; Inventory</text>
<text text-anchor="middle" x="832.5" y="-333.5" font-family="Helvetica,sans-Serif" font-size="10.00">Schema, Long &gt;</text>
<polyline fill="none" stroke="#666666" points="761.5,-326.5 903.5,-326.5 "/>
<text text-anchor="middle" x="832.5" y="-314.5" font-family="Helvetica,sans-Serif" font-size="10.00"> </text>
<polyline fill="none" stroke="#666666" points="761.5,-307.5 903.5,-307.5 "/>
<text text-anchor="middle" x="832.5" y="-295.5" font-family="Helvetica,sans-Serif" font-size="10.00"> </text>
</a>
</g>
</g>
<!-- Node7&#45;&gt;Node6 -->
<g id="edge6" class="edge">
<title>Node7&#45;&gt;Node6</title>
<path fill="none" stroke="#63b8ff" d="M832.5,-278.11C832.5,-261.97 832.5,-243.92 832.5,-228.82"/>
<polygon fill="none" stroke="#63b8ff" points="829,-278.39 832.5,-288.39 836,-278.4 829,-278.39"/>
</g>
</g>
</svg>
