<?xml version="1.0" encoding="UTF-8" standalone="no"?>
<!DOCTYPE svg PUBLIC "-//W3C//DTD SVG 1.1//EN"
 "http://www.w3.org/Graphics/SVG/1.1/DTD/svg11.dtd">
<!-- Generated by graphviz version 2.43.0 (0)
 -->
<!-- Title: com.example.cleanarchitecture.usecase.inventory.GetInventoryUseCase Pages: 1 -->
<svg width="313pt" height="354pt"
 viewBox="0.00 0.00 313.00 354.00" xmlns="http://www.w3.org/2000/svg" xmlns:xlink="http://www.w3.org/1999/xlink">
<g id="graph0" class="graph" transform="scale(1 1) rotate(0) translate(4 350)">
<title>com.example.cleanarchitecture.usecase.inventory.GetInventoryUseCase</title>
<!-- Node1 -->
<g id="node1" class="node">
<title>Node1</title>
<g id="a_node1"><a xlink:title=" ">
<polygon fill="#999999" stroke="#666666" points="20,-0.5 20,-79.5 285,-79.5 285,-0.5 20,-0.5"/>
<text text-anchor="start" x="28" y="-67.5" font-family="Helvetica,sans-Serif" font-size="10.00">com.example.cleanarchitecture.usecase.inventory.</text>
<text text-anchor="middle" x="152.5" y="-56.5" font-family="Helvetica,sans-Serif" font-size="10.00">GetInventoryUseCase</text>
<polyline fill="none" stroke="#666666" points="20,-49.5 285,-49.5 "/>
<text text-anchor="middle" x="152.5" y="-37.5" font-family="Helvetica,sans-Serif" font-size="10.00"> </text>
<polyline fill="none" stroke="#666666" points="20,-30.5 285,-30.5 "/>
<text text-anchor="start" x="28" y="-18.5" font-family="Helvetica,sans-Serif" font-size="10.00">+ GetInventoryUseCase()</text>
<text text-anchor="start" x="28" y="-7.5" font-family="Helvetica,sans-Serif" font-size="10.00">+ getInventory()</text>
</a>
</g>
</g>
<!-- Node2 -->
<g id="node2" class="node">
<title>Node2</title>
<g id="a_node2"><a xlink:href="interfacecom_1_1example_1_1cleanarchitecture_1_1domain_1_1inventory_1_1gateway_1_1InventoryGateway.html" target="_top" xlink:title=" ">
<polygon fill="white" stroke="#666666" points="0,-127.5 0,-195.5 305,-195.5 305,-127.5 0,-127.5"/>
<text text-anchor="start" x="8" y="-183.5" font-family="Helvetica,sans-Serif" font-size="10.00">com.example.cleanarchitecture.domain.inventory.gateway.</text>
<text text-anchor="middle" x="152.5" y="-172.5" font-family="Helvetica,sans-Serif" font-size="10.00">InventoryGateway</text>
<polyline fill="none" stroke="#666666" points="0,-165.5 305,-165.5 "/>
<text text-anchor="middle" x="152.5" y="-153.5" font-family="Helvetica,sans-Serif" font-size="10.00"> </text>
<polyline fill="none" stroke="#666666" points="0,-146.5 305,-146.5 "/>
<text text-anchor="start" x="8" y="-134.5" font-family="Helvetica,sans-Serif" font-size="10.00">+ findAll()</text>
</a>
</g>
</g>
<!-- Node2&#45;&gt;Node1 -->
<g id="edge1" class="edge">
<title>Node2&#45;&gt;Node1</title>
<path fill="none" stroke="#404040" d="M152.5,-127.21C152.5,-116.24 152.5,-103.78 152.5,-91.81"/>
<polygon fill="none" stroke="#404040" points="152.5,-91.6 148.5,-85.6 152.5,-79.6 156.5,-85.6 152.5,-91.6"/>
<text text-anchor="middle" x="201" y="-101" font-family="Helvetica,sans-Serif" font-size="10.00"> &#45;inventoryGateway</text>
</g>
<!-- Node3 -->
<g id="node3" class="node">
<title>Node3</title>
<g id="a_node3"><a xlink:href="interfacecom_1_1example_1_1cleanarchitecture_1_1core_1_1domain_1_1IGateway.html" target="_top" xlink:title=" ">
<polygon fill="white" stroke="#666666" points="33.5,-233.5 33.5,-345.5 271.5,-345.5 271.5,-233.5 33.5,-233.5"/>
<text text-anchor="start" x="41.5" y="-333.5" font-family="Helvetica,sans-Serif" font-size="10.00">com.example.cleanarchitecture.core.domain.</text>
<text text-anchor="middle" x="152.5" y="-322.5" font-family="Helvetica,sans-Serif" font-size="10.00">IGateway&lt; S, ID &gt;</text>
<polyline fill="none" stroke="#666666" points="33.5,-315.5 271.5,-315.5 "/>
<text text-anchor="middle" x="152.5" y="-303.5" font-family="Helvetica,sans-Serif" font-size="10.00"> </text>
<polyline fill="none" stroke="#666666" points="33.5,-296.5 271.5,-296.5 "/>
<text text-anchor="start" x="41.5" y="-284.5" font-family="Helvetica,sans-Serif" font-size="10.00">+ create()</text>
<text text-anchor="start" x="41.5" y="-273.5" font-family="Helvetica,sans-Serif" font-size="10.00">+ update()</text>
<text text-anchor="start" x="41.5" y="-262.5" font-family="Helvetica,sans-Serif" font-size="10.00">+ delete()</text>
<text text-anchor="start" x="41.5" y="-251.5" font-family="Helvetica,sans-Serif" font-size="10.00">+ findById()</text>
<text text-anchor="start" x="41.5" y="-240.5" font-family="Helvetica,sans-Serif" font-size="10.00">+ findAll()</text>
</a>
</g>
</g>
<!-- Node3&#45;&gt;Node2 -->
<g id="edge2" class="edge">
<title>Node3&#45;&gt;Node2</title>
<path fill="none" stroke="#63b8ff" d="M152.5,-222.96C152.5,-213.48 152.5,-204.08 152.5,-195.62"/>
<polygon fill="none" stroke="#63b8ff" points="149,-223.23 152.5,-233.23 156,-223.23 149,-223.23"/>
</g>
</g>
</svg>
