<?xml version="1.0" encoding="UTF-8" standalone="no"?>
<!DOCTYPE svg PUBLIC "-//W3C//DTD SVG 1.1//EN"
 "http://www.w3.org/Graphics/SVG/1.1/DTD/svg11.dtd">
<!-- Generated by graphviz version 2.43.0 (0)
 -->
<!-- Title: com.example.cleanarchitecture.usecase.order.CreateOrderUseCase Pages: 1 -->
<svg width="616pt" height="354pt"
 viewBox="0.00 0.00 616.00 354.00" xmlns="http://www.w3.org/2000/svg" xmlns:xlink="http://www.w3.org/1999/xlink">
<g id="graph0" class="graph" transform="scale(1 1) rotate(0) translate(4 350)">
<title>com.example.cleanarchitecture.usecase.order.CreateOrderUseCase</title>
<!-- Node1 -->
<g id="node1" class="node">
<title>Node1</title>
<g id="a_node1"><a xlink:title=" ">
<polygon fill="#999999" stroke="#666666" points="176,-0.5 176,-79.5 421,-79.5 421,-0.5 176,-0.5"/>
<text text-anchor="start" x="184" y="-67.5" font-family="Helvetica,sans-Serif" font-size="10.00">com.example.cleanarchitecture.usecase.order.</text>
<text text-anchor="middle" x="298.5" y="-56.5" font-family="Helvetica,sans-Serif" font-size="10.00">CreateOrderUseCase</text>
<polyline fill="none" stroke="#666666" points="176,-49.5 421,-49.5 "/>
<text text-anchor="middle" x="298.5" y="-37.5" font-family="Helvetica,sans-Serif" font-size="10.00"> </text>
<polyline fill="none" stroke="#666666" points="176,-30.5 421,-30.5 "/>
<text text-anchor="start" x="184" y="-18.5" font-family="Helvetica,sans-Serif" font-size="10.00">+ CreateOrderUseCase()</text>
<text text-anchor="start" x="184" y="-7.5" font-family="Helvetica,sans-Serif" font-size="10.00">+ createOrder()</text>
</a>
</g>
</g>
<!-- Node2 -->
<g id="node2" class="node">
<title>Node2</title>
<g id="a_node2"><a xlink:href="interfacecom_1_1example_1_1cleanarchitecture_1_1domain_1_1order_1_1gateway_1_1OrderGateway.html" target="_top" xlink:title=" ">
<polygon fill="white" stroke="#666666" points="0,-127.5 0,-195.5 285,-195.5 285,-127.5 0,-127.5"/>
<text text-anchor="start" x="8" y="-183.5" font-family="Helvetica,sans-Serif" font-size="10.00">com.example.cleanarchitecture.domain.order.gateway.</text>
<text text-anchor="middle" x="142.5" y="-172.5" font-family="Helvetica,sans-Serif" font-size="10.00">OrderGateway</text>
<polyline fill="none" stroke="#666666" points="0,-165.5 285,-165.5 "/>
<text text-anchor="middle" x="142.5" y="-153.5" font-family="Helvetica,sans-Serif" font-size="10.00"> </text>
<polyline fill="none" stroke="#666666" points="0,-146.5 285,-146.5 "/>
<text text-anchor="middle" x="142.5" y="-134.5" font-family="Helvetica,sans-Serif" font-size="10.00"> </text>
</a>
</g>
</g>
<!-- Node2&#45;&gt;Node1 -->
<g id="edge1" class="edge">
<title>Node2&#45;&gt;Node1</title>
<path fill="none" stroke="#404040" d="M185.95,-127.21C202.23,-114.74 221.03,-100.35 238.54,-86.93"/>
<polygon fill="none" stroke="#404040" points="238.58,-86.9 240.91,-80.07 248.11,-79.6 245.78,-86.42 238.58,-86.9"/>
<text text-anchor="middle" x="258.5" y="-101" font-family="Helvetica,sans-Serif" font-size="10.00"> &#45;orderGateway</text>
</g>
<!-- Node3 -->
<g id="node3" class="node">
<title>Node3</title>
<g id="a_node3"><a xlink:href="interfacecom_1_1example_1_1cleanarchitecture_1_1core_1_1domain_1_1IGateway.html" target="_top" xlink:title=" ">
<polygon fill="white" stroke="#666666" points="23.5,-233.5 23.5,-345.5 261.5,-345.5 261.5,-233.5 23.5,-233.5"/>
<text text-anchor="start" x="31.5" y="-333.5" font-family="Helvetica,sans-Serif" font-size="10.00">com.example.cleanarchitecture.core.domain.</text>
<text text-anchor="middle" x="142.5" y="-322.5" font-family="Helvetica,sans-Serif" font-size="10.00">IGateway&lt; S, ID &gt;</text>
<polyline fill="none" stroke="#666666" points="23.5,-315.5 261.5,-315.5 "/>
<text text-anchor="middle" x="142.5" y="-303.5" font-family="Helvetica,sans-Serif" font-size="10.00"> </text>
<polyline fill="none" stroke="#666666" points="23.5,-296.5 261.5,-296.5 "/>
<text text-anchor="start" x="31.5" y="-284.5" font-family="Helvetica,sans-Serif" font-size="10.00">+ create()</text>
<text text-anchor="start" x="31.5" y="-273.5" font-family="Helvetica,sans-Serif" font-size="10.00">+ update()</text>
<text text-anchor="start" x="31.5" y="-262.5" font-family="Helvetica,sans-Serif" font-size="10.00">+ delete()</text>
<text text-anchor="start" x="31.5" y="-251.5" font-family="Helvetica,sans-Serif" font-size="10.00">+ findById()</text>
<text text-anchor="start" x="31.5" y="-240.5" font-family="Helvetica,sans-Serif" font-size="10.00">+ findAll()</text>
</a>
</g>
</g>
<!-- Node3&#45;&gt;Node2 -->
<g id="edge2" class="edge">
<title>Node3&#45;&gt;Node2</title>
<path fill="none" stroke="#63b8ff" d="M142.5,-222.96C142.5,-213.48 142.5,-204.08 142.5,-195.62"/>
<polygon fill="none" stroke="#63b8ff" points="139,-223.23 142.5,-233.23 146,-223.23 139,-223.23"/>
</g>
<!-- Node4 -->
<g id="node4" class="node">
<title>Node4</title>
<g id="a_node4"><a xlink:href="interfacecom_1_1example_1_1cleanarchitecture_1_1domain_1_1inventory_1_1gateway_1_1InventoryGateway.html" target="_top" xlink:title=" ">
<polygon fill="white" stroke="#666666" points="303,-127.5 303,-195.5 608,-195.5 608,-127.5 303,-127.5"/>
<text text-anchor="start" x="311" y="-183.5" font-family="Helvetica,sans-Serif" font-size="10.00">com.example.cleanarchitecture.domain.inventory.gateway.</text>
<text text-anchor="middle" x="455.5" y="-172.5" font-family="Helvetica,sans-Serif" font-size="10.00">InventoryGateway</text>
<polyline fill="none" stroke="#666666" points="303,-165.5 608,-165.5 "/>
<text text-anchor="middle" x="455.5" y="-153.5" font-family="Helvetica,sans-Serif" font-size="10.00"> </text>
<polyline fill="none" stroke="#666666" points="303,-146.5 608,-146.5 "/>
<text text-anchor="start" x="311" y="-134.5" font-family="Helvetica,sans-Serif" font-size="10.00">+ findAll()</text>
</a>
</g>
</g>
<!-- Node4&#45;&gt;Node1 -->
<g id="edge3" class="edge">
<title>Node4&#45;&gt;Node1</title>
<path fill="none" stroke="#404040" d="M411.77,-127.21C395.38,-114.74 376.47,-100.35 358.85,-86.93"/>
<polygon fill="none" stroke="#404040" points="358.76,-86.87 351.56,-86.42 349.21,-79.6 356.41,-80.05 358.76,-86.87"/>
<text text-anchor="middle" x="435" y="-101" font-family="Helvetica,sans-Serif" font-size="10.00"> &#45;inventoryGateway</text>
</g>
<!-- Node5 -->
<g id="node5" class="node">
<title>Node5</title>
<g id="a_node5"><a xlink:href="interfacecom_1_1example_1_1cleanarchitecture_1_1core_1_1domain_1_1IGateway.html" target="_top" xlink:title=" ">
<polygon fill="white" stroke="#666666" points="336.5,-233.5 336.5,-345.5 574.5,-345.5 574.5,-233.5 336.5,-233.5"/>
<text text-anchor="start" x="344.5" y="-333.5" font-family="Helvetica,sans-Serif" font-size="10.00">com.example.cleanarchitecture.core.domain.</text>
<text text-anchor="middle" x="455.5" y="-322.5" font-family="Helvetica,sans-Serif" font-size="10.00">IGateway&lt; S, ID &gt;</text>
<polyline fill="none" stroke="#666666" points="336.5,-315.5 574.5,-315.5 "/>
<text text-anchor="middle" x="455.5" y="-303.5" font-family="Helvetica,sans-Serif" font-size="10.00"> </text>
<polyline fill="none" stroke="#666666" points="336.5,-296.5 574.5,-296.5 "/>
<text text-anchor="start" x="344.5" y="-284.5" font-family="Helvetica,sans-Serif" font-size="10.00">+ create()</text>
<text text-anchor="start" x="344.5" y="-273.5" font-family="Helvetica,sans-Serif" font-size="10.00">+ update()</text>
<text text-anchor="start" x="344.5" y="-262.5" font-family="Helvetica,sans-Serif" font-size="10.00">+ delete()</text>
<text text-anchor="start" x="344.5" y="-251.5" font-family="Helvetica,sans-Serif" font-size="10.00">+ findById()</text>
<text text-anchor="start" x="344.5" y="-240.5" font-family="Helvetica,sans-Serif" font-size="10.00">+ findAll()</text>
</a>
</g>
</g>
<!-- Node5&#45;&gt;Node4 -->
<g id="edge4" class="edge">
<title>Node5&#45;&gt;Node4</title>
<path fill="none" stroke="#63b8ff" d="M455.5,-222.96C455.5,-213.48 455.5,-204.08 455.5,-195.62"/>
<polygon fill="none" stroke="#63b8ff" points="452,-223.23 455.5,-233.23 459,-223.23 452,-223.23"/>
</g>
</g>
</svg>
