<?xml version="1.0" encoding="UTF-8" standalone="no"?>
<!DOCTYPE svg PUBLIC "-//W3C//DTD SVG 1.1//EN"
 "http://www.w3.org/Graphics/SVG/1.1/DTD/svg11.dtd">
<!-- Generated by graphviz version 2.43.0 (0)
 -->
<!-- Title: com.example.cleanarchitecture.infrastructure.config.db.schema.AbstractEntitySchema&lt; ID extends Serializable &gt; Pages: 1 -->
<svg width="690pt" height="438pt"
 viewBox="0.00 0.00 690.00 438.00" xmlns="http://www.w3.org/2000/svg" xmlns:xlink="http://www.w3.org/1999/xlink">
<g id="graph0" class="graph" transform="scale(1 1) rotate(0) translate(4 434)">
<title>com.example.cleanarchitecture.infrastructure.config.db.schema.AbstractEntitySchema&lt; ID extends Serializable &gt;</title>
<!-- Node1 -->
<g id="node1" class="node">
<title>Node1</title>
<g id="a_node1"><a xlink:title=" ">
<polygon fill="#999999" stroke="#666666" points="175,-266.5 175,-334.5 507,-334.5 507,-266.5 175,-266.5"/>
<text text-anchor="start" x="183" y="-322.5" font-family="Helvetica,sans-Serif" font-size="10.00">com.example.cleanarchitecture.infrastructure.config.db.schema.</text>
<text text-anchor="middle" x="341" y="-311.5" font-family="Helvetica,sans-Serif" font-size="10.00">AbstractEntitySchema&lt; ID extends Serializable &gt;</text>
<polyline fill="none" stroke="#666666" points="175,-304.5 507,-304.5 "/>
<text text-anchor="start" x="183" y="-292.5" font-family="Helvetica,sans-Serif" font-size="10.00">&#45; id</text>
<polyline fill="none" stroke="#666666" points="175,-285.5 507,-285.5 "/>
<text text-anchor="middle" x="341" y="-273.5" font-family="Helvetica,sans-Serif" font-size="10.00"> </text>
</a>
</g>
</g>
<!-- Node3 -->
<g id="node3" class="node">
<title>Node3</title>
<g id="a_node3"><a xlink:href="classcom_1_1example_1_1cleanarchitecture_1_1infrastructure_1_1config_1_1db_1_1schema_1_1AbstractEntitySchema.html" target="_top" xlink:title=" ">
<polygon fill="white" stroke="#666666" points="175,-150.5 175,-218.5 507,-218.5 507,-150.5 175,-150.5"/>
<text text-anchor="start" x="183" y="-206.5" font-family="Helvetica,sans-Serif" font-size="10.00">com.example.cleanarchitecture.infrastructure.config.db.schema.</text>
<text text-anchor="middle" x="341" y="-195.5" font-family="Helvetica,sans-Serif" font-size="10.00">AbstractEntitySchema&lt; Long &gt;</text>
<polyline fill="none" stroke="#666666" points="175,-188.5 507,-188.5 "/>
<text text-anchor="start" x="183" y="-176.5" font-family="Helvetica,sans-Serif" font-size="10.00">&#45; id</text>
<polyline fill="none" stroke="#666666" points="175,-169.5 507,-169.5 "/>
<text text-anchor="middle" x="341" y="-157.5" font-family="Helvetica,sans-Serif" font-size="10.00"> </text>
</a>
</g>
</g>
<!-- Node1&#45;&gt;Node3 -->
<g id="edge2" class="edge">
<title>Node1&#45;&gt;Node3</title>
<path fill="none" stroke="orange" d="M341,-256.06C341,-243.64 341,-230.32 341,-218.62"/>
<polygon fill="orange" stroke="orange" points="337.5,-256.22 341,-266.22 344.5,-256.22 337.5,-256.22"/>
<text text-anchor="middle" x="365.5" y="-240" font-family="Helvetica,sans-Serif" font-size="10.00"> &lt; Long &gt;</text>
</g>
<!-- Node2 -->
<g id="node2" class="node">
<title>Node2</title>
<g id="a_node2"><a xlink:title=" ">
<polygon fill="white" stroke="#666666" points="304,-372.5 304,-429.5 378,-429.5 378,-372.5 304,-372.5"/>
<text text-anchor="middle" x="341" y="-417.5" font-family="Helvetica,sans-Serif" font-size="10.00">Serializable</text>
<polyline fill="none" stroke="#666666" points="304,-410.5 378,-410.5 "/>
<text text-anchor="middle" x="341" y="-398.5" font-family="Helvetica,sans-Serif" font-size="10.00"> </text>
<polyline fill="none" stroke="#666666" points="304,-391.5 378,-391.5 "/>
<text text-anchor="middle" x="341" y="-379.5" font-family="Helvetica,sans-Serif" font-size="10.00"> </text>
</a>
</g>
</g>
<!-- Node2&#45;&gt;Node1 -->
<g id="edge1" class="edge">
<title>Node2&#45;&gt;Node1</title>
<path fill="none" stroke="#63b8ff" d="M341,-362.01C341,-352.96 341,-343.38 341,-334.58"/>
<polygon fill="none" stroke="#63b8ff" points="337.5,-362.3 341,-372.3 344.5,-362.3 337.5,-362.3"/>
</g>
<!-- Node4 -->
<g id="node4" class="node">
<title>Node4</title>
<g id="a_node4"><a xlink:href="classcom_1_1example_1_1cleanarchitecture_1_1infrastructure_1_1config_1_1db_1_1schema_1_1InventorySchema.html" target="_top" xlink:title=" ">
<polygon fill="white" stroke="#666666" points="0,-6 0,-107 332,-107 332,-6 0,-6"/>
<text text-anchor="start" x="8" y="-95" font-family="Helvetica,sans-Serif" font-size="10.00">com.example.cleanarchitecture.infrastructure.config.db.schema.</text>
<text text-anchor="middle" x="166" y="-84" font-family="Helvetica,sans-Serif" font-size="10.00">InventorySchema</text>
<polyline fill="none" stroke="#666666" points="0,-77 332,-77 "/>
<text text-anchor="start" x="8" y="-65" font-family="Helvetica,sans-Serif" font-size="10.00">&#45; name</text>
<text text-anchor="start" x="8" y="-54" font-family="Helvetica,sans-Serif" font-size="10.00">&#45; quantity</text>
<text text-anchor="start" x="8" y="-43" font-family="Helvetica,sans-Serif" font-size="10.00">&#45; createdAt</text>
<text text-anchor="start" x="8" y="-32" font-family="Helvetica,sans-Serif" font-size="10.00">&#45; updatedAt</text>
<polyline fill="none" stroke="#666666" points="0,-25 332,-25 "/>
<text text-anchor="start" x="8" y="-13" font-family="Helvetica,sans-Serif" font-size="10.00">+ InventorySchema()</text>
</a>
</g>
</g>
<!-- Node3&#45;&gt;Node4 -->
<g id="edge3" class="edge">
<title>Node3&#45;&gt;Node4</title>
<path fill="none" stroke="#63b8ff" d="M286.66,-144.38C270.34,-132.62 252.21,-119.57 235.07,-107.23"/>
<polygon fill="none" stroke="#63b8ff" points="284.86,-147.39 295.02,-150.39 288.95,-141.71 284.86,-147.39"/>
</g>
<!-- Node5 -->
<g id="node5" class="node">
<title>Node5</title>
<g id="a_node5"><a xlink:href="classcom_1_1example_1_1cleanarchitecture_1_1infrastructure_1_1config_1_1db_1_1schema_1_1OrderSchema.html" target="_top" xlink:title=" ">
<polygon fill="white" stroke="#666666" points="350,-0.5 350,-112.5 682,-112.5 682,-0.5 350,-0.5"/>
<text text-anchor="start" x="358" y="-100.5" font-family="Helvetica,sans-Serif" font-size="10.00">com.example.cleanarchitecture.infrastructure.config.db.schema.</text>
<text text-anchor="middle" x="516" y="-89.5" font-family="Helvetica,sans-Serif" font-size="10.00">OrderSchema</text>
<polyline fill="none" stroke="#666666" points="350,-82.5 682,-82.5 "/>
<text text-anchor="start" x="358" y="-70.5" font-family="Helvetica,sans-Serif" font-size="10.00">&#45; customerInfo</text>
<text text-anchor="start" x="358" y="-59.5" font-family="Helvetica,sans-Serif" font-size="10.00">&#45; quantity</text>
<text text-anchor="start" x="358" y="-48.5" font-family="Helvetica,sans-Serif" font-size="10.00">&#45; createdAt</text>
<text text-anchor="start" x="358" y="-37.5" font-family="Helvetica,sans-Serif" font-size="10.00">&#45; updatedAt</text>
<text text-anchor="start" x="358" y="-26.5" font-family="Helvetica,sans-Serif" font-size="10.00">&#45; inventorySchema</text>
<polyline fill="none" stroke="#666666" points="350,-19.5 682,-19.5 "/>
<text text-anchor="start" x="358" y="-7.5" font-family="Helvetica,sans-Serif" font-size="10.00">+ OrderSchema()</text>
</a>
</g>
</g>
<!-- Node3&#45;&gt;Node5 -->
<g id="edge4" class="edge">
<title>Node3&#45;&gt;Node5</title>
<path fill="none" stroke="#63b8ff" d="M395.48,-144.27C409.44,-134.23 424.7,-123.23 439.54,-112.55"/>
<polygon fill="none" stroke="#63b8ff" points="393.05,-141.71 386.98,-150.39 397.14,-147.39 393.05,-141.71"/>
</g>
</g>
</svg>
