<?xml version="1.0" encoding="UTF-8" standalone="no"?>
<!DOCTYPE svg PUBLIC "-//W3C//DTD SVG 1.1//EN"
 "http://www.w3.org/Graphics/SVG/1.1/DTD/svg11.dtd">
<!-- Generated by graphviz version 2.43.0 (0)
 -->
<!-- Title: com.example.cleanarchitecture.infrastructure.inventory.controller.CreateInventoryController.createInventory Pages: 1 -->
<svg width="969pt" height="134pt"
 viewBox="0.00 0.00 969.00 134.00" xmlns="http://www.w3.org/2000/svg" xmlns:xlink="http://www.w3.org/1999/xlink">
<g id="graph0" class="graph" transform="scale(1 1) rotate(0) translate(4 130)">
<title>com.example.cleanarchitecture.infrastructure.inventory.controller.CreateInventoryController.createInventory</title>
<!-- Node1 -->
<g id="node1" class="node">
<title>Node1</title>
<g id="a_node1"><a xlink:title=" ">
<polygon fill="#999999" stroke="#666666" points="340,-78 0,-78 0,-48 340,-48 340,-78"/>
<text text-anchor="start" x="8" y="-66" font-family="Helvetica,sans-Serif" font-size="10.00">com.example.cleanarchitecture.infrastructure.inventory.controller.</text>
<text text-anchor="middle" x="170" y="-55" font-family="Helvetica,sans-Serif" font-size="10.00">CreateInventoryController.createInventory</text>
</a>
</g>
</g>
<!-- Node2 -->
<g id="node2" class="node">
<title>Node2</title>
<g id="a_node2"><a xlink:href="classcom_1_1example_1_1cleanarchitecture_1_1usecase_1_1inventory_1_1CreateInventoryUseCase.html#aaad5799d9fd2a08aa2c446a5cb954a0d" target="_top" xlink:title=" ">
<polygon fill="white" stroke="#666666" points="641,-78 376,-78 376,-48 641,-48 641,-78"/>
<text text-anchor="start" x="384" y="-66" font-family="Helvetica,sans-Serif" font-size="10.00">com.example.cleanarchitecture.usecase.inventory.</text>
<text text-anchor="middle" x="508.5" y="-55" font-family="Helvetica,sans-Serif" font-size="10.00">CreateInventoryUseCase.createInventory</text>
</a>
</g>
</g>
<!-- Node1&#45;&gt;Node2 -->
<g id="edge1" class="edge">
<title>Node1&#45;&gt;Node2</title>
<path fill="none" stroke="#63b8ff" d="M340.24,-63C348.73,-63 357.22,-63 365.62,-63"/>
<polygon fill="#63b8ff" stroke="#63b8ff" points="365.82,-66.5 375.82,-63 365.82,-59.5 365.82,-66.5"/>
</g>
<!-- Node3 -->
<g id="node3" class="node">
<title>Node3</title>
<g id="a_node3"><a xlink:href="interfacecom_1_1example_1_1cleanarchitecture_1_1core_1_1domain_1_1IGateway.html#acd8f34d5bc57a8336c406b12b9f0aa61" target="_top" xlink:title=" ">
<polygon fill="white" stroke="#666666" points="938,-126 700,-126 700,-96 938,-96 938,-126"/>
<text text-anchor="start" x="708" y="-114" font-family="Helvetica,sans-Serif" font-size="10.00">com.example.cleanarchitecture.core.domain.</text>
<text text-anchor="middle" x="819" y="-103" font-family="Helvetica,sans-Serif" font-size="10.00">IGateway.create</text>
</a>
</g>
</g>
<!-- Node2&#45;&gt;Node3 -->
<g id="edge2" class="edge">
<title>Node2&#45;&gt;Node3</title>
<path fill="none" stroke="#63b8ff" d="M606.26,-78.06C639.72,-83.26 677.38,-89.12 711.56,-94.44"/>
<polygon fill="#63b8ff" stroke="#63b8ff" points="711.16,-97.92 721.58,-96 712.24,-91 711.16,-97.92"/>
</g>
<!-- Node4 -->
<g id="node4" class="node">
<title>Node4</title>
<g id="a_node4"><a xlink:href="interfacecom_1_1example_1_1cleanarchitecture_1_1usecase_1_1inventory_1_1dto_1_1IInventoryRegistrationData.html#a727aa50443e59292b199df4c34bd99ed" target="_top" xlink:title=" ">
<polygon fill="white" stroke="#666666" points="961,-78 677,-78 677,-48 961,-48 961,-78"/>
<text text-anchor="start" x="685" y="-66" font-family="Helvetica,sans-Serif" font-size="10.00">com.example.cleanarchitecture.usecase.inventory.dto.</text>
<text text-anchor="middle" x="819" y="-55" font-family="Helvetica,sans-Serif" font-size="10.00">IInventoryRegistrationData.name</text>
</a>
</g>
</g>
<!-- Node2&#45;&gt;Node4 -->
<g id="edge3" class="edge">
<title>Node2&#45;&gt;Node4</title>
<path fill="none" stroke="#63b8ff" d="M641.23,-63C649.7,-63 658.27,-63 666.82,-63"/>
<polygon fill="#63b8ff" stroke="#63b8ff" points="666.86,-66.5 676.86,-63 666.86,-59.5 666.86,-66.5"/>
</g>
<!-- Node5 -->
<g id="node5" class="node">
<title>Node5</title>
<g id="a_node5"><a xlink:href="interfacecom_1_1example_1_1cleanarchitecture_1_1usecase_1_1inventory_1_1dto_1_1IInventoryRegistrationData.html#a837d5aa5184c02a809350aa4db38d590" target="_top" xlink:title=" ">
<polygon fill="white" stroke="#666666" points="961,-30 677,-30 677,0 961,0 961,-30"/>
<text text-anchor="start" x="685" y="-18" font-family="Helvetica,sans-Serif" font-size="10.00">com.example.cleanarchitecture.usecase.inventory.dto.</text>
<text text-anchor="middle" x="819" y="-7" font-family="Helvetica,sans-Serif" font-size="10.00">IInventoryRegistrationData.quantity</text>
</a>
</g>
</g>
<!-- Node2&#45;&gt;Node5 -->
<g id="edge4" class="edge">
<title>Node2&#45;&gt;Node5</title>
<path fill="none" stroke="#63b8ff" d="M606.26,-47.94C639.72,-42.74 677.38,-36.88 711.56,-31.56"/>
<polygon fill="#63b8ff" stroke="#63b8ff" points="712.24,-35 721.58,-30 711.16,-28.08 712.24,-35"/>
</g>
</g>
</svg>
