<?xml version="1.0" encoding="UTF-8" standalone="no"?>
<!DOCTYPE svg PUBLIC "-//W3C//DTD SVG 1.1//EN"
 "http://www.w3.org/Graphics/SVG/1.1/DTD/svg11.dtd">
<!-- Generated by graphviz version 2.43.0 (0)
 -->
<!-- Title: com.example.cleanarchitecture.infrastructure.inventory.controller.SearchInventoryController.searchInventoryPublicData Pages: 1 -->
<svg width="990pt" height="134pt"
 viewBox="0.00 0.00 990.00 134.00" xmlns="http://www.w3.org/2000/svg" xmlns:xlink="http://www.w3.org/1999/xlink">
<g id="graph0" class="graph" transform="scale(1 1) rotate(0) translate(4 130)">
<title>com.example.cleanarchitecture.infrastructure.inventory.controller.SearchInventoryController.searchInventoryPublicData</title>
<!-- Node1 -->
<g id="node1" class="node">
<title>Node1</title>
<g id="a_node1"><a xlink:title=" ">
<polygon fill="#999999" stroke="#666666" points="340,-78 0,-78 0,-48 340,-48 340,-78"/>
<text text-anchor="start" x="8" y="-66" font-family="Helvetica,sans-Serif" font-size="10.00">com.example.cleanarchitecture.infrastructure.inventory.controller.</text>
<text text-anchor="middle" x="170" y="-55" font-family="Helvetica,sans-Serif" font-size="10.00">SearchInventoryController.searchInventoryPublicData</text>
</a>
</g>
</g>
<!-- Node2 -->
<g id="node2" class="node">
<title>Node2</title>
<g id="a_node2"><a xlink:href="classcom_1_1example_1_1cleanarchitecture_1_1usecase_1_1inventory_1_1SearchInventoryUseCase.html#afbb0cf228e7135d8b2432c4e5abcf82a" target="_top" xlink:title=" ">
<polygon fill="white" stroke="#666666" points="641,-78 376,-78 376,-48 641,-48 641,-78"/>
<text text-anchor="start" x="384" y="-66" font-family="Helvetica,sans-Serif" font-size="10.00">com.example.cleanarchitecture.usecase.inventory.</text>
<text text-anchor="middle" x="508.5" y="-55" font-family="Helvetica,sans-Serif" font-size="10.00">SearchInventoryUseCase.searchInventories</text>
</a>
</g>
</g>
<!-- Node1&#45;&gt;Node2 -->
<g id="edge1" class="edge">
<title>Node1&#45;&gt;Node2</title>
<path fill="none" stroke="#63b8ff" d="M340.24,-63C348.73,-63 357.22,-63 365.62,-63"/>
<polygon fill="#63b8ff" stroke="#63b8ff" points="365.82,-66.5 375.82,-63 365.82,-59.5 365.82,-66.5"/>
</g>
<!-- Node3 -->
<g id="node3" class="node">
<title>Node3</title>
<g id="a_node3"><a xlink:href="interfacecom_1_1example_1_1cleanarchitecture_1_1domain_1_1inventory_1_1gateway_1_1InventoryGateway.html#a3486ef0f0fd05fe205f0640a2fd9c510" target="_top" xlink:title=" ">
<polygon fill="white" stroke="#666666" points="982,-126 677,-126 677,-96 982,-96 982,-126"/>
<text text-anchor="start" x="685" y="-114" font-family="Helvetica,sans-Serif" font-size="10.00">com.example.cleanarchitecture.domain.inventory.gateway.</text>
<text text-anchor="middle" x="829.5" y="-103" font-family="Helvetica,sans-Serif" font-size="10.00">InventoryGateway.findAll</text>
</a>
</g>
</g>
<!-- Node2&#45;&gt;Node3 -->
<g id="edge2" class="edge">
<title>Node2&#45;&gt;Node3</title>
<path fill="none" stroke="#63b8ff" d="M609.56,-78.06C644.3,-83.28 683.43,-89.17 718.9,-94.51"/>
<polygon fill="#63b8ff" stroke="#63b8ff" points="718.39,-97.97 728.8,-96 719.43,-91.05 718.39,-97.97"/>
</g>
<!-- Node4 -->
<g id="node4" class="node">
<title>Node4</title>
<g id="a_node4"><a xlink:href="interfacecom_1_1example_1_1cleanarchitecture_1_1usecase_1_1inventory_1_1dto_1_1IInventorySearchData.html#adf8488874659b66a873d87b5e38610d9" target="_top" xlink:title=" ">
<polygon fill="white" stroke="#666666" points="971.5,-78 687.5,-78 687.5,-48 971.5,-48 971.5,-78"/>
<text text-anchor="start" x="695.5" y="-66" font-family="Helvetica,sans-Serif" font-size="10.00">com.example.cleanarchitecture.usecase.inventory.dto.</text>
<text text-anchor="middle" x="829.5" y="-55" font-family="Helvetica,sans-Serif" font-size="10.00">IInventorySearchData.page</text>
</a>
</g>
</g>
<!-- Node2&#45;&gt;Node4 -->
<g id="edge3" class="edge">
<title>Node2&#45;&gt;Node4</title>
<path fill="none" stroke="#63b8ff" d="M641.09,-63C653.02,-63 665.17,-63 677.26,-63"/>
<polygon fill="#63b8ff" stroke="#63b8ff" points="677.39,-66.5 687.39,-63 677.39,-59.5 677.39,-66.5"/>
</g>
<!-- Node5 -->
<g id="node5" class="node">
<title>Node5</title>
<g id="a_node5"><a xlink:href="interfacecom_1_1example_1_1cleanarchitecture_1_1usecase_1_1inventory_1_1dto_1_1IInventorySearchData.html#a38f419bd92800dab540d597d9941b626" target="_top" xlink:title=" ">
<polygon fill="white" stroke="#666666" points="971.5,-30 687.5,-30 687.5,0 971.5,0 971.5,-30"/>
<text text-anchor="start" x="695.5" y="-18" font-family="Helvetica,sans-Serif" font-size="10.00">com.example.cleanarchitecture.usecase.inventory.dto.</text>
<text text-anchor="middle" x="829.5" y="-7" font-family="Helvetica,sans-Serif" font-size="10.00">IInventorySearchData.size</text>
</a>
</g>
</g>
<!-- Node2&#45;&gt;Node5 -->
<g id="edge4" class="edge">
<title>Node2&#45;&gt;Node5</title>
<path fill="none" stroke="#63b8ff" d="M609.56,-47.94C644.3,-42.72 683.43,-36.83 718.9,-31.49"/>
<polygon fill="#63b8ff" stroke="#63b8ff" points="719.43,-34.95 728.8,-30 718.39,-28.03 719.43,-34.95"/>
</g>
</g>
</svg>
