<?xml version="1.0" encoding="UTF-8" standalone="no"?>
<!DOCTYPE svg PUBLIC "-//W3C//DTD SVG 1.1//EN"
 "http://www.w3.org/Graphics/SVG/1.1/DTD/svg11.dtd">
<!-- Generated by graphviz version 2.43.0 (0)
 -->
<!-- Title: com.example.cleanarchitecture.usecase.order.CreateOrderUseCase.createOrder Pages: 1 -->
<svg width="904pt" height="38pt"
 viewBox="0.00 0.00 904.00 38.00" xmlns="http://www.w3.org/2000/svg" xmlns:xlink="http://www.w3.org/1999/xlink">
<g id="graph0" class="graph" transform="scale(1 1) rotate(0) translate(4 34)">
<title>com.example.cleanarchitecture.usecase.order.CreateOrderUseCase.createOrder</title>
<!-- Node1 -->
<g id="node1" class="node">
<title>Node1</title>
<g id="a_node1"><a xlink:title=" ">
<polygon fill="#999999" stroke="#666666" points="896,-30 651,-30 651,0 896,0 896,-30"/>
<text text-anchor="start" x="659" y="-18" font-family="Helvetica,sans-Serif" font-size="10.00">com.example.cleanarchitecture.usecase.order.</text>
<text text-anchor="middle" x="773.5" y="-7" font-family="Helvetica,sans-Serif" font-size="10.00">CreateOrderUseCase.createOrder</text>
</a>
</g>
</g>
<!-- Node2 -->
<g id="node2" class="node">
<title>Node2</title>
<g id="a_node2"><a xlink:href="classcom_1_1example_1_1cleanarchitecture_1_1application_1_1order_1_1CreateOrderService.html#a998b802d10319faf8d431dad9ff5ca43" target="_top" xlink:title=" ">
<polygon fill="white" stroke="#666666" points="615,-30 356,-30 356,0 615,0 615,-30"/>
<text text-anchor="start" x="364" y="-18" font-family="Helvetica,sans-Serif" font-size="10.00">com.example.cleanarchitecture.application.order.</text>
<text text-anchor="middle" x="485.5" y="-7" font-family="Helvetica,sans-Serif" font-size="10.00">CreateOrderService.createOrder</text>
</a>
</g>
</g>
<!-- Node1&#45;&gt;Node2 -->
<g id="edge1" class="edge">
<title>Node1&#45;&gt;Node2</title>
<path fill="none" stroke="#63b8ff" d="M640.6,-15C632.22,-15 623.78,-15 615.41,-15"/>
<polygon fill="#63b8ff" stroke="#63b8ff" points="640.8,-18.5 650.8,-15 640.8,-11.5 640.8,-18.5"/>
</g>
<!-- Node3 -->
<g id="node3" class="node">
<title>Node3</title>
<g id="a_node3"><a xlink:href="classcom_1_1example_1_1cleanarchitecture_1_1infrastructure_1_1order_1_1controller_1_1CreateOrderController.html#a5b34eda634820f3bfd0512b80593a70c" target="_top" xlink:title=" ">
<polygon fill="white" stroke="#666666" points="320,-30 0,-30 0,0 320,0 320,-30"/>
<text text-anchor="start" x="8" y="-18" font-family="Helvetica,sans-Serif" font-size="10.00">com.example.cleanarchitecture.infrastructure.order.controller.</text>
<text text-anchor="middle" x="160" y="-7" font-family="Helvetica,sans-Serif" font-size="10.00">CreateOrderController.createOrder</text>
</a>
</g>
</g>
<!-- Node2&#45;&gt;Node3 -->
<g id="edge2" class="edge">
<title>Node2&#45;&gt;Node3</title>
<path fill="none" stroke="#63b8ff" d="M345.5,-15C337.09,-15 328.59,-15 320.1,-15"/>
<polygon fill="#63b8ff" stroke="#63b8ff" points="345.71,-18.5 355.71,-15 345.71,-11.5 345.71,-18.5"/>
</g>
</g>
</svg>
