<?xml version="1.0" encoding="UTF-8" standalone="no"?>
<!DOCTYPE svg PUBLIC "-//W3C//DTD SVG 1.1//EN"
 "http://www.w3.org/Graphics/SVG/1.1/DTD/svg11.dtd">
<!-- Generated by graphviz version 2.43.0 (0)
 -->
<!-- Title: com.example.cleanarchitecture.application.order.CreateOrderService Pages: 1 -->
<svg width="616pt" height="470pt"
 viewBox="0.00 0.00 616.00 470.00" xmlns="http://www.w3.org/2000/svg" xmlns:xlink="http://www.w3.org/1999/xlink">
<g id="graph0" class="graph" transform="scale(1 1) rotate(0) translate(4 466)">
<title>com.example.cleanarchitecture.application.order.CreateOrderService</title>
<!-- Node1 -->
<g id="node1" class="node">
<title>Node1</title>
<g id="a_node1"><a xlink:title=" ">
<polygon fill="#999999" stroke="#666666" points="169,-0.5 169,-68.5 428,-68.5 428,-0.5 169,-0.5"/>
<text text-anchor="start" x="177" y="-56.5" font-family="Helvetica,sans-Serif" font-size="10.00">com.example.cleanarchitecture.application.order.</text>
<text text-anchor="middle" x="298.5" y="-45.5" font-family="Helvetica,sans-Serif" font-size="10.00">CreateOrderService</text>
<polyline fill="none" stroke="#666666" points="169,-38.5 428,-38.5 "/>
<text text-anchor="middle" x="298.5" y="-26.5" font-family="Helvetica,sans-Serif" font-size="10.00"> </text>
<polyline fill="none" stroke="#666666" points="169,-19.5 428,-19.5 "/>
<text text-anchor="start" x="177" y="-7.5" font-family="Helvetica,sans-Serif" font-size="10.00">+ createOrder()</text>
</a>
</g>
</g>
<!-- Node2 -->
<g id="node2" class="node">
<title>Node2</title>
<g id="a_node2"><a xlink:href="classcom_1_1example_1_1cleanarchitecture_1_1usecase_1_1order_1_1CreateOrderUseCase.html" target="_top" xlink:title=" ">
<polygon fill="white" stroke="#666666" points="176,-116.5 176,-195.5 421,-195.5 421,-116.5 176,-116.5"/>
<text text-anchor="start" x="184" y="-183.5" font-family="Helvetica,sans-Serif" font-size="10.00">com.example.cleanarchitecture.usecase.order.</text>
<text text-anchor="middle" x="298.5" y="-172.5" font-family="Helvetica,sans-Serif" font-size="10.00">CreateOrderUseCase</text>
<polyline fill="none" stroke="#666666" points="176,-165.5 421,-165.5 "/>
<text text-anchor="middle" x="298.5" y="-153.5" font-family="Helvetica,sans-Serif" font-size="10.00"> </text>
<polyline fill="none" stroke="#666666" points="176,-146.5 421,-146.5 "/>
<text text-anchor="start" x="184" y="-134.5" font-family="Helvetica,sans-Serif" font-size="10.00">+ CreateOrderUseCase()</text>
<text text-anchor="start" x="184" y="-123.5" font-family="Helvetica,sans-Serif" font-size="10.00">+ createOrder()</text>
</a>
</g>
</g>
<!-- Node2&#45;&gt;Node1 -->
<g id="edge1" class="edge">
<title>Node2&#45;&gt;Node1</title>
<path fill="none" stroke="#404040" d="M298.5,-116.2C298.5,-104.99 298.5,-92.65 298.5,-81.07"/>
<polygon fill="none" stroke="#404040" points="298.5,-80.89 294.5,-74.89 298.5,-68.89 302.5,-74.89 298.5,-80.89"/>
<text text-anchor="middle" x="352.5" y="-90" font-family="Helvetica,sans-Serif" font-size="10.00"> &#45;createOrderUseCase</text>
</g>
<!-- Node3 -->
<g id="node3" class="node">
<title>Node3</title>
<g id="a_node3"><a xlink:href="interfacecom_1_1example_1_1cleanarchitecture_1_1domain_1_1order_1_1gateway_1_1OrderGateway.html" target="_top" xlink:title=" ">
<polygon fill="white" stroke="#666666" points="0,-243.5 0,-311.5 285,-311.5 285,-243.5 0,-243.5"/>
<text text-anchor="start" x="8" y="-299.5" font-family="Helvetica,sans-Serif" font-size="10.00">com.example.cleanarchitecture.domain.order.gateway.</text>
<text text-anchor="middle" x="142.5" y="-288.5" font-family="Helvetica,sans-Serif" font-size="10.00">OrderGateway</text>
<polyline fill="none" stroke="#666666" points="0,-281.5 285,-281.5 "/>
<text text-anchor="middle" x="142.5" y="-269.5" font-family="Helvetica,sans-Serif" font-size="10.00"> </text>
<polyline fill="none" stroke="#666666" points="0,-262.5 285,-262.5 "/>
<text text-anchor="middle" x="142.5" y="-250.5" font-family="Helvetica,sans-Serif" font-size="10.00"> </text>
</a>
</g>
</g>
<!-- Node3&#45;&gt;Node2 -->
<g id="edge2" class="edge">
<title>Node3&#45;&gt;Node2</title>
<path fill="none" stroke="#404040" d="M185.95,-243.21C202.23,-230.74 221.03,-216.35 238.54,-202.93"/>
<polygon fill="none" stroke="#404040" points="238.58,-202.9 240.91,-196.07 248.11,-195.6 245.78,-202.42 238.58,-202.9"/>
<text text-anchor="middle" x="258.5" y="-217" font-family="Helvetica,sans-Serif" font-size="10.00"> &#45;orderGateway</text>
</g>
<!-- Node4 -->
<g id="node4" class="node">
<title>Node4</title>
<g id="a_node4"><a xlink:href="interfacecom_1_1example_1_1cleanarchitecture_1_1core_1_1domain_1_1IGateway.html" target="_top" xlink:title=" ">
<polygon fill="white" stroke="#666666" points="23.5,-349.5 23.5,-461.5 261.5,-461.5 261.5,-349.5 23.5,-349.5"/>
<text text-anchor="start" x="31.5" y="-449.5" font-family="Helvetica,sans-Serif" font-size="10.00">com.example.cleanarchitecture.core.domain.</text>
<text text-anchor="middle" x="142.5" y="-438.5" font-family="Helvetica,sans-Serif" font-size="10.00">IGateway&lt; S, ID &gt;</text>
<polyline fill="none" stroke="#666666" points="23.5,-431.5 261.5,-431.5 "/>
<text text-anchor="middle" x="142.5" y="-419.5" font-family="Helvetica,sans-Serif" font-size="10.00"> </text>
<polyline fill="none" stroke="#666666" points="23.5,-412.5 261.5,-412.5 "/>
<text text-anchor="start" x="31.5" y="-400.5" font-family="Helvetica,sans-Serif" font-size="10.00">+ create()</text>
<text text-anchor="start" x="31.5" y="-389.5" font-family="Helvetica,sans-Serif" font-size="10.00">+ update()</text>
<text text-anchor="start" x="31.5" y="-378.5" font-family="Helvetica,sans-Serif" font-size="10.00">+ delete()</text>
<text text-anchor="start" x="31.5" y="-367.5" font-family="Helvetica,sans-Serif" font-size="10.00">+ findById()</text>
<text text-anchor="start" x="31.5" y="-356.5" font-family="Helvetica,sans-Serif" font-size="10.00">+ findAll()</text>
</a>
</g>
</g>
<!-- Node4&#45;&gt;Node3 -->
<g id="edge3" class="edge">
<title>Node4&#45;&gt;Node3</title>
<path fill="none" stroke="#63b8ff" d="M142.5,-338.96C142.5,-329.48 142.5,-320.08 142.5,-311.62"/>
<polygon fill="none" stroke="#63b8ff" points="139,-339.23 142.5,-349.23 146,-339.23 139,-339.23"/>
</g>
<!-- Node5 -->
<g id="node5" class="node">
<title>Node5</title>
<g id="a_node5"><a xlink:href="interfacecom_1_1example_1_1cleanarchitecture_1_1domain_1_1inventory_1_1gateway_1_1InventoryGateway.html" target="_top" xlink:title=" ">
<polygon fill="white" stroke="#666666" points="303,-243.5 303,-311.5 608,-311.5 608,-243.5 303,-243.5"/>
<text text-anchor="start" x="311" y="-299.5" font-family="Helvetica,sans-Serif" font-size="10.00">com.example.cleanarchitecture.domain.inventory.gateway.</text>
<text text-anchor="middle" x="455.5" y="-288.5" font-family="Helvetica,sans-Serif" font-size="10.00">InventoryGateway</text>
<polyline fill="none" stroke="#666666" points="303,-281.5 608,-281.5 "/>
<text text-anchor="middle" x="455.5" y="-269.5" font-family="Helvetica,sans-Serif" font-size="10.00"> </text>
<polyline fill="none" stroke="#666666" points="303,-262.5 608,-262.5 "/>
<text text-anchor="start" x="311" y="-250.5" font-family="Helvetica,sans-Serif" font-size="10.00">+ findAll()</text>
</a>
</g>
</g>
<!-- Node5&#45;&gt;Node2 -->
<g id="edge4" class="edge">
<title>Node5&#45;&gt;Node2</title>
<path fill="none" stroke="#404040" d="M411.77,-243.21C395.38,-230.74 376.47,-216.35 358.85,-202.93"/>
<polygon fill="none" stroke="#404040" points="358.76,-202.87 351.56,-202.42 349.21,-195.6 356.41,-196.05 358.76,-202.87"/>
<text text-anchor="middle" x="435" y="-217" font-family="Helvetica,sans-Serif" font-size="10.00"> &#45;inventoryGateway</text>
</g>
<!-- Node6 -->
<g id="node6" class="node">
<title>Node6</title>
<g id="a_node6"><a xlink:href="interfacecom_1_1example_1_1cleanarchitecture_1_1core_1_1domain_1_1IGateway.html" target="_top" xlink:title=" ">
<polygon fill="white" stroke="#666666" points="336.5,-349.5 336.5,-461.5 574.5,-461.5 574.5,-349.5 336.5,-349.5"/>
<text text-anchor="start" x="344.5" y="-449.5" font-family="Helvetica,sans-Serif" font-size="10.00">com.example.cleanarchitecture.core.domain.</text>
<text text-anchor="middle" x="455.5" y="-438.5" font-family="Helvetica,sans-Serif" font-size="10.00">IGateway&lt; S, ID &gt;</text>
<polyline fill="none" stroke="#666666" points="336.5,-431.5 574.5,-431.5 "/>
<text text-anchor="middle" x="455.5" y="-419.5" font-family="Helvetica,sans-Serif" font-size="10.00"> </text>
<polyline fill="none" stroke="#666666" points="336.5,-412.5 574.5,-412.5 "/>
<text text-anchor="start" x="344.5" y="-400.5" font-family="Helvetica,sans-Serif" font-size="10.00">+ create()</text>
<text text-anchor="start" x="344.5" y="-389.5" font-family="Helvetica,sans-Serif" font-size="10.00">+ update()</text>
<text text-anchor="start" x="344.5" y="-378.5" font-family="Helvetica,sans-Serif" font-size="10.00">+ delete()</text>
<text text-anchor="start" x="344.5" y="-367.5" font-family="Helvetica,sans-Serif" font-size="10.00">+ findById()</text>
<text text-anchor="start" x="344.5" y="-356.5" font-family="Helvetica,sans-Serif" font-size="10.00">+ findAll()</text>
</a>
</g>
</g>
<!-- Node6&#45;&gt;Node5 -->
<g id="edge5" class="edge">
<title>Node6&#45;&gt;Node5</title>
<path fill="none" stroke="#63b8ff" d="M455.5,-338.96C455.5,-329.48 455.5,-320.08 455.5,-311.62"/>
<polygon fill="none" stroke="#63b8ff" points="452,-339.23 455.5,-349.23 459,-339.23 452,-339.23"/>
</g>
</g>
</svg>
