<?xml version="1.0" encoding="UTF-8" standalone="no"?>
<!DOCTYPE svg PUBLIC "-//W3C//DTD SVG 1.1//EN"
 "http://www.w3.org/Graphics/SVG/1.1/DTD/svg11.dtd">
<!-- Generated by graphviz version 2.43.0 (0)
 -->
<!-- Title: com.example.cleanarchitecture.usecase.order.CreateOrderUseCase.createOrder Pages: 1 -->
<svg width="585pt" height="230pt"
 viewBox="0.00 0.00 585.00 230.00" xmlns="http://www.w3.org/2000/svg" xmlns:xlink="http://www.w3.org/1999/xlink">
<g id="graph0" class="graph" transform="scale(1 1) rotate(0) translate(4 226)">
<title>com.example.cleanarchitecture.usecase.order.CreateOrderUseCase.createOrder</title>
<!-- Node1 -->
<g id="node1" class="node">
<title>Node1</title>
<g id="a_node1"><a xlink:title=" ">
<polygon fill="#999999" stroke="#666666" points="245,-126 0,-126 0,-96 245,-96 245,-126"/>
<text text-anchor="start" x="8" y="-114" font-family="Helvetica,sans-Serif" font-size="10.00">com.example.cleanarchitecture.usecase.order.</text>
<text text-anchor="middle" x="122.5" y="-103" font-family="Helvetica,sans-Serif" font-size="10.00">CreateOrderUseCase.createOrder</text>
</a>
</g>
</g>
<!-- Node2 -->
<g id="node2" class="node">
<title>Node2</title>
<g id="a_node2"><a xlink:href="interfacecom_1_1example_1_1cleanarchitecture_1_1core_1_1domain_1_1IGateway.html#acd8f34d5bc57a8336c406b12b9f0aa61" target="_top" xlink:title=" ">
<polygon fill="white" stroke="#666666" points="548,-222 310,-222 310,-192 548,-192 548,-222"/>
<text text-anchor="start" x="318" y="-210" font-family="Helvetica,sans-Serif" font-size="10.00">com.example.cleanarchitecture.core.domain.</text>
<text text-anchor="middle" x="429" y="-199" font-family="Helvetica,sans-Serif" font-size="10.00">IGateway.create</text>
</a>
</g>
</g>
<!-- Node1&#45;&gt;Node2 -->
<g id="edge1" class="edge">
<title>Node1&#45;&gt;Node2</title>
<path fill="none" stroke="#63b8ff" d="M150.51,-126.05C181.2,-142.51 233.25,-168.47 281,-183 289.18,-185.49 297.7,-187.73 306.33,-189.76"/>
<polygon fill="#63b8ff" stroke="#63b8ff" points="305.59,-193.18 316.11,-191.95 307.12,-186.35 305.59,-193.18"/>
</g>
<!-- Node3 -->
<g id="node3" class="node">
<title>Node3</title>
<g id="a_node3"><a xlink:href="interfacecom_1_1example_1_1cleanarchitecture_1_1core_1_1domain_1_1IGateway.html#a244c5e7e569a1cd9ccafbaaba8ecb6ba" target="_top" xlink:title=" ">
<polygon fill="white" stroke="#666666" points="548,-174 310,-174 310,-144 548,-144 548,-174"/>
<text text-anchor="start" x="318" y="-162" font-family="Helvetica,sans-Serif" font-size="10.00">com.example.cleanarchitecture.core.domain.</text>
<text text-anchor="middle" x="429" y="-151" font-family="Helvetica,sans-Serif" font-size="10.00">IGateway.findById</text>
</a>
</g>
</g>
<!-- Node1&#45;&gt;Node3 -->
<g id="edge2" class="edge">
<title>Node1&#45;&gt;Node3</title>
<path fill="none" stroke="#63b8ff" d="M219.01,-126.06C252.03,-131.26 289.2,-137.12 322.94,-142.44"/>
<polygon fill="#63b8ff" stroke="#63b8ff" points="322.41,-145.9 332.83,-144 323.5,-138.98 322.41,-145.9"/>
</g>
<!-- Node4 -->
<g id="node4" class="node">
<title>Node4</title>
<g id="a_node4"><a xlink:href="classcom_1_1example_1_1cleanarchitecture_1_1domain_1_1inventory_1_1model_1_1Inventory.html#a83c0f5831bfded2b37bd47f4782655f8" target="_top" xlink:title=" ">
<polygon fill="white" stroke="#666666" points="577,-126 281,-126 281,-96 577,-96 577,-126"/>
<text text-anchor="start" x="289" y="-114" font-family="Helvetica,sans-Serif" font-size="10.00">com.example.cleanarchitecture.domain.inventory.model.</text>
<text text-anchor="middle" x="429" y="-103" font-family="Helvetica,sans-Serif" font-size="10.00">Inventory.reduce</text>
</a>
</g>
</g>
<!-- Node1&#45;&gt;Node4 -->
<g id="edge3" class="edge">
<title>Node1&#45;&gt;Node4</title>
<path fill="none" stroke="#63b8ff" d="M245.16,-111C253.61,-111 262.2,-111 270.8,-111"/>
<polygon fill="#63b8ff" stroke="#63b8ff" points="270.91,-114.5 280.91,-111 270.91,-107.5 270.91,-114.5"/>
</g>
<!-- Node5 -->
<g id="node5" class="node">
<title>Node5</title>
<g id="a_node5"><a xlink:href="classcom_1_1example_1_1cleanarchitecture_1_1domain_1_1inventory_1_1model_1_1Inventory.html#ac1af76eb458bfcb87f8bf737a6d0f56e" target="_top" xlink:title=" ">
<polygon fill="white" stroke="#666666" points="577,-78 281,-78 281,-48 577,-48 577,-78"/>
<text text-anchor="start" x="289" y="-66" font-family="Helvetica,sans-Serif" font-size="10.00">com.example.cleanarchitecture.domain.inventory.model.</text>
<text text-anchor="middle" x="429" y="-55" font-family="Helvetica,sans-Serif" font-size="10.00">Inventory.reducible</text>
</a>
</g>
</g>
<!-- Node1&#45;&gt;Node5 -->
<g id="edge4" class="edge">
<title>Node1&#45;&gt;Node5</title>
<path fill="none" stroke="#63b8ff" d="M219.01,-95.94C252.03,-90.74 289.2,-84.88 322.94,-79.56"/>
<polygon fill="#63b8ff" stroke="#63b8ff" points="323.5,-83.02 332.83,-78 322.41,-76.1 323.5,-83.02"/>
</g>
<!-- Node6 -->
<g id="node6" class="node">
<title>Node6</title>
<g id="a_node6"><a xlink:href="interfacecom_1_1example_1_1cleanarchitecture_1_1core_1_1domain_1_1IGateway.html#a5583f82a13f8ec30c91771e791286be9" target="_top" xlink:title=" ">
<polygon fill="white" stroke="#666666" points="548,-30 310,-30 310,0 548,0 548,-30"/>
<text text-anchor="start" x="318" y="-18" font-family="Helvetica,sans-Serif" font-size="10.00">com.example.cleanarchitecture.core.domain.</text>
<text text-anchor="middle" x="429" y="-7" font-family="Helvetica,sans-Serif" font-size="10.00">IGateway.update</text>
</a>
</g>
</g>
<!-- Node1&#45;&gt;Node6 -->
<g id="edge5" class="edge">
<title>Node1&#45;&gt;Node6</title>
<path fill="none" stroke="#63b8ff" d="M150.51,-95.95C181.2,-79.49 233.25,-53.53 281,-39 289.18,-36.51 297.7,-34.27 306.33,-32.24"/>
<polygon fill="#63b8ff" stroke="#63b8ff" points="307.12,-35.65 316.11,-30.05 305.59,-28.82 307.12,-35.65"/>
</g>
</g>
</svg>
