<?xml version="1.0" encoding="UTF-8" standalone="no"?>
<!DOCTYPE svg PUBLIC "-//W3C//DTD SVG 1.1//EN"
 "http://www.w3.org/Graphics/SVG/1.1/DTD/svg11.dtd">
<!-- Generated by graphviz version 2.43.0 (0)
 -->
<!-- Title: com.example.cleanarchitecture.usecase.inventory.CreateInventoryUseCase.createInventory Pages: 1 -->
<svg width="593pt" height="134pt"
 viewBox="0.00 0.00 593.00 134.00" xmlns="http://www.w3.org/2000/svg" xmlns:xlink="http://www.w3.org/1999/xlink">
<g id="graph0" class="graph" transform="scale(1 1) rotate(0) translate(4 130)">
<title>com.example.cleanarchitecture.usecase.inventory.CreateInventoryUseCase.createInventory</title>
<!-- Node1 -->
<g id="node1" class="node">
<title>Node1</title>
<g id="a_node1"><a xlink:title=" ">
<polygon fill="#999999" stroke="#666666" points="265,-78 0,-78 0,-48 265,-48 265,-78"/>
<text text-anchor="start" x="8" y="-66" font-family="Helvetica,sans-Serif" font-size="10.00">com.example.cleanarchitecture.usecase.inventory.</text>
<text text-anchor="middle" x="132.5" y="-55" font-family="Helvetica,sans-Serif" font-size="10.00">CreateInventoryUseCase.createInventory</text>
</a>
</g>
</g>
<!-- Node2 -->
<g id="node2" class="node">
<title>Node2</title>
<g id="a_node2"><a xlink:href="interfacecom_1_1example_1_1cleanarchitecture_1_1core_1_1domain_1_1IGateway.html#acd8f34d5bc57a8336c406b12b9f0aa61" target="_top" xlink:title=" ">
<polygon fill="white" stroke="#666666" points="562,-126 324,-126 324,-96 562,-96 562,-126"/>
<text text-anchor="start" x="332" y="-114" font-family="Helvetica,sans-Serif" font-size="10.00">com.example.cleanarchitecture.core.domain.</text>
<text text-anchor="middle" x="443" y="-103" font-family="Helvetica,sans-Serif" font-size="10.00">IGateway.create</text>
</a>
</g>
</g>
<!-- Node1&#45;&gt;Node2 -->
<g id="edge1" class="edge">
<title>Node1&#45;&gt;Node2</title>
<path fill="none" stroke="#63b8ff" d="M230.26,-78.06C263.72,-83.26 301.38,-89.12 335.56,-94.44"/>
<polygon fill="#63b8ff" stroke="#63b8ff" points="335.16,-97.92 345.58,-96 336.24,-91 335.16,-97.92"/>
</g>
<!-- Node3 -->
<g id="node3" class="node">
<title>Node3</title>
<g id="a_node3"><a xlink:href="interfacecom_1_1example_1_1cleanarchitecture_1_1usecase_1_1inventory_1_1dto_1_1IInventoryRegistrationData.html#a727aa50443e59292b199df4c34bd99ed" target="_top" xlink:title=" ">
<polygon fill="white" stroke="#666666" points="585,-78 301,-78 301,-48 585,-48 585,-78"/>
<text text-anchor="start" x="309" y="-66" font-family="Helvetica,sans-Serif" font-size="10.00">com.example.cleanarchitecture.usecase.inventory.dto.</text>
<text text-anchor="middle" x="443" y="-55" font-family="Helvetica,sans-Serif" font-size="10.00">IInventoryRegistrationData.name</text>
</a>
</g>
</g>
<!-- Node1&#45;&gt;Node3 -->
<g id="edge2" class="edge">
<title>Node1&#45;&gt;Node3</title>
<path fill="none" stroke="#63b8ff" d="M265.23,-63C273.7,-63 282.27,-63 290.82,-63"/>
<polygon fill="#63b8ff" stroke="#63b8ff" points="290.86,-66.5 300.86,-63 290.86,-59.5 290.86,-66.5"/>
</g>
<!-- Node4 -->
<g id="node4" class="node">
<title>Node4</title>
<g id="a_node4"><a xlink:href="interfacecom_1_1example_1_1cleanarchitecture_1_1usecase_1_1inventory_1_1dto_1_1IInventoryRegistrationData.html#a837d5aa5184c02a809350aa4db38d590" target="_top" xlink:title=" ">
<polygon fill="white" stroke="#666666" points="585,-30 301,-30 301,0 585,0 585,-30"/>
<text text-anchor="start" x="309" y="-18" font-family="Helvetica,sans-Serif" font-size="10.00">com.example.cleanarchitecture.usecase.inventory.dto.</text>
<text text-anchor="middle" x="443" y="-7" font-family="Helvetica,sans-Serif" font-size="10.00">IInventoryRegistrationData.quantity</text>
</a>
</g>
</g>
<!-- Node1&#45;&gt;Node4 -->
<g id="edge3" class="edge">
<title>Node1&#45;&gt;Node4</title>
<path fill="none" stroke="#63b8ff" d="M230.26,-47.94C263.72,-42.74 301.38,-36.88 335.56,-31.56"/>
<polygon fill="#63b8ff" stroke="#63b8ff" points="336.24,-35 345.58,-30 335.16,-28.08 336.24,-35"/>
</g>
</g>
</svg>
