<?xml version="1.0" encoding="UTF-8" standalone="no"?>
<!DOCTYPE svg PUBLIC "-//W3C//DTD SVG 1.1//EN"
 "http://www.w3.org/Graphics/SVG/1.1/DTD/svg11.dtd">
<!-- Generated by graphviz version 2.43.0 (0)
 -->
<!-- Title: com.example.cleanarchitecture.domain.inventory.exception.InventoryNotFoundException Pages: 1 -->
<svg width="321pt" height="276pt"
 viewBox="0.00 0.00 321.00 276.00" xmlns="http://www.w3.org/2000/svg" xmlns:xlink="http://www.w3.org/1999/xlink">
<g id="graph0" class="graph" transform="scale(1 1) rotate(0) translate(4 272)">
<title>com.example.cleanarchitecture.domain.inventory.exception.InventoryNotFoundException</title>
<!-- Node1 -->
<g id="node1" class="node">
<title>Node1</title>
<g id="a_node1"><a xlink:title=" ">
<polygon fill="#999999" stroke="#666666" points="0,-0.5 0,-68.5 313,-68.5 313,-0.5 0,-0.5"/>
<text text-anchor="start" x="8" y="-56.5" font-family="Helvetica,sans-Serif" font-size="10.00">com.example.cleanarchitecture.domain.inventory.exception.</text>
<text text-anchor="middle" x="156.5" y="-45.5" font-family="Helvetica,sans-Serif" font-size="10.00">InventoryNotFoundException</text>
<polyline fill="none" stroke="#666666" points="0,-38.5 313,-38.5 "/>
<text text-anchor="middle" x="156.5" y="-26.5" font-family="Helvetica,sans-Serif" font-size="10.00"> </text>
<polyline fill="none" stroke="#666666" points="0,-19.5 313,-19.5 "/>
<text text-anchor="start" x="8" y="-7.5" font-family="Helvetica,sans-Serif" font-size="10.00">+ InventoryNotFoundException()</text>
</a>
</g>
</g>
<!-- Node2 -->
<g id="node2" class="node">
<title>Node2</title>
<g id="a_node2"><a xlink:href="classcom_1_1example_1_1cleanarchitecture_1_1core_1_1exception_1_1NotFoundException.html" target="_top" xlink:title=" ">
<polygon fill="white" stroke="#666666" points="32,-105.5 32,-173.5 281,-173.5 281,-105.5 32,-105.5"/>
<text text-anchor="start" x="40" y="-161.5" font-family="Helvetica,sans-Serif" font-size="10.00">com.example.cleanarchitecture.core.exception.</text>
<text text-anchor="middle" x="156.5" y="-150.5" font-family="Helvetica,sans-Serif" font-size="10.00">NotFoundException</text>
<polyline fill="none" stroke="#666666" points="32,-143.5 281,-143.5 "/>
<text text-anchor="middle" x="156.5" y="-131.5" font-family="Helvetica,sans-Serif" font-size="10.00"> </text>
<polyline fill="none" stroke="#666666" points="32,-124.5 281,-124.5 "/>
<text text-anchor="start" x="40" y="-112.5" font-family="Helvetica,sans-Serif" font-size="10.00">+ NotFoundException()</text>
</a>
</g>
</g>
<!-- Node2&#45;&gt;Node1 -->
<g id="edge1" class="edge">
<title>Node2&#45;&gt;Node1</title>
<path fill="none" stroke="#63b8ff" d="M156.5,-95.14C156.5,-86.26 156.5,-77.04 156.5,-68.59"/>
<polygon fill="none" stroke="#63b8ff" points="153,-95.34 156.5,-105.34 160,-95.34 153,-95.34"/>
</g>
<!-- Node3 -->
<g id="node3" class="node">
<title>Node3</title>
<g id="a_node3"><a xlink:title=" ">
<polygon fill="white" stroke="#666666" points="124,-210.5 124,-267.5 189,-267.5 189,-210.5 124,-210.5"/>
<text text-anchor="middle" x="156.5" y="-255.5" font-family="Helvetica,sans-Serif" font-size="10.00">Exception</text>
<polyline fill="none" stroke="#666666" points="124,-248.5 189,-248.5 "/>
<text text-anchor="middle" x="156.5" y="-236.5" font-family="Helvetica,sans-Serif" font-size="10.00"> </text>
<polyline fill="none" stroke="#666666" points="124,-229.5 189,-229.5 "/>
<text text-anchor="middle" x="156.5" y="-217.5" font-family="Helvetica,sans-Serif" font-size="10.00"> </text>
</a>
</g>
</g>
<!-- Node3&#45;&gt;Node2 -->
<g id="edge2" class="edge">
<title>Node3&#45;&gt;Node2</title>
<path fill="none" stroke="#63b8ff" d="M156.5,-200.06C156.5,-191.39 156.5,-182.24 156.5,-173.79"/>
<polygon fill="none" stroke="#63b8ff" points="153,-200.32 156.5,-210.32 160,-200.32 153,-200.32"/>
</g>
</g>
</svg>
