<?xml version="1.0" encoding="UTF-8" standalone="no"?>
<!DOCTYPE svg PUBLIC "-//W3C//DTD SVG 1.1//EN"
 "http://www.w3.org/Graphics/SVG/1.1/DTD/svg11.dtd">
<!-- Generated by graphviz version 2.43.0 (0)
 -->
<!-- Title: com.example.cleanarchitecture.usecase.inventory.SearchInventoryUseCase.searchInventories Pages: 1 -->
<svg width="614pt" height="134pt"
 viewBox="0.00 0.00 614.00 134.00" xmlns="http://www.w3.org/2000/svg" xmlns:xlink="http://www.w3.org/1999/xlink">
<g id="graph0" class="graph" transform="scale(1 1) rotate(0) translate(4 130)">
<title>com.example.cleanarchitecture.usecase.inventory.SearchInventoryUseCase.searchInventories</title>
<!-- Node1 -->
<g id="node1" class="node">
<title>Node1</title>
<g id="a_node1"><a xlink:title=" ">
<polygon fill="#999999" stroke="#666666" points="265,-78 0,-78 0,-48 265,-48 265,-78"/>
<text text-anchor="start" x="8" y="-66" font-family="Helvetica,sans-Serif" font-size="10.00">com.example.cleanarchitecture.usecase.inventory.</text>
<text text-anchor="middle" x="132.5" y="-55" font-family="Helvetica,sans-Serif" font-size="10.00">SearchInventoryUseCase.searchInventories</text>
</a>
</g>
</g>
<!-- Node2 -->
<g id="node2" class="node">
<title>Node2</title>
<g id="a_node2"><a xlink:href="interfacecom_1_1example_1_1cleanarchitecture_1_1domain_1_1inventory_1_1gateway_1_1InventoryGateway.html#a3486ef0f0fd05fe205f0640a2fd9c510" target="_top" xlink:title=" ">
<polygon fill="white" stroke="#666666" points="606,-126 301,-126 301,-96 606,-96 606,-126"/>
<text text-anchor="start" x="309" y="-114" font-family="Helvetica,sans-Serif" font-size="10.00">com.example.cleanarchitecture.domain.inventory.gateway.</text>
<text text-anchor="middle" x="453.5" y="-103" font-family="Helvetica,sans-Serif" font-size="10.00">InventoryGateway.findAll</text>
</a>
</g>
</g>
<!-- Node1&#45;&gt;Node2 -->
<g id="edge1" class="edge">
<title>Node1&#45;&gt;Node2</title>
<path fill="none" stroke="#63b8ff" d="M233.56,-78.06C268.3,-83.28 307.43,-89.17 342.9,-94.51"/>
<polygon fill="#63b8ff" stroke="#63b8ff" points="342.39,-97.97 352.8,-96 343.43,-91.05 342.39,-97.97"/>
</g>
<!-- Node3 -->
<g id="node3" class="node">
<title>Node3</title>
<g id="a_node3"><a xlink:href="interfacecom_1_1example_1_1cleanarchitecture_1_1usecase_1_1inventory_1_1dto_1_1IInventorySearchData.html#adf8488874659b66a873d87b5e38610d9" target="_top" xlink:title=" ">
<polygon fill="white" stroke="#666666" points="595.5,-78 311.5,-78 311.5,-48 595.5,-48 595.5,-78"/>
<text text-anchor="start" x="319.5" y="-66" font-family="Helvetica,sans-Serif" font-size="10.00">com.example.cleanarchitecture.usecase.inventory.dto.</text>
<text text-anchor="middle" x="453.5" y="-55" font-family="Helvetica,sans-Serif" font-size="10.00">IInventorySearchData.page</text>
</a>
</g>
</g>
<!-- Node1&#45;&gt;Node3 -->
<g id="edge2" class="edge">
<title>Node1&#45;&gt;Node3</title>
<path fill="none" stroke="#63b8ff" d="M265.09,-63C277.02,-63 289.17,-63 301.26,-63"/>
<polygon fill="#63b8ff" stroke="#63b8ff" points="301.39,-66.5 311.39,-63 301.39,-59.5 301.39,-66.5"/>
</g>
<!-- Node4 -->
<g id="node4" class="node">
<title>Node4</title>
<g id="a_node4"><a xlink:href="interfacecom_1_1example_1_1cleanarchitecture_1_1usecase_1_1inventory_1_1dto_1_1IInventorySearchData.html#a38f419bd92800dab540d597d9941b626" target="_top" xlink:title=" ">
<polygon fill="white" stroke="#666666" points="595.5,-30 311.5,-30 311.5,0 595.5,0 595.5,-30"/>
<text text-anchor="start" x="319.5" y="-18" font-family="Helvetica,sans-Serif" font-size="10.00">com.example.cleanarchitecture.usecase.inventory.dto.</text>
<text text-anchor="middle" x="453.5" y="-7" font-family="Helvetica,sans-Serif" font-size="10.00">IInventorySearchData.size</text>
</a>
</g>
</g>
<!-- Node1&#45;&gt;Node4 -->
<g id="edge3" class="edge">
<title>Node1&#45;&gt;Node4</title>
<path fill="none" stroke="#63b8ff" d="M233.56,-47.94C268.3,-42.72 307.43,-36.83 342.9,-31.49"/>
<polygon fill="#63b8ff" stroke="#63b8ff" points="343.43,-34.95 352.8,-30 342.39,-28.03 343.43,-34.95"/>
</g>
</g>
</svg>
