<?xml version="1.0" encoding="UTF-8" standalone="no"?>
<!DOCTYPE svg PUBLIC "-//W3C//DTD SVG 1.1//EN"
 "http://www.w3.org/Graphics/SVG/1.1/DTD/svg11.dtd">
<!-- Generated by graphviz version 2.43.0 (0)
 -->
<!-- Title: com.example.cleanarchitecture.infrastructure.order.controller.CreateOrderController.createOrder Pages: 1 -->
<svg width="1236pt" height="230pt"
 viewBox="0.00 0.00 1236.00 230.00" xmlns="http://www.w3.org/2000/svg" xmlns:xlink="http://www.w3.org/1999/xlink">
<g id="graph0" class="graph" transform="scale(1 1) rotate(0) translate(4 226)">
<title>com.example.cleanarchitecture.infrastructure.order.controller.CreateOrderController.createOrder</title>
<!-- Node1 -->
<g id="node1" class="node">
<title>Node1</title>
<g id="a_node1"><a xlink:title=" ">
<polygon fill="#999999" stroke="#666666" points="320,-126 0,-126 0,-96 320,-96 320,-126"/>
<text text-anchor="start" x="8" y="-114" font-family="Helvetica,sans-Serif" font-size="10.00">com.example.cleanarchitecture.infrastructure.order.controller.</text>
<text text-anchor="middle" x="160" y="-103" font-family="Helvetica,sans-Serif" font-size="10.00">CreateOrderController.createOrder</text>
</a>
</g>
</g>
<!-- Node2 -->
<g id="node2" class="node">
<title>Node2</title>
<g id="a_node2"><a xlink:href="classcom_1_1example_1_1cleanarchitecture_1_1application_1_1order_1_1CreateOrderService.html#a998b802d10319faf8d431dad9ff5ca43" target="_top" xlink:title=" ">
<polygon fill="white" stroke="#666666" points="615,-126 356,-126 356,-96 615,-96 615,-126"/>
<text text-anchor="start" x="364" y="-114" font-family="Helvetica,sans-Serif" font-size="10.00">com.example.cleanarchitecture.application.order.</text>
<text text-anchor="middle" x="485.5" y="-103" font-family="Helvetica,sans-Serif" font-size="10.00">CreateOrderService.createOrder</text>
</a>
</g>
</g>
<!-- Node1&#45;&gt;Node2 -->
<g id="edge1" class="edge">
<title>Node1&#45;&gt;Node2</title>
<path fill="none" stroke="#63b8ff" d="M320.38,-111C328.77,-111 337.17,-111 345.49,-111"/>
<polygon fill="#63b8ff" stroke="#63b8ff" points="345.59,-114.5 355.59,-111 345.59,-107.5 345.59,-114.5"/>
</g>
<!-- Node3 -->
<g id="node3" class="node">
<title>Node3</title>
<g id="a_node3"><a xlink:href="classcom_1_1example_1_1cleanarchitecture_1_1usecase_1_1order_1_1CreateOrderUseCase.html#a0359d71b84f30fcd46bcfb295d8e67e9" target="_top" xlink:title=" ">
<polygon fill="white" stroke="#666666" points="896,-126 651,-126 651,-96 896,-96 896,-126"/>
<text text-anchor="start" x="659" y="-114" font-family="Helvetica,sans-Serif" font-size="10.00">com.example.cleanarchitecture.usecase.order.</text>
<text text-anchor="middle" x="773.5" y="-103" font-family="Helvetica,sans-Serif" font-size="10.00">CreateOrderUseCase.createOrder</text>
</a>
</g>
</g>
<!-- Node2&#45;&gt;Node3 -->
<g id="edge2" class="edge">
<title>Node2&#45;&gt;Node3</title>
<path fill="none" stroke="#63b8ff" d="M615.28,-111C623.71,-111 632.21,-111 640.66,-111"/>
<polygon fill="#63b8ff" stroke="#63b8ff" points="640.93,-114.5 650.93,-111 640.93,-107.5 640.93,-114.5"/>
</g>
<!-- Node4 -->
<g id="node4" class="node">
<title>Node4</title>
<g id="a_node4"><a xlink:href="interfacecom_1_1example_1_1cleanarchitecture_1_1core_1_1domain_1_1IGateway.html#acd8f34d5bc57a8336c406b12b9f0aa61" target="_top" xlink:title=" ">
<polygon fill="white" stroke="#666666" points="1199,-222 961,-222 961,-192 1199,-192 1199,-222"/>
<text text-anchor="start" x="969" y="-210" font-family="Helvetica,sans-Serif" font-size="10.00">com.example.cleanarchitecture.core.domain.</text>
<text text-anchor="middle" x="1080" y="-199" font-family="Helvetica,sans-Serif" font-size="10.00">IGateway.create</text>
</a>
</g>
</g>
<!-- Node3&#45;&gt;Node4 -->
<g id="edge3" class="edge">
<title>Node3&#45;&gt;Node4</title>
<path fill="none" stroke="#63b8ff" d="M801.51,-126.05C832.2,-142.51 884.25,-168.47 932,-183 940.18,-185.49 948.7,-187.73 957.33,-189.76"/>
<polygon fill="#63b8ff" stroke="#63b8ff" points="956.59,-193.18 967.11,-191.95 958.12,-186.35 956.59,-193.18"/>
</g>
<!-- Node5 -->
<g id="node5" class="node">
<title>Node5</title>
<g id="a_node5"><a xlink:href="interfacecom_1_1example_1_1cleanarchitecture_1_1core_1_1domain_1_1IGateway.html#a244c5e7e569a1cd9ccafbaaba8ecb6ba" target="_top" xlink:title=" ">
<polygon fill="white" stroke="#666666" points="1199,-174 961,-174 961,-144 1199,-144 1199,-174"/>
<text text-anchor="start" x="969" y="-162" font-family="Helvetica,sans-Serif" font-size="10.00">com.example.cleanarchitecture.core.domain.</text>
<text text-anchor="middle" x="1080" y="-151" font-family="Helvetica,sans-Serif" font-size="10.00">IGateway.findById</text>
</a>
</g>
</g>
<!-- Node3&#45;&gt;Node5 -->
<g id="edge4" class="edge">
<title>Node3&#45;&gt;Node5</title>
<path fill="none" stroke="#63b8ff" d="M870.01,-126.06C903.03,-131.26 940.2,-137.12 973.94,-142.44"/>
<polygon fill="#63b8ff" stroke="#63b8ff" points="973.41,-145.9 983.83,-144 974.5,-138.98 973.41,-145.9"/>
</g>
<!-- Node6 -->
<g id="node6" class="node">
<title>Node6</title>
<g id="a_node6"><a xlink:href="classcom_1_1example_1_1cleanarchitecture_1_1domain_1_1inventory_1_1model_1_1Inventory.html#a83c0f5831bfded2b37bd47f4782655f8" target="_top" xlink:title=" ">
<polygon fill="white" stroke="#666666" points="1228,-126 932,-126 932,-96 1228,-96 1228,-126"/>
<text text-anchor="start" x="940" y="-114" font-family="Helvetica,sans-Serif" font-size="10.00">com.example.cleanarchitecture.domain.inventory.model.</text>
<text text-anchor="middle" x="1080" y="-103" font-family="Helvetica,sans-Serif" font-size="10.00">Inventory.reduce</text>
</a>
</g>
</g>
<!-- Node3&#45;&gt;Node6 -->
<g id="edge5" class="edge">
<title>Node3&#45;&gt;Node6</title>
<path fill="none" stroke="#63b8ff" d="M896.16,-111C904.61,-111 913.2,-111 921.8,-111"/>
<polygon fill="#63b8ff" stroke="#63b8ff" points="921.91,-114.5 931.91,-111 921.91,-107.5 921.91,-114.5"/>
</g>
<!-- Node7 -->
<g id="node7" class="node">
<title>Node7</title>
<g id="a_node7"><a xlink:href="classcom_1_1example_1_1cleanarchitecture_1_1domain_1_1inventory_1_1model_1_1Inventory.html#ac1af76eb458bfcb87f8bf737a6d0f56e" target="_top" xlink:title=" ">
<polygon fill="white" stroke="#666666" points="1228,-78 932,-78 932,-48 1228,-48 1228,-78"/>
<text text-anchor="start" x="940" y="-66" font-family="Helvetica,sans-Serif" font-size="10.00">com.example.cleanarchitecture.domain.inventory.model.</text>
<text text-anchor="middle" x="1080" y="-55" font-family="Helvetica,sans-Serif" font-size="10.00">Inventory.reducible</text>
</a>
</g>
</g>
<!-- Node3&#45;&gt;Node7 -->
<g id="edge6" class="edge">
<title>Node3&#45;&gt;Node7</title>
<path fill="none" stroke="#63b8ff" d="M870.01,-95.94C903.03,-90.74 940.2,-84.88 973.94,-79.56"/>
<polygon fill="#63b8ff" stroke="#63b8ff" points="974.5,-83.02 983.83,-78 973.41,-76.1 974.5,-83.02"/>
</g>
<!-- Node8 -->
<g id="node8" class="node">
<title>Node8</title>
<g id="a_node8"><a xlink:href="interfacecom_1_1example_1_1cleanarchitecture_1_1core_1_1domain_1_1IGateway.html#a5583f82a13f8ec30c91771e791286be9" target="_top" xlink:title=" ">
<polygon fill="white" stroke="#666666" points="1199,-30 961,-30 961,0 1199,0 1199,-30"/>
<text text-anchor="start" x="969" y="-18" font-family="Helvetica,sans-Serif" font-size="10.00">com.example.cleanarchitecture.core.domain.</text>
<text text-anchor="middle" x="1080" y="-7" font-family="Helvetica,sans-Serif" font-size="10.00">IGateway.update</text>
</a>
</g>
</g>
<!-- Node3&#45;&gt;Node8 -->
<g id="edge7" class="edge">
<title>Node3&#45;&gt;Node8</title>
<path fill="none" stroke="#63b8ff" d="M801.51,-95.95C832.2,-79.49 884.25,-53.53 932,-39 940.18,-36.51 948.7,-34.27 957.33,-32.24"/>
<polygon fill="#63b8ff" stroke="#63b8ff" points="958.12,-35.65 967.11,-30.05 956.59,-28.82 958.12,-35.65"/>
</g>
</g>
</svg>
