<?xml version="1.0" encoding="UTF-8" standalone="no"?>
<!DOCTYPE svg PUBLIC "-//W3C//DTD SVG 1.1//EN"
 "http://www.w3.org/Graphics/SVG/1.1/DTD/svg11.dtd">
<!-- Generated by graphviz version 2.43.0 (0)
 -->
<!-- Title: com.example.cleanarchitecture.infrastructure.config.db.schema.InventorySchema Pages: 1 -->
<svg width="340pt" height="427pt"
 viewBox="0.00 0.00 340.00 427.00" xmlns="http://www.w3.org/2000/svg" xmlns:xlink="http://www.w3.org/1999/xlink">
<g id="graph0" class="graph" transform="scale(1 1) rotate(0) translate(4 423)">
<title>com.example.cleanarchitecture.infrastructure.config.db.schema.InventorySchema</title>
<!-- Node1 -->
<g id="node1" class="node">
<title>Node1</title>
<g id="a_node1"><a xlink:title=" ">
<polygon fill="#999999" stroke="#666666" points="0,-0.5 0,-101.5 332,-101.5 332,-0.5 0,-0.5"/>
<text text-anchor="start" x="8" y="-89.5" font-family="Helvetica,sans-Serif" font-size="10.00">com.example.cleanarchitecture.infrastructure.config.db.schema.</text>
<text text-anchor="middle" x="166" y="-78.5" font-family="Helvetica,sans-Serif" font-size="10.00">InventorySchema</text>
<polyline fill="none" stroke="#666666" points="0,-71.5 332,-71.5 "/>
<text text-anchor="start" x="8" y="-59.5" font-family="Helvetica,sans-Serif" font-size="10.00">&#45; name</text>
<text text-anchor="start" x="8" y="-48.5" font-family="Helvetica,sans-Serif" font-size="10.00">&#45; quantity</text>
<text text-anchor="start" x="8" y="-37.5" font-family="Helvetica,sans-Serif" font-size="10.00">&#45; createdAt</text>
<text text-anchor="start" x="8" y="-26.5" font-family="Helvetica,sans-Serif" font-size="10.00">&#45; updatedAt</text>
<polyline fill="none" stroke="#666666" points="0,-19.5 332,-19.5 "/>
<text text-anchor="start" x="8" y="-7.5" font-family="Helvetica,sans-Serif" font-size="10.00">+ InventorySchema()</text>
</a>
</g>
</g>
<!-- Node2 -->
<g id="node2" class="node">
<title>Node2</title>
<g id="a_node2"><a xlink:href="classcom_1_1example_1_1cleanarchitecture_1_1infrastructure_1_1config_1_1db_1_1schema_1_1AbstractEntitySchema.html" target="_top" xlink:title=" ">
<polygon fill="white" stroke="#666666" points="0,-139.5 0,-207.5 332,-207.5 332,-139.5 0,-139.5"/>
<text text-anchor="start" x="8" y="-195.5" font-family="Helvetica,sans-Serif" font-size="10.00">com.example.cleanarchitecture.infrastructure.config.db.schema.</text>
<text text-anchor="middle" x="166" y="-184.5" font-family="Helvetica,sans-Serif" font-size="10.00">AbstractEntitySchema&lt; Long &gt;</text>
<polyline fill="none" stroke="#666666" points="0,-177.5 332,-177.5 "/>
<text text-anchor="start" x="8" y="-165.5" font-family="Helvetica,sans-Serif" font-size="10.00">&#45; id</text>
<polyline fill="none" stroke="#666666" points="0,-158.5 332,-158.5 "/>
<text text-anchor="middle" x="166" y="-146.5" font-family="Helvetica,sans-Serif" font-size="10.00"> </text>
</a>
</g>
</g>
<!-- Node2&#45;&gt;Node1 -->
<g id="edge1" class="edge">
<title>Node2&#45;&gt;Node1</title>
<path fill="none" stroke="#63b8ff" d="M166,-129.15C166,-120.29 166,-110.91 166,-101.84"/>
<polygon fill="none" stroke="#63b8ff" points="162.5,-129.25 166,-139.25 169.5,-129.25 162.5,-129.25"/>
</g>
<!-- Node3 -->
<g id="node3" class="node">
<title>Node3</title>
<g id="a_node3"><a xlink:href="classcom_1_1example_1_1cleanarchitecture_1_1infrastructure_1_1config_1_1db_1_1schema_1_1AbstractEntitySchema.html" target="_top" xlink:title=" ">
<polygon fill="white" stroke="#666666" points="0,-255.5 0,-323.5 332,-323.5 332,-255.5 0,-255.5"/>
<text text-anchor="start" x="8" y="-311.5" font-family="Helvetica,sans-Serif" font-size="10.00">com.example.cleanarchitecture.infrastructure.config.db.schema.</text>
<text text-anchor="middle" x="166" y="-300.5" font-family="Helvetica,sans-Serif" font-size="10.00">AbstractEntitySchema&lt; ID extends Serializable &gt;</text>
<polyline fill="none" stroke="#666666" points="0,-293.5 332,-293.5 "/>
<text text-anchor="start" x="8" y="-281.5" font-family="Helvetica,sans-Serif" font-size="10.00">&#45; id</text>
<polyline fill="none" stroke="#666666" points="0,-274.5 332,-274.5 "/>
<text text-anchor="middle" x="166" y="-262.5" font-family="Helvetica,sans-Serif" font-size="10.00"> </text>
</a>
</g>
</g>
<!-- Node3&#45;&gt;Node2 -->
<g id="edge2" class="edge">
<title>Node3&#45;&gt;Node2</title>
<path fill="none" stroke="orange" d="M166,-245.06C166,-232.64 166,-219.32 166,-207.62"/>
<polygon fill="orange" stroke="orange" points="162.5,-245.22 166,-255.22 169.5,-245.22 162.5,-245.22"/>
<text text-anchor="middle" x="190.5" y="-229" font-family="Helvetica,sans-Serif" font-size="10.00"> &lt; Long &gt;</text>
</g>
<!-- Node4 -->
<g id="node4" class="node">
<title>Node4</title>
<g id="a_node4"><a xlink:title=" ">
<polygon fill="white" stroke="#666666" points="129,-361.5 129,-418.5 203,-418.5 203,-361.5 129,-361.5"/>
<text text-anchor="middle" x="166" y="-406.5" font-family="Helvetica,sans-Serif" font-size="10.00">Serializable</text>
<polyline fill="none" stroke="#666666" points="129,-399.5 203,-399.5 "/>
<text text-anchor="middle" x="166" y="-387.5" font-family="Helvetica,sans-Serif" font-size="10.00"> </text>
<polyline fill="none" stroke="#666666" points="129,-380.5 203,-380.5 "/>
<text text-anchor="middle" x="166" y="-368.5" font-family="Helvetica,sans-Serif" font-size="10.00"> </text>
</a>
</g>
</g>
<!-- Node4&#45;&gt;Node3 -->
<g id="edge3" class="edge">
<title>Node4&#45;&gt;Node3</title>
<path fill="none" stroke="#63b8ff" d="M166,-351.01C166,-341.96 166,-332.38 166,-323.58"/>
<polygon fill="none" stroke="#63b8ff" points="162.5,-351.3 166,-361.3 169.5,-351.3 162.5,-351.3"/>
</g>
</g>
</svg>
