<?xml version="1.0" encoding="UTF-8" standalone="no"?>
<!DOCTYPE svg PUBLIC "-//W3C//DTD SVG 1.1//EN"
 "http://www.w3.org/Graphics/SVG/1.1/DTD/svg11.dtd">
<!-- Generated by graphviz version 2.43.0 (0)
 -->
<!-- Title: com.example.cleanarchitecture.infrastructure.config.db.schema.InventorySchema Pages: 1 -->
<svg width="511pt" height="426pt"
 viewBox="0.00 0.00 511.00 426.00" xmlns="http://www.w3.org/2000/svg" xmlns:xlink="http://www.w3.org/1999/xlink">
<g id="graph0" class="graph" transform="scale(1 1) rotate(0) translate(4 422)">
<title>com.example.cleanarchitecture.infrastructure.config.db.schema.InventorySchema</title>
<!-- Node1 -->
<g id="node1" class="node">
<title>Node1</title>
<g id="a_node1"><a xlink:title=" ">
<polygon fill="#999999" stroke="#666666" points="171,-0.5 171,-79.5 503,-79.5 503,-0.5 171,-0.5"/>
<text text-anchor="start" x="179" y="-67.5" font-family="Helvetica,sans-Serif" font-size="10.00">com.example.cleanarchitecture.infrastructure.config.db.schema.</text>
<text text-anchor="middle" x="337" y="-56.5" font-family="Helvetica,sans-Serif" font-size="10.00">InventorySchema</text>
<polyline fill="none" stroke="#666666" points="171,-49.5 503,-49.5 "/>
<text text-anchor="start" x="179" y="-37.5" font-family="Helvetica,sans-Serif" font-size="10.00">&#45; name</text>
<text text-anchor="start" x="179" y="-26.5" font-family="Helvetica,sans-Serif" font-size="10.00">&#45; quantity</text>
<polyline fill="none" stroke="#666666" points="171,-19.5 503,-19.5 "/>
<text text-anchor="start" x="179" y="-7.5" font-family="Helvetica,sans-Serif" font-size="10.00">+ InventorySchema()</text>
</a>
</g>
</g>
<!-- Node2 -->
<g id="node2" class="node">
<title>Node2</title>
<g id="a_node2"><a xlink:href="classcom_1_1example_1_1cleanarchitecture_1_1infrastructure_1_1config_1_1db_1_1schema_1_1AbstractEntitySchema.html" target="_top" xlink:title=" ">
<polygon fill="white" stroke="#666666" points="0,-138.5 0,-206.5 332,-206.5 332,-138.5 0,-138.5"/>
<text text-anchor="start" x="8" y="-194.5" font-family="Helvetica,sans-Serif" font-size="10.00">com.example.cleanarchitecture.infrastructure.config.db.schema.</text>
<text text-anchor="middle" x="166" y="-183.5" font-family="Helvetica,sans-Serif" font-size="10.00">AbstractEntitySchema&lt; Long &gt;</text>
<polyline fill="none" stroke="#666666" points="0,-176.5 332,-176.5 "/>
<text text-anchor="start" x="8" y="-164.5" font-family="Helvetica,sans-Serif" font-size="10.00">&#45; id</text>
<polyline fill="none" stroke="#666666" points="0,-157.5 332,-157.5 "/>
<text text-anchor="middle" x="166" y="-145.5" font-family="Helvetica,sans-Serif" font-size="10.00"> </text>
</a>
</g>
</g>
<!-- Node2&#45;&gt;Node1 -->
<g id="edge1" class="edge">
<title>Node2&#45;&gt;Node1</title>
<path fill="none" stroke="#63b8ff" d="M217.76,-132C239.56,-115.36 264.85,-96.06 286.51,-79.53"/>
<polygon fill="none" stroke="#63b8ff" points="215.42,-129.38 209.59,-138.23 219.67,-134.95 215.42,-129.38"/>
</g>
<!-- Node3 -->
<g id="node3" class="node">
<title>Node3</title>
<g id="a_node3"><a xlink:href="classcom_1_1example_1_1cleanarchitecture_1_1infrastructure_1_1config_1_1db_1_1schema_1_1AbstractEntitySchema.html" target="_top" xlink:title=" ">
<polygon fill="white" stroke="#666666" points="0,-254.5 0,-322.5 332,-322.5 332,-254.5 0,-254.5"/>
<text text-anchor="start" x="8" y="-310.5" font-family="Helvetica,sans-Serif" font-size="10.00">com.example.cleanarchitecture.infrastructure.config.db.schema.</text>
<text text-anchor="middle" x="166" y="-299.5" font-family="Helvetica,sans-Serif" font-size="10.00">AbstractEntitySchema&lt; ID extends Serializable &gt;</text>
<polyline fill="none" stroke="#666666" points="0,-292.5 332,-292.5 "/>
<text text-anchor="start" x="8" y="-280.5" font-family="Helvetica,sans-Serif" font-size="10.00">&#45; id</text>
<polyline fill="none" stroke="#666666" points="0,-273.5 332,-273.5 "/>
<text text-anchor="middle" x="166" y="-261.5" font-family="Helvetica,sans-Serif" font-size="10.00"> </text>
</a>
</g>
</g>
<!-- Node3&#45;&gt;Node2 -->
<g id="edge2" class="edge">
<title>Node3&#45;&gt;Node2</title>
<path fill="none" stroke="orange" d="M166,-244.06C166,-231.64 166,-218.32 166,-206.62"/>
<polygon fill="orange" stroke="orange" points="162.5,-244.22 166,-254.22 169.5,-244.22 162.5,-244.22"/>
<text text-anchor="middle" x="190.5" y="-228" font-family="Helvetica,sans-Serif" font-size="10.00"> &lt; Long &gt;</text>
</g>
<!-- Node4 -->
<g id="node4" class="node">
<title>Node4</title>
<g id="a_node4"><a xlink:title=" ">
<polygon fill="white" stroke="#666666" points="129,-360.5 129,-417.5 203,-417.5 203,-360.5 129,-360.5"/>
<text text-anchor="middle" x="166" y="-405.5" font-family="Helvetica,sans-Serif" font-size="10.00">Serializable</text>
<polyline fill="none" stroke="#666666" points="129,-398.5 203,-398.5 "/>
<text text-anchor="middle" x="166" y="-386.5" font-family="Helvetica,sans-Serif" font-size="10.00"> </text>
<polyline fill="none" stroke="#666666" points="129,-379.5 203,-379.5 "/>
<text text-anchor="middle" x="166" y="-367.5" font-family="Helvetica,sans-Serif" font-size="10.00"> </text>
</a>
</g>
</g>
<!-- Node4&#45;&gt;Node3 -->
<g id="edge3" class="edge">
<title>Node4&#45;&gt;Node3</title>
<path fill="none" stroke="#63b8ff" d="M166,-350.01C166,-340.96 166,-331.38 166,-322.58"/>
<polygon fill="none" stroke="#63b8ff" points="162.5,-350.3 166,-360.3 169.5,-350.3 162.5,-350.3"/>
</g>
<!-- Node5 -->
<g id="node5" class="node">
<title>Node5</title>
<g id="a_node5"><a xlink:title=" ">
<polygon fill="white" stroke="#666666" points="350,-144 350,-201 440,-201 440,-144 350,-144"/>
<text text-anchor="middle" x="395" y="-189" font-family="Helvetica,sans-Serif" font-size="10.00">LocalDateTime</text>
<polyline fill="none" stroke="#666666" points="350,-182 440,-182 "/>
<text text-anchor="middle" x="395" y="-170" font-family="Helvetica,sans-Serif" font-size="10.00"> </text>
<polyline fill="none" stroke="#666666" points="350,-163 440,-163 "/>
<text text-anchor="middle" x="395" y="-151" font-family="Helvetica,sans-Serif" font-size="10.00"> </text>
</a>
</g>
</g>
<!-- Node5&#45;&gt;Node1 -->
<g id="edge4" class="edge">
<title>Node5&#45;&gt;Node1</title>
<path fill="none" stroke="#404040" d="M382.7,-143.82C375.82,-128.33 367.03,-108.56 359,-90.5"/>
<polygon fill="none" stroke="#404040" points="359,-90.49 352.9,-86.63 354.12,-79.53 360.21,-83.38 359,-90.49"/>
<text text-anchor="middle" x="398.5" y="-112" font-family="Helvetica,sans-Serif" font-size="10.00"> &#45;createdAt</text>
<text text-anchor="middle" x="398.5" y="-101" font-family="Helvetica,sans-Serif" font-size="10.00">&#45;updatedAt</text>
</g>
</g>
</svg>
