<?xml version="1.0" encoding="UTF-8" standalone="no"?>
<!DOCTYPE svg PUBLIC "-//W3C//DTD SVG 1.1//EN"
 "http://www.w3.org/Graphics/SVG/1.1/DTD/svg11.dtd">
<!-- Generated by graphviz version 2.43.0 (0)
 -->
<!-- Title: com.example.cleanarchitecture.infrastructure.config.db.mapper.InventoryMapper.fromInventory Pages: 1 -->
<svg width="709pt" height="86pt"
 viewBox="0.00 0.00 709.00 86.00" xmlns="http://www.w3.org/2000/svg" xmlns:xlink="http://www.w3.org/1999/xlink">
<g id="graph0" class="graph" transform="scale(1 1) rotate(0) translate(4 82)">
<title>com.example.cleanarchitecture.infrastructure.config.db.mapper.InventoryMapper.fromInventory</title>
<!-- Node1 -->
<g id="node1" class="node">
<title>Node1</title>
<g id="a_node1"><a xlink:title=" ">
<polygon fill="#999999" stroke="#666666" points="701,-54 371,-54 371,-24 701,-24 701,-54"/>
<text text-anchor="start" x="379" y="-42" font-family="Helvetica,sans-Serif" font-size="10.00">com.example.cleanarchitecture.infrastructure.config.db.mapper.</text>
<text text-anchor="middle" x="536" y="-31" font-family="Helvetica,sans-Serif" font-size="10.00">InventoryMapper.fromInventory</text>
</a>
</g>
</g>
<!-- Node2 -->
<g id="node2" class="node">
<title>Node2</title>
<g id="a_node2"><a xlink:href="classcom_1_1example_1_1cleanarchitecture_1_1infrastructure_1_1inventory_1_1gateway_1_1InventoryDatabaseGateway.html#a1718d0b5e087083c702e04e49e58d349" target="_top" xlink:title=" ">
<polygon fill="white" stroke="#666666" points="335,-78 0,-78 0,-48 335,-48 335,-78"/>
<text text-anchor="start" x="8" y="-66" font-family="Helvetica,sans-Serif" font-size="10.00">com.example.cleanarchitecture.infrastructure.inventory.gateway.</text>
<text text-anchor="middle" x="167.5" y="-55" font-family="Helvetica,sans-Serif" font-size="10.00">InventoryDatabaseGateway.create</text>
</a>
</g>
</g>
<!-- Node1&#45;&gt;Node2 -->
<g id="edge1" class="edge">
<title>Node1&#45;&gt;Node2</title>
<path fill="none" stroke="#63b8ff" d="M360.79,-50.41C352.28,-50.97 343.73,-51.53 335.24,-52.08"/>
<polygon fill="#63b8ff" stroke="#63b8ff" points="361.03,-53.9 370.78,-49.75 360.57,-46.91 361.03,-53.9"/>
</g>
<!-- Node3 -->
<g id="node3" class="node">
<title>Node3</title>
<g id="a_node3"><a xlink:href="classcom_1_1example_1_1cleanarchitecture_1_1infrastructure_1_1inventory_1_1gateway_1_1InventoryDatabaseGateway.html#aa688884a5cabbfd271726cf08275cbeb" target="_top" xlink:title=" ">
<polygon fill="white" stroke="#666666" points="335,-30 0,-30 0,0 335,0 335,-30"/>
<text text-anchor="start" x="8" y="-18" font-family="Helvetica,sans-Serif" font-size="10.00">com.example.cleanarchitecture.infrastructure.inventory.gateway.</text>
<text text-anchor="middle" x="167.5" y="-7" font-family="Helvetica,sans-Serif" font-size="10.00">InventoryDatabaseGateway.update</text>
</a>
</g>
</g>
<!-- Node1&#45;&gt;Node3 -->
<g id="edge2" class="edge">
<title>Node1&#45;&gt;Node3</title>
<path fill="none" stroke="#63b8ff" d="M360.79,-27.59C352.28,-27.03 343.73,-26.47 335.24,-25.92"/>
<polygon fill="#63b8ff" stroke="#63b8ff" points="360.57,-31.09 370.78,-28.25 361.03,-24.1 360.57,-31.09"/>
</g>
</g>
</svg>
