<?xml version="1.0" encoding="UTF-8" standalone="no"?>
<!DOCTYPE svg PUBLIC "-//W3C//DTD SVG 1.1//EN"
 "http://www.w3.org/Graphics/SVG/1.1/DTD/svg11.dtd">
<!-- Generated by graphviz version 2.43.0 (0)
 -->
<!-- Title: com.example.cleanarchitecture.domain.order.model.Order Pages: 1 -->
<svg width="283pt" height="342pt"
 viewBox="0.00 0.00 283.00 342.00" xmlns="http://www.w3.org/2000/svg" xmlns:xlink="http://www.w3.org/1999/xlink">
<g id="graph0" class="graph" transform="scale(1 1) rotate(0) translate(4 338)">
<title>com.example.cleanarchitecture.domain.order.model.Order</title>
<!-- Node1 -->
<g id="node1" class="node">
<title>Node1</title>
<g id="a_node1"><a xlink:title=" ">
<polygon fill="#999999" stroke="#666666" points="0,-0.5 0,-134.5 275,-134.5 275,-0.5 0,-0.5"/>
<text text-anchor="start" x="8" y="-122.5" font-family="Helvetica,sans-Serif" font-size="10.00">com.example.cleanarchitecture.domain.order.model.</text>
<text text-anchor="middle" x="137.5" y="-111.5" font-family="Helvetica,sans-Serif" font-size="10.00">Order</text>
<polyline fill="none" stroke="#666666" points="0,-104.5 275,-104.5 "/>
<text text-anchor="start" x="8" y="-92.5" font-family="Helvetica,sans-Serif" font-size="10.00">&#45; quantity</text>
<text text-anchor="start" x="8" y="-81.5" font-family="Helvetica,sans-Serif" font-size="10.00">&#45; customerInfo</text>
<text text-anchor="start" x="8" y="-70.5" font-family="Helvetica,sans-Serif" font-size="10.00">&#45; inventoryId</text>
<text text-anchor="start" x="8" y="-59.5" font-family="Helvetica,sans-Serif" font-size="10.00">&#45; inventoryName</text>
<polyline fill="none" stroke="#666666" points="0,-52.5 275,-52.5 "/>
<text text-anchor="start" x="8" y="-40.5" font-family="Helvetica,sans-Serif" font-size="10.00">+ Order()</text>
<text text-anchor="start" x="8" y="-29.5" font-family="Helvetica,sans-Serif" font-size="10.00">+ Order()</text>
<text text-anchor="start" x="8" y="-18.5" font-family="Helvetica,sans-Serif" font-size="10.00">&#45; validateCustomerInfo()</text>
<text text-anchor="start" x="8" y="-7.5" font-family="Helvetica,sans-Serif" font-size="10.00">&#45; validateQuantity()</text>
</a>
</g>
</g>
<!-- Node2 -->
<g id="node2" class="node">
<title>Node2</title>
<g id="a_node2"><a xlink:href="classcom_1_1example_1_1cleanarchitecture_1_1core_1_1domain_1_1AbstractEntity.html" target="_top" xlink:title=" ">
<polygon fill="white" stroke="#666666" points="18.5,-171.5 18.5,-239.5 256.5,-239.5 256.5,-171.5 18.5,-171.5"/>
<text text-anchor="start" x="26.5" y="-227.5" font-family="Helvetica,sans-Serif" font-size="10.00">com.example.cleanarchitecture.core.domain.</text>
<text text-anchor="middle" x="137.5" y="-216.5" font-family="Helvetica,sans-Serif" font-size="10.00">AbstractEntity&lt; ID extends Serializable &gt;</text>
<polyline fill="none" stroke="#666666" points="18.5,-209.5 256.5,-209.5 "/>
<text text-anchor="start" x="26.5" y="-197.5" font-family="Helvetica,sans-Serif" font-size="10.00">&#45; id</text>
<polyline fill="none" stroke="#666666" points="18.5,-190.5 256.5,-190.5 "/>
<text text-anchor="middle" x="137.5" y="-178.5" font-family="Helvetica,sans-Serif" font-size="10.00"> </text>
</a>
</g>
</g>
<!-- Node2&#45;&gt;Node1 -->
<g id="edge1" class="edge">
<title>Node2&#45;&gt;Node1</title>
<path fill="none" stroke="#63b8ff" d="M137.5,-160.96C137.5,-152.57 137.5,-143.6 137.5,-134.68"/>
<polygon fill="none" stroke="#63b8ff" points="134,-161.23 137.5,-171.23 141,-161.23 134,-161.23"/>
</g>
<!-- Node3 -->
<g id="node3" class="node">
<title>Node3</title>
<g id="a_node3"><a xlink:title=" ">
<polygon fill="white" stroke="#666666" points="100.5,-276.5 100.5,-333.5 174.5,-333.5 174.5,-276.5 100.5,-276.5"/>
<text text-anchor="middle" x="137.5" y="-321.5" font-family="Helvetica,sans-Serif" font-size="10.00">Serializable</text>
<polyline fill="none" stroke="#666666" points="100.5,-314.5 174.5,-314.5 "/>
<text text-anchor="middle" x="137.5" y="-302.5" font-family="Helvetica,sans-Serif" font-size="10.00"> </text>
<polyline fill="none" stroke="#666666" points="100.5,-295.5 174.5,-295.5 "/>
<text text-anchor="middle" x="137.5" y="-283.5" font-family="Helvetica,sans-Serif" font-size="10.00"> </text>
</a>
</g>
</g>
<!-- Node3&#45;&gt;Node2 -->
<g id="edge2" class="edge">
<title>Node3&#45;&gt;Node2</title>
<path fill="none" stroke="#63b8ff" d="M137.5,-266.06C137.5,-257.39 137.5,-248.24 137.5,-239.79"/>
<polygon fill="none" stroke="#63b8ff" points="134,-266.32 137.5,-276.32 141,-266.32 134,-266.32"/>
</g>
</g>
</svg>
