<?xml version="1.0" encoding="UTF-8" standalone="no"?>
<!DOCTYPE svg PUBLIC "-//W3C//DTD SVG 1.1//EN"
 "http://www.w3.org/Graphics/SVG/1.1/DTD/svg11.dtd">
<!-- Generated by graphviz version 2.43.0 (0)
 -->
<!-- Title: com.example.cleanarchitecture.infrastructure.inventory.controller.CreateInventoryController Pages: 1 -->
<svg width="348pt" height="470pt"
 viewBox="0.00 0.00 348.00 470.00" xmlns="http://www.w3.org/2000/svg" xmlns:xlink="http://www.w3.org/1999/xlink">
<g id="graph0" class="graph" transform="scale(1 1) rotate(0) translate(4 466)">
<title>com.example.cleanarchitecture.infrastructure.inventory.controller.CreateInventoryController</title>
<!-- Node1 -->
<g id="node1" class="node">
<title>Node1</title>
<g id="a_node1"><a xlink:title=" ">
<polygon fill="#999999" stroke="#666666" points="0,-0.5 0,-68.5 340,-68.5 340,-0.5 0,-0.5"/>
<text text-anchor="start" x="8" y="-56.5" font-family="Helvetica,sans-Serif" font-size="10.00">com.example.cleanarchitecture.infrastructure.inventory.controller.</text>
<text text-anchor="middle" x="170" y="-45.5" font-family="Helvetica,sans-Serif" font-size="10.00">CreateInventoryController</text>
<polyline fill="none" stroke="#666666" points="0,-38.5 340,-38.5 "/>
<text text-anchor="middle" x="170" y="-26.5" font-family="Helvetica,sans-Serif" font-size="10.00"> </text>
<polyline fill="none" stroke="#666666" points="0,-19.5 340,-19.5 "/>
<text text-anchor="start" x="8" y="-7.5" font-family="Helvetica,sans-Serif" font-size="10.00">+ createInventory()</text>
</a>
</g>
</g>
<!-- Node2 -->
<g id="node2" class="node">
<title>Node2</title>
<g id="a_node2"><a xlink:href="classcom_1_1example_1_1cleanarchitecture_1_1usecase_1_1inventory_1_1CreateInventoryUseCase.html" target="_top" xlink:title=" ">
<polygon fill="white" stroke="#666666" points="37.5,-116.5 37.5,-195.5 302.5,-195.5 302.5,-116.5 37.5,-116.5"/>
<text text-anchor="start" x="45.5" y="-183.5" font-family="Helvetica,sans-Serif" font-size="10.00">com.example.cleanarchitecture.usecase.inventory.</text>
<text text-anchor="middle" x="170" y="-172.5" font-family="Helvetica,sans-Serif" font-size="10.00">CreateInventoryUseCase</text>
<polyline fill="none" stroke="#666666" points="37.5,-165.5 302.5,-165.5 "/>
<text text-anchor="middle" x="170" y="-153.5" font-family="Helvetica,sans-Serif" font-size="10.00"> </text>
<polyline fill="none" stroke="#666666" points="37.5,-146.5 302.5,-146.5 "/>
<text text-anchor="start" x="45.5" y="-134.5" font-family="Helvetica,sans-Serif" font-size="10.00">+ CreateInventoryUseCase()</text>
<text text-anchor="start" x="45.5" y="-123.5" font-family="Helvetica,sans-Serif" font-size="10.00">+ createInventory()</text>
</a>
</g>
</g>
<!-- Node2&#45;&gt;Node1 -->
<g id="edge1" class="edge">
<title>Node2&#45;&gt;Node1</title>
<path fill="none" stroke="#404040" d="M170,-116.2C170,-104.99 170,-92.65 170,-81.07"/>
<polygon fill="none" stroke="#404040" points="170,-80.89 166,-74.89 170,-68.89 174,-74.89 170,-80.89"/>
<text text-anchor="middle" x="233.5" y="-90" font-family="Helvetica,sans-Serif" font-size="10.00"> &#45;createInventoryUseCase</text>
</g>
<!-- Node3 -->
<g id="node3" class="node">
<title>Node3</title>
<g id="a_node3"><a xlink:href="interfacecom_1_1example_1_1cleanarchitecture_1_1domain_1_1inventory_1_1gateway_1_1InventoryGateway.html" target="_top" xlink:title=" ">
<polygon fill="white" stroke="#666666" points="17.5,-243.5 17.5,-311.5 322.5,-311.5 322.5,-243.5 17.5,-243.5"/>
<text text-anchor="start" x="25.5" y="-299.5" font-family="Helvetica,sans-Serif" font-size="10.00">com.example.cleanarchitecture.domain.inventory.gateway.</text>
<text text-anchor="middle" x="170" y="-288.5" font-family="Helvetica,sans-Serif" font-size="10.00">InventoryGateway</text>
<polyline fill="none" stroke="#666666" points="17.5,-281.5 322.5,-281.5 "/>
<text text-anchor="middle" x="170" y="-269.5" font-family="Helvetica,sans-Serif" font-size="10.00"> </text>
<polyline fill="none" stroke="#666666" points="17.5,-262.5 322.5,-262.5 "/>
<text text-anchor="start" x="25.5" y="-250.5" font-family="Helvetica,sans-Serif" font-size="10.00">+ findAll()</text>
</a>
</g>
</g>
<!-- Node3&#45;&gt;Node2 -->
<g id="edge2" class="edge">
<title>Node3&#45;&gt;Node2</title>
<path fill="none" stroke="#404040" d="M170,-243.21C170,-232.24 170,-219.78 170,-207.81"/>
<polygon fill="none" stroke="#404040" points="170,-207.6 166,-201.6 170,-195.6 174,-201.6 170,-207.6"/>
<text text-anchor="middle" x="218.5" y="-217" font-family="Helvetica,sans-Serif" font-size="10.00"> &#45;inventoryGateway</text>
</g>
<!-- Node4 -->
<g id="node4" class="node">
<title>Node4</title>
<g id="a_node4"><a xlink:href="interfacecom_1_1example_1_1cleanarchitecture_1_1core_1_1domain_1_1IGateway.html" target="_top" xlink:title=" ">
<polygon fill="white" stroke="#666666" points="51,-349.5 51,-461.5 289,-461.5 289,-349.5 51,-349.5"/>
<text text-anchor="start" x="59" y="-449.5" font-family="Helvetica,sans-Serif" font-size="10.00">com.example.cleanarchitecture.core.domain.</text>
<text text-anchor="middle" x="170" y="-438.5" font-family="Helvetica,sans-Serif" font-size="10.00">IGateway&lt; S, ID &gt;</text>
<polyline fill="none" stroke="#666666" points="51,-431.5 289,-431.5 "/>
<text text-anchor="middle" x="170" y="-419.5" font-family="Helvetica,sans-Serif" font-size="10.00"> </text>
<polyline fill="none" stroke="#666666" points="51,-412.5 289,-412.5 "/>
<text text-anchor="start" x="59" y="-400.5" font-family="Helvetica,sans-Serif" font-size="10.00">+ create()</text>
<text text-anchor="start" x="59" y="-389.5" font-family="Helvetica,sans-Serif" font-size="10.00">+ update()</text>
<text text-anchor="start" x="59" y="-378.5" font-family="Helvetica,sans-Serif" font-size="10.00">+ delete()</text>
<text text-anchor="start" x="59" y="-367.5" font-family="Helvetica,sans-Serif" font-size="10.00">+ findById()</text>
<text text-anchor="start" x="59" y="-356.5" font-family="Helvetica,sans-Serif" font-size="10.00">+ findAll()</text>
</a>
</g>
</g>
<!-- Node4&#45;&gt;Node3 -->
<g id="edge3" class="edge">
<title>Node4&#45;&gt;Node3</title>
<path fill="none" stroke="#63b8ff" d="M170,-338.96C170,-329.48 170,-320.08 170,-311.62"/>
<polygon fill="none" stroke="#63b8ff" points="166.5,-339.23 170,-349.23 173.5,-339.23 166.5,-339.23"/>
</g>
</g>
</svg>
