<?xml version="1.0" encoding="UTF-8" standalone="no"?>
<!DOCTYPE svg PUBLIC "-//W3C//DTD SVG 1.1//EN"
 "http://www.w3.org/Graphics/SVG/1.1/DTD/svg11.dtd">
<!-- Generated by graphviz version 2.43.0 (0)
 -->
<!-- Title: com.example.cleanarchitecture.infrastructure.config.db.mapper.InventoryMapper.toInventory Pages: 1 -->
<svg width="709pt" height="182pt"
 viewBox="0.00 0.00 709.00 182.00" xmlns="http://www.w3.org/2000/svg" xmlns:xlink="http://www.w3.org/1999/xlink">
<g id="graph0" class="graph" transform="scale(1 1) rotate(0) translate(4 178)">
<title>com.example.cleanarchitecture.infrastructure.config.db.mapper.InventoryMapper.toInventory</title>
<!-- Node1 -->
<g id="node1" class="node">
<title>Node1</title>
<g id="a_node1"><a xlink:title=" ">
<polygon fill="#999999" stroke="#666666" points="701,-102 371,-102 371,-72 701,-72 701,-102"/>
<text text-anchor="start" x="379" y="-90" font-family="Helvetica,sans-Serif" font-size="10.00">com.example.cleanarchitecture.infrastructure.config.db.mapper.</text>
<text text-anchor="middle" x="536" y="-79" font-family="Helvetica,sans-Serif" font-size="10.00">InventoryMapper.toInventory</text>
</a>
</g>
</g>
<!-- Node2 -->
<g id="node2" class="node">
<title>Node2</title>
<g id="a_node2"><a xlink:href="classcom_1_1example_1_1cleanarchitecture_1_1infrastructure_1_1inventory_1_1gateway_1_1InventoryDatabaseGateway.html#a1718d0b5e087083c702e04e49e58d349" target="_top" xlink:title=" ">
<polygon fill="white" stroke="#666666" points="335,-174 0,-174 0,-144 335,-144 335,-174"/>
<text text-anchor="start" x="8" y="-162" font-family="Helvetica,sans-Serif" font-size="10.00">com.example.cleanarchitecture.infrastructure.inventory.gateway.</text>
<text text-anchor="middle" x="167.5" y="-151" font-family="Helvetica,sans-Serif" font-size="10.00">InventoryDatabaseGateway.create</text>
</a>
</g>
</g>
<!-- Node1&#45;&gt;Node2 -->
<g id="edge1" class="edge">
<title>Node1&#45;&gt;Node2</title>
<path fill="none" stroke="#63b8ff" d="M468.3,-104.64C429.58,-114.47 379.75,-126.42 335,-135 318.08,-138.24 300.11,-141.27 282.48,-144"/>
<polygon fill="#63b8ff" stroke="#63b8ff" points="469.58,-107.93 478.41,-102.06 467.85,-101.14 469.58,-107.93"/>
</g>
<!-- Node3 -->
<g id="node3" class="node">
<title>Node3</title>
<g id="a_node3"><a xlink:href="classcom_1_1example_1_1cleanarchitecture_1_1infrastructure_1_1inventory_1_1gateway_1_1InventoryDatabaseGateway.html#a85bb31cbc0b44554e5bbdb706c8835d8" target="_top" xlink:title=" ">
<polygon fill="white" stroke="#666666" points="335,-126 0,-126 0,-96 335,-96 335,-126"/>
<text text-anchor="start" x="8" y="-114" font-family="Helvetica,sans-Serif" font-size="10.00">com.example.cleanarchitecture.infrastructure.inventory.gateway.</text>
<text text-anchor="middle" x="167.5" y="-103" font-family="Helvetica,sans-Serif" font-size="10.00">InventoryDatabaseGateway.findAll</text>
</a>
</g>
</g>
<!-- Node1&#45;&gt;Node3 -->
<g id="edge2" class="edge">
<title>Node1&#45;&gt;Node3</title>
<path fill="none" stroke="#63b8ff" d="M360.79,-98.41C352.28,-98.97 343.73,-99.53 335.24,-100.08"/>
<polygon fill="#63b8ff" stroke="#63b8ff" points="361.03,-101.9 370.78,-97.75 360.57,-94.91 361.03,-101.9"/>
</g>
<!-- Node4 -->
<g id="node4" class="node">
<title>Node4</title>
<g id="a_node4"><a xlink:href="classcom_1_1example_1_1cleanarchitecture_1_1infrastructure_1_1inventory_1_1gateway_1_1InventoryDatabaseGateway.html#a7ddd6f3bf77a8f60c42233e5ced9b5da" target="_top" xlink:title=" ">
<polygon fill="white" stroke="#666666" points="335,-78 0,-78 0,-48 335,-48 335,-78"/>
<text text-anchor="start" x="8" y="-66" font-family="Helvetica,sans-Serif" font-size="10.00">com.example.cleanarchitecture.infrastructure.inventory.gateway.</text>
<text text-anchor="middle" x="167.5" y="-55" font-family="Helvetica,sans-Serif" font-size="10.00">InventoryDatabaseGateway.findById</text>
</a>
</g>
</g>
<!-- Node1&#45;&gt;Node4 -->
<g id="edge3" class="edge">
<title>Node1&#45;&gt;Node4</title>
<path fill="none" stroke="#63b8ff" d="M360.79,-75.59C352.28,-75.03 343.73,-74.47 335.24,-73.92"/>
<polygon fill="#63b8ff" stroke="#63b8ff" points="360.57,-79.09 370.78,-76.25 361.03,-72.1 360.57,-79.09"/>
</g>
<!-- Node5 -->
<g id="node5" class="node">
<title>Node5</title>
<g id="a_node5"><a xlink:href="classcom_1_1example_1_1cleanarchitecture_1_1infrastructure_1_1inventory_1_1gateway_1_1InventoryDatabaseGateway.html#aa688884a5cabbfd271726cf08275cbeb" target="_top" xlink:title=" ">
<polygon fill="white" stroke="#666666" points="335,-30 0,-30 0,0 335,0 335,-30"/>
<text text-anchor="start" x="8" y="-18" font-family="Helvetica,sans-Serif" font-size="10.00">com.example.cleanarchitecture.infrastructure.inventory.gateway.</text>
<text text-anchor="middle" x="167.5" y="-7" font-family="Helvetica,sans-Serif" font-size="10.00">InventoryDatabaseGateway.update</text>
</a>
</g>
</g>
<!-- Node1&#45;&gt;Node5 -->
<g id="edge4" class="edge">
<title>Node1&#45;&gt;Node5</title>
<path fill="none" stroke="#63b8ff" d="M468.3,-69.36C429.58,-59.53 379.75,-47.58 335,-39 318.08,-35.76 300.11,-32.73 282.48,-30"/>
<polygon fill="#63b8ff" stroke="#63b8ff" points="467.85,-72.86 478.41,-71.94 469.58,-66.07 467.85,-72.86"/>
</g>
</g>
</svg>
