<?xml version="1.0" encoding="UTF-8" standalone="no"?>
<!DOCTYPE svg PUBLIC "-//W3C//DTD SVG 1.1//EN"
 "http://www.w3.org/Graphics/SVG/1.1/DTD/svg11.dtd">
<!-- Generated by graphviz version 2.43.0 (0)
 -->
<!-- Title: com.example.cleanarchitecture.infrastructure.config.db.schema.OrderSchema Pages: 1 -->
<svg width="560pt" height="553pt"
 viewBox="0.00 0.00 560.03 553.00" xmlns="http://www.w3.org/2000/svg" xmlns:xlink="http://www.w3.org/1999/xlink">
<g id="graph0" class="graph" transform="scale(1 1) rotate(0) translate(4 549)">
<title>com.example.cleanarchitecture.infrastructure.config.db.schema.OrderSchema</title>
<!-- Node1 -->
<g id="node1" class="node">
<title>Node1</title>
<g id="a_node1"><a xlink:title=" ">
<polygon fill="#999999" stroke="#666666" points="77.03,-0.5 77.03,-79.5 409.03,-79.5 409.03,-0.5 77.03,-0.5"/>
<text text-anchor="start" x="85.03" y="-67.5" font-family="Helvetica,sans-Serif" font-size="10.00">com.example.cleanarchitecture.infrastructure.config.db.schema.</text>
<text text-anchor="middle" x="243.03" y="-56.5" font-family="Helvetica,sans-Serif" font-size="10.00">OrderSchema</text>
<polyline fill="none" stroke="#666666" points="77.03,-49.5 409.03,-49.5 "/>
<text text-anchor="start" x="85.03" y="-37.5" font-family="Helvetica,sans-Serif" font-size="10.00">&#45; customerInfo</text>
<text text-anchor="start" x="85.03" y="-26.5" font-family="Helvetica,sans-Serif" font-size="10.00">&#45; quantity</text>
<polyline fill="none" stroke="#666666" points="77.03,-19.5 409.03,-19.5 "/>
<text text-anchor="start" x="85.03" y="-7.5" font-family="Helvetica,sans-Serif" font-size="10.00">+ OrderSchema()</text>
</a>
</g>
</g>
<!-- Node2 -->
<g id="node2" class="node">
<title>Node2</title>
<g id="a_node2"><a xlink:href="classcom_1_1example_1_1cleanarchitecture_1_1infrastructure_1_1config_1_1db_1_1schema_1_1AbstractEntitySchema.html" target="_top" xlink:title=" ">
<polygon fill="white" stroke="#666666" points="220.03,-265.5 220.03,-333.5 552.03,-333.5 552.03,-265.5 220.03,-265.5"/>
<text text-anchor="start" x="228.03" y="-321.5" font-family="Helvetica,sans-Serif" font-size="10.00">com.example.cleanarchitecture.infrastructure.config.db.schema.</text>
<text text-anchor="middle" x="386.03" y="-310.5" font-family="Helvetica,sans-Serif" font-size="10.00">AbstractEntitySchema&lt; Long &gt;</text>
<polyline fill="none" stroke="#666666" points="220.03,-303.5 552.03,-303.5 "/>
<text text-anchor="start" x="228.03" y="-291.5" font-family="Helvetica,sans-Serif" font-size="10.00">&#45; id</text>
<polyline fill="none" stroke="#666666" points="220.03,-284.5 552.03,-284.5 "/>
<text text-anchor="middle" x="386.03" y="-272.5" font-family="Helvetica,sans-Serif" font-size="10.00"> </text>
</a>
</g>
</g>
<!-- Node2&#45;&gt;Node1 -->
<g id="edge1" class="edge">
<title>Node2&#45;&gt;Node1</title>
<path fill="none" stroke="#63b8ff" d="M409.66,-255.88C426.54,-219.16 442.35,-166.06 418.03,-127 405.59,-107.03 387.01,-91.56 366.53,-79.63"/>
<polygon fill="none" stroke="#63b8ff" points="406.3,-254.78 405.13,-265.31 412.61,-257.81 406.3,-254.78"/>
</g>
<!-- Node6 -->
<g id="node6" class="node">
<title>Node6</title>
<g id="a_node6"><a xlink:href="classcom_1_1example_1_1cleanarchitecture_1_1infrastructure_1_1config_1_1db_1_1schema_1_1InventorySchema.html" target="_top" xlink:title=" ">
<polygon fill="white" stroke="#666666" points="77.03,-127.5 77.03,-206.5 409.03,-206.5 409.03,-127.5 77.03,-127.5"/>
<text text-anchor="start" x="85.03" y="-194.5" font-family="Helvetica,sans-Serif" font-size="10.00">com.example.cleanarchitecture.infrastructure.config.db.schema.</text>
<text text-anchor="middle" x="243.03" y="-183.5" font-family="Helvetica,sans-Serif" font-size="10.00">InventorySchema</text>
<polyline fill="none" stroke="#666666" points="77.03,-176.5 409.03,-176.5 "/>
<text text-anchor="start" x="85.03" y="-164.5" font-family="Helvetica,sans-Serif" font-size="10.00">&#45; name</text>
<text text-anchor="start" x="85.03" y="-153.5" font-family="Helvetica,sans-Serif" font-size="10.00">&#45; quantity</text>
<polyline fill="none" stroke="#666666" points="77.03,-146.5 409.03,-146.5 "/>
<text text-anchor="start" x="85.03" y="-134.5" font-family="Helvetica,sans-Serif" font-size="10.00">+ InventorySchema()</text>
</a>
</g>
</g>
<!-- Node2&#45;&gt;Node6 -->
<g id="edge6" class="edge">
<title>Node2&#45;&gt;Node6</title>
<path fill="none" stroke="#63b8ff" d="M342.02,-258.34C323.95,-241.85 303.12,-222.84 285.25,-206.53"/>
<polygon fill="none" stroke="#63b8ff" points="339.83,-261.08 349.57,-265.23 344.55,-255.91 339.83,-261.08"/>
</g>
<!-- Node3 -->
<g id="node3" class="node">
<title>Node3</title>
<g id="a_node3"><a xlink:href="classcom_1_1example_1_1cleanarchitecture_1_1infrastructure_1_1config_1_1db_1_1schema_1_1AbstractEntitySchema.html" target="_top" xlink:title=" ">
<polygon fill="white" stroke="#666666" points="220.03,-381.5 220.03,-449.5 552.03,-449.5 552.03,-381.5 220.03,-381.5"/>
<text text-anchor="start" x="228.03" y="-437.5" font-family="Helvetica,sans-Serif" font-size="10.00">com.example.cleanarchitecture.infrastructure.config.db.schema.</text>
<text text-anchor="middle" x="386.03" y="-426.5" font-family="Helvetica,sans-Serif" font-size="10.00">AbstractEntitySchema&lt; ID extends Serializable &gt;</text>
<polyline fill="none" stroke="#666666" points="220.03,-419.5 552.03,-419.5 "/>
<text text-anchor="start" x="228.03" y="-407.5" font-family="Helvetica,sans-Serif" font-size="10.00">&#45; id</text>
<polyline fill="none" stroke="#666666" points="220.03,-400.5 552.03,-400.5 "/>
<text text-anchor="middle" x="386.03" y="-388.5" font-family="Helvetica,sans-Serif" font-size="10.00"> </text>
</a>
</g>
</g>
<!-- Node3&#45;&gt;Node2 -->
<g id="edge2" class="edge">
<title>Node3&#45;&gt;Node2</title>
<path fill="none" stroke="orange" d="M386.03,-371.06C386.03,-358.64 386.03,-345.32 386.03,-333.62"/>
<polygon fill="orange" stroke="orange" points="382.53,-371.22 386.03,-381.22 389.53,-371.22 382.53,-371.22"/>
<text text-anchor="middle" x="410.53" y="-355" font-family="Helvetica,sans-Serif" font-size="10.00"> &lt; Long &gt;</text>
</g>
<!-- Node4 -->
<g id="node4" class="node">
<title>Node4</title>
<g id="a_node4"><a xlink:title=" ">
<polygon fill="white" stroke="#666666" points="349.03,-487.5 349.03,-544.5 423.03,-544.5 423.03,-487.5 349.03,-487.5"/>
<text text-anchor="middle" x="386.03" y="-532.5" font-family="Helvetica,sans-Serif" font-size="10.00">Serializable</text>
<polyline fill="none" stroke="#666666" points="349.03,-525.5 423.03,-525.5 "/>
<text text-anchor="middle" x="386.03" y="-513.5" font-family="Helvetica,sans-Serif" font-size="10.00"> </text>
<polyline fill="none" stroke="#666666" points="349.03,-506.5 423.03,-506.5 "/>
<text text-anchor="middle" x="386.03" y="-494.5" font-family="Helvetica,sans-Serif" font-size="10.00"> </text>
</a>
</g>
</g>
<!-- Node4&#45;&gt;Node3 -->
<g id="edge3" class="edge">
<title>Node4&#45;&gt;Node3</title>
<path fill="none" stroke="#63b8ff" d="M386.03,-477.01C386.03,-467.96 386.03,-458.38 386.03,-449.58"/>
<polygon fill="none" stroke="#63b8ff" points="382.53,-477.3 386.03,-487.3 389.53,-477.3 382.53,-477.3"/>
</g>
<!-- Node5 -->
<g id="node5" class="node">
<title>Node5</title>
<g id="a_node5"><a xlink:title=" ">
<polygon fill="white" stroke="#666666" points="10.03,-271 10.03,-328 100.03,-328 100.03,-271 10.03,-271"/>
<text text-anchor="middle" x="55.03" y="-316" font-family="Helvetica,sans-Serif" font-size="10.00">LocalDateTime</text>
<polyline fill="none" stroke="#666666" points="10.03,-309 100.03,-309 "/>
<text text-anchor="middle" x="55.03" y="-297" font-family="Helvetica,sans-Serif" font-size="10.00"> </text>
<polyline fill="none" stroke="#666666" points="10.03,-290 100.03,-290 "/>
<text text-anchor="middle" x="55.03" y="-278" font-family="Helvetica,sans-Serif" font-size="10.00"> </text>
</a>
</g>
</g>
<!-- Node5&#45;&gt;Node1 -->
<g id="edge4" class="edge">
<title>Node5&#45;&gt;Node1</title>
<path fill="none" stroke="#404040" d="M35.7,-270.79C13.13,-234.67 -17.46,-170.95 13.03,-127 26.64,-107.37 45.32,-92.22 66.18,-80.52"/>
<polygon fill="none" stroke="#404040" points="66.31,-80.45 69.76,-74.12 76.93,-74.88 73.48,-81.21 66.31,-80.45"/>
<text text-anchor="middle" x="40.53" y="-170" font-family="Helvetica,sans-Serif" font-size="10.00"> &#45;createdAt</text>
<text text-anchor="middle" x="40.53" y="-159" font-family="Helvetica,sans-Serif" font-size="10.00">&#45;updatedAt</text>
</g>
<!-- Node5&#45;&gt;Node6 -->
<g id="edge7" class="edge">
<title>Node5&#45;&gt;Node6</title>
<path fill="none" stroke="#404040" d="M94.9,-270.82C118.9,-254.17 150.04,-232.55 177.57,-213.44"/>
<polygon fill="none" stroke="#404040" points="177.67,-213.37 180.32,-206.66 187.53,-206.53 184.88,-213.23 177.67,-213.37"/>
<text text-anchor="middle" x="187.53" y="-239" font-family="Helvetica,sans-Serif" font-size="10.00"> &#45;createdAt</text>
<text text-anchor="middle" x="187.53" y="-228" font-family="Helvetica,sans-Serif" font-size="10.00">&#45;updatedAt</text>
</g>
<!-- Node6&#45;&gt;Node1 -->
<g id="edge5" class="edge">
<title>Node6&#45;&gt;Node1</title>
<path fill="none" stroke="#404040" d="M243.03,-127.48C243.03,-116.19 243.03,-103.67 243.03,-91.75"/>
<polygon fill="none" stroke="#404040" points="243.03,-91.61 239.03,-85.61 243.03,-79.61 247.03,-85.61 243.03,-91.61"/>
<text text-anchor="middle" x="289.53" y="-101" font-family="Helvetica,sans-Serif" font-size="10.00"> &#45;inventorySchema</text>
</g>
</g>
</svg>
