<?xml version="1.0" encoding="UTF-8" standalone="no"?>
<!DOCTYPE svg PUBLIC "-//W3C//DTD SVG 1.1//EN"
 "http://www.w3.org/Graphics/SVG/1.1/DTD/svg11.dtd">
<!-- Generated by graphviz version 2.43.0 (0)
 -->
<!-- Title: com.example.cleanarchitecture.application.order.CreateOrderService.createOrder Pages: 1 -->
<svg width="880pt" height="230pt"
 viewBox="0.00 0.00 880.00 230.00" xmlns="http://www.w3.org/2000/svg" xmlns:xlink="http://www.w3.org/1999/xlink">
<g id="graph0" class="graph" transform="scale(1 1) rotate(0) translate(4 226)">
<title>com.example.cleanarchitecture.application.order.CreateOrderService.createOrder</title>
<!-- Node1 -->
<g id="node1" class="node">
<title>Node1</title>
<g id="a_node1"><a xlink:title=" ">
<polygon fill="#999999" stroke="#666666" points="259,-126 0,-126 0,-96 259,-96 259,-126"/>
<text text-anchor="start" x="8" y="-114" font-family="Helvetica,sans-Serif" font-size="10.00">com.example.cleanarchitecture.application.order.</text>
<text text-anchor="middle" x="129.5" y="-103" font-family="Helvetica,sans-Serif" font-size="10.00">CreateOrderService.createOrder</text>
</a>
</g>
</g>
<!-- Node2 -->
<g id="node2" class="node">
<title>Node2</title>
<g id="a_node2"><a xlink:href="classcom_1_1example_1_1cleanarchitecture_1_1usecase_1_1order_1_1CreateOrderUseCase.html#a0359d71b84f30fcd46bcfb295d8e67e9" target="_top" xlink:title=" ">
<polygon fill="white" stroke="#666666" points="540,-126 295,-126 295,-96 540,-96 540,-126"/>
<text text-anchor="start" x="303" y="-114" font-family="Helvetica,sans-Serif" font-size="10.00">com.example.cleanarchitecture.usecase.order.</text>
<text text-anchor="middle" x="417.5" y="-103" font-family="Helvetica,sans-Serif" font-size="10.00">CreateOrderUseCase.createOrder</text>
</a>
</g>
</g>
<!-- Node1&#45;&gt;Node2 -->
<g id="edge1" class="edge">
<title>Node1&#45;&gt;Node2</title>
<path fill="none" stroke="#63b8ff" d="M259.28,-111C267.71,-111 276.21,-111 284.66,-111"/>
<polygon fill="#63b8ff" stroke="#63b8ff" points="284.93,-114.5 294.93,-111 284.93,-107.5 284.93,-114.5"/>
</g>
<!-- Node3 -->
<g id="node3" class="node">
<title>Node3</title>
<g id="a_node3"><a xlink:href="interfacecom_1_1example_1_1cleanarchitecture_1_1core_1_1domain_1_1IGateway.html#acd8f34d5bc57a8336c406b12b9f0aa61" target="_top" xlink:title=" ">
<polygon fill="white" stroke="#666666" points="843,-222 605,-222 605,-192 843,-192 843,-222"/>
<text text-anchor="start" x="613" y="-210" font-family="Helvetica,sans-Serif" font-size="10.00">com.example.cleanarchitecture.core.domain.</text>
<text text-anchor="middle" x="724" y="-199" font-family="Helvetica,sans-Serif" font-size="10.00">IGateway.create</text>
</a>
</g>
</g>
<!-- Node2&#45;&gt;Node3 -->
<g id="edge2" class="edge">
<title>Node2&#45;&gt;Node3</title>
<path fill="none" stroke="#63b8ff" d="M445.51,-126.05C476.2,-142.51 528.25,-168.47 576,-183 584.18,-185.49 592.7,-187.73 601.33,-189.76"/>
<polygon fill="#63b8ff" stroke="#63b8ff" points="600.59,-193.18 611.11,-191.95 602.12,-186.35 600.59,-193.18"/>
</g>
<!-- Node4 -->
<g id="node4" class="node">
<title>Node4</title>
<g id="a_node4"><a xlink:href="interfacecom_1_1example_1_1cleanarchitecture_1_1core_1_1domain_1_1IGateway.html#a244c5e7e569a1cd9ccafbaaba8ecb6ba" target="_top" xlink:title=" ">
<polygon fill="white" stroke="#666666" points="843,-174 605,-174 605,-144 843,-144 843,-174"/>
<text text-anchor="start" x="613" y="-162" font-family="Helvetica,sans-Serif" font-size="10.00">com.example.cleanarchitecture.core.domain.</text>
<text text-anchor="middle" x="724" y="-151" font-family="Helvetica,sans-Serif" font-size="10.00">IGateway.findById</text>
</a>
</g>
</g>
<!-- Node2&#45;&gt;Node4 -->
<g id="edge3" class="edge">
<title>Node2&#45;&gt;Node4</title>
<path fill="none" stroke="#63b8ff" d="M514.01,-126.06C547.03,-131.26 584.2,-137.12 617.94,-142.44"/>
<polygon fill="#63b8ff" stroke="#63b8ff" points="617.41,-145.9 627.83,-144 618.5,-138.98 617.41,-145.9"/>
</g>
<!-- Node5 -->
<g id="node5" class="node">
<title>Node5</title>
<g id="a_node5"><a xlink:href="classcom_1_1example_1_1cleanarchitecture_1_1domain_1_1inventory_1_1model_1_1Inventory.html#a83c0f5831bfded2b37bd47f4782655f8" target="_top" xlink:title=" ">
<polygon fill="white" stroke="#666666" points="872,-126 576,-126 576,-96 872,-96 872,-126"/>
<text text-anchor="start" x="584" y="-114" font-family="Helvetica,sans-Serif" font-size="10.00">com.example.cleanarchitecture.domain.inventory.model.</text>
<text text-anchor="middle" x="724" y="-103" font-family="Helvetica,sans-Serif" font-size="10.00">Inventory.reduce</text>
</a>
</g>
</g>
<!-- Node2&#45;&gt;Node5 -->
<g id="edge4" class="edge">
<title>Node2&#45;&gt;Node5</title>
<path fill="none" stroke="#63b8ff" d="M540.16,-111C548.61,-111 557.2,-111 565.8,-111"/>
<polygon fill="#63b8ff" stroke="#63b8ff" points="565.91,-114.5 575.91,-111 565.91,-107.5 565.91,-114.5"/>
</g>
<!-- Node6 -->
<g id="node6" class="node">
<title>Node6</title>
<g id="a_node6"><a xlink:href="classcom_1_1example_1_1cleanarchitecture_1_1domain_1_1inventory_1_1model_1_1Inventory.html#ac1af76eb458bfcb87f8bf737a6d0f56e" target="_top" xlink:title=" ">
<polygon fill="white" stroke="#666666" points="872,-78 576,-78 576,-48 872,-48 872,-78"/>
<text text-anchor="start" x="584" y="-66" font-family="Helvetica,sans-Serif" font-size="10.00">com.example.cleanarchitecture.domain.inventory.model.</text>
<text text-anchor="middle" x="724" y="-55" font-family="Helvetica,sans-Serif" font-size="10.00">Inventory.reducible</text>
</a>
</g>
</g>
<!-- Node2&#45;&gt;Node6 -->
<g id="edge5" class="edge">
<title>Node2&#45;&gt;Node6</title>
<path fill="none" stroke="#63b8ff" d="M514.01,-95.94C547.03,-90.74 584.2,-84.88 617.94,-79.56"/>
<polygon fill="#63b8ff" stroke="#63b8ff" points="618.5,-83.02 627.83,-78 617.41,-76.1 618.5,-83.02"/>
</g>
<!-- Node7 -->
<g id="node7" class="node">
<title>Node7</title>
<g id="a_node7"><a xlink:href="interfacecom_1_1example_1_1cleanarchitecture_1_1core_1_1domain_1_1IGateway.html#a5583f82a13f8ec30c91771e791286be9" target="_top" xlink:title=" ">
<polygon fill="white" stroke="#666666" points="843,-30 605,-30 605,0 843,0 843,-30"/>
<text text-anchor="start" x="613" y="-18" font-family="Helvetica,sans-Serif" font-size="10.00">com.example.cleanarchitecture.core.domain.</text>
<text text-anchor="middle" x="724" y="-7" font-family="Helvetica,sans-Serif" font-size="10.00">IGateway.update</text>
</a>
</g>
</g>
<!-- Node2&#45;&gt;Node7 -->
<g id="edge6" class="edge">
<title>Node2&#45;&gt;Node7</title>
<path fill="none" stroke="#63b8ff" d="M445.51,-95.95C476.2,-79.49 528.25,-53.53 576,-39 584.18,-36.51 592.7,-34.27 601.33,-32.24"/>
<polygon fill="#63b8ff" stroke="#63b8ff" points="602.12,-35.65 611.11,-30.05 600.59,-28.82 602.12,-35.65"/>
</g>
</g>
</svg>
