<?xml version="1.0" encoding="UTF-8" standalone="no"?>
<!DOCTYPE svg PUBLIC "-//W3C//DTD SVG 1.1//EN"
 "http://www.w3.org/Graphics/SVG/1.1/DTD/svg11.dtd">
<!-- Generated by graphviz version 2.43.0 (0)
 -->
<!-- Title: com.example.cleanarchitecture.infrastructure.inventory.gateway.InventoryDatabaseGateway Pages: 1 -->
<svg width="343pt" height="386pt"
 viewBox="0.00 0.00 343.00 386.00" xmlns="http://www.w3.org/2000/svg" xmlns:xlink="http://www.w3.org/1999/xlink">
<g id="graph0" class="graph" transform="scale(1 1) rotate(0) translate(4 382)">
<title>com.example.cleanarchitecture.infrastructure.inventory.gateway.InventoryDatabaseGateway</title>
<!-- Node1 -->
<g id="node1" class="node">
<title>Node1</title>
<g id="a_node1"><a xlink:title=" ">
<polygon fill="#999999" stroke="#666666" points="0,-0.5 0,-123.5 335,-123.5 335,-0.5 0,-0.5"/>
<text text-anchor="start" x="8" y="-111.5" font-family="Helvetica,sans-Serif" font-size="10.00">com.example.cleanarchitecture.infrastructure.inventory.gateway.</text>
<text text-anchor="middle" x="167.5" y="-100.5" font-family="Helvetica,sans-Serif" font-size="10.00">InventoryDatabaseGateway</text>
<polyline fill="none" stroke="#666666" points="0,-93.5 335,-93.5 "/>
<text text-anchor="start" x="8" y="-81.5" font-family="Helvetica,sans-Serif" font-size="10.00">&#45; inventoryRepository</text>
<polyline fill="none" stroke="#666666" points="0,-74.5 335,-74.5 "/>
<text text-anchor="start" x="8" y="-62.5" font-family="Helvetica,sans-Serif" font-size="10.00">+ create()</text>
<text text-anchor="start" x="8" y="-51.5" font-family="Helvetica,sans-Serif" font-size="10.00">+ delete()</text>
<text text-anchor="start" x="8" y="-40.5" font-family="Helvetica,sans-Serif" font-size="10.00">+ findAll()</text>
<text text-anchor="start" x="8" y="-29.5" font-family="Helvetica,sans-Serif" font-size="10.00">+ findById()</text>
<text text-anchor="start" x="8" y="-18.5" font-family="Helvetica,sans-Serif" font-size="10.00">+ update()</text>
<text text-anchor="start" x="8" y="-7.5" font-family="Helvetica,sans-Serif" font-size="10.00">+ findAll()</text>
</a>
</g>
</g>
<!-- Node2 -->
<g id="node2" class="node">
<title>Node2</title>
<g id="a_node2"><a xlink:href="interfacecom_1_1example_1_1cleanarchitecture_1_1domain_1_1inventory_1_1gateway_1_1InventoryGateway.html" target="_top" xlink:title=" ">
<polygon fill="white" stroke="#666666" points="15,-160.5 15,-228.5 320,-228.5 320,-160.5 15,-160.5"/>
<text text-anchor="start" x="23" y="-216.5" font-family="Helvetica,sans-Serif" font-size="10.00">com.example.cleanarchitecture.domain.inventory.gateway.</text>
<text text-anchor="middle" x="167.5" y="-205.5" font-family="Helvetica,sans-Serif" font-size="10.00">InventoryGateway</text>
<polyline fill="none" stroke="#666666" points="15,-198.5 320,-198.5 "/>
<text text-anchor="middle" x="167.5" y="-186.5" font-family="Helvetica,sans-Serif" font-size="10.00"> </text>
<polyline fill="none" stroke="#666666" points="15,-179.5 320,-179.5 "/>
<text text-anchor="start" x="23" y="-167.5" font-family="Helvetica,sans-Serif" font-size="10.00">+ findAll()</text>
</a>
</g>
</g>
<!-- Node2&#45;&gt;Node1 -->
<g id="edge1" class="edge">
<title>Node2&#45;&gt;Node1</title>
<path fill="none" stroke="#63b8ff" d="M167.5,-150.17C167.5,-141.65 167.5,-132.57 167.5,-123.61"/>
<polygon fill="none" stroke="#63b8ff" points="164,-150.23 167.5,-160.23 171,-150.23 164,-150.23"/>
</g>
<!-- Node3 -->
<g id="node3" class="node">
<title>Node3</title>
<g id="a_node3"><a xlink:href="interfacecom_1_1example_1_1cleanarchitecture_1_1core_1_1domain_1_1IGateway.html" target="_top" xlink:title=" ">
<polygon fill="white" stroke="#666666" points="48.5,-265.5 48.5,-377.5 286.5,-377.5 286.5,-265.5 48.5,-265.5"/>
<text text-anchor="start" x="56.5" y="-365.5" font-family="Helvetica,sans-Serif" font-size="10.00">com.example.cleanarchitecture.core.domain.</text>
<text text-anchor="middle" x="167.5" y="-354.5" font-family="Helvetica,sans-Serif" font-size="10.00">IGateway&lt; S, ID &gt;</text>
<polyline fill="none" stroke="#666666" points="48.5,-347.5 286.5,-347.5 "/>
<text text-anchor="middle" x="167.5" y="-335.5" font-family="Helvetica,sans-Serif" font-size="10.00"> </text>
<polyline fill="none" stroke="#666666" points="48.5,-328.5 286.5,-328.5 "/>
<text text-anchor="start" x="56.5" y="-316.5" font-family="Helvetica,sans-Serif" font-size="10.00">+ create()</text>
<text text-anchor="start" x="56.5" y="-305.5" font-family="Helvetica,sans-Serif" font-size="10.00">+ update()</text>
<text text-anchor="start" x="56.5" y="-294.5" font-family="Helvetica,sans-Serif" font-size="10.00">+ delete()</text>
<text text-anchor="start" x="56.5" y="-283.5" font-family="Helvetica,sans-Serif" font-size="10.00">+ findById()</text>
<text text-anchor="start" x="56.5" y="-272.5" font-family="Helvetica,sans-Serif" font-size="10.00">+ findAll()</text>
</a>
</g>
</g>
<!-- Node3&#45;&gt;Node2 -->
<g id="edge2" class="edge">
<title>Node3&#45;&gt;Node2</title>
<path fill="none" stroke="#63b8ff" d="M167.5,-255.26C167.5,-245.99 167.5,-236.8 167.5,-228.51"/>
<polygon fill="none" stroke="#63b8ff" points="164,-255.31 167.5,-265.31 171,-255.31 164,-255.31"/>
</g>
</g>
</svg>
