<?xml version="1.0" encoding="UTF-8" standalone="no"?>
<!DOCTYPE svg PUBLIC "-//W3C//DTD SVG 1.1//EN"
 "http://www.w3.org/Graphics/SVG/1.1/DTD/svg11.dtd">
<!-- Generated by graphviz version 2.43.0 (0)
 -->
<!-- Title: com.example.cleanarchitecture.core.exception.NotFoundException Pages: 1 -->
<svg width="257pt" height="171pt"
 viewBox="0.00 0.00 257.00 171.00" xmlns="http://www.w3.org/2000/svg" xmlns:xlink="http://www.w3.org/1999/xlink">
<g id="graph0" class="graph" transform="scale(1 1) rotate(0) translate(4 167)">
<title>com.example.cleanarchitecture.core.exception.NotFoundException</title>
<!-- Node1 -->
<g id="node1" class="node">
<title>Node1</title>
<g id="a_node1"><a xlink:title=" ">
<polygon fill="#999999" stroke="#666666" points="0,-0.5 0,-68.5 249,-68.5 249,-0.5 0,-0.5"/>
<text text-anchor="start" x="8" y="-56.5" font-family="Helvetica,sans-Serif" font-size="10.00">com.example.cleanarchitecture.core.exception.</text>
<text text-anchor="middle" x="124.5" y="-45.5" font-family="Helvetica,sans-Serif" font-size="10.00">NotFoundException</text>
<polyline fill="none" stroke="#666666" points="0,-38.5 249,-38.5 "/>
<text text-anchor="middle" x="124.5" y="-26.5" font-family="Helvetica,sans-Serif" font-size="10.00"> </text>
<polyline fill="none" stroke="#666666" points="0,-19.5 249,-19.5 "/>
<text text-anchor="start" x="8" y="-7.5" font-family="Helvetica,sans-Serif" font-size="10.00">+ NotFoundException()</text>
</a>
</g>
</g>
<!-- Node2 -->
<g id="node2" class="node">
<title>Node2</title>
<g id="a_node2"><a xlink:title=" ">
<polygon fill="white" stroke="#666666" points="92,-105.5 92,-162.5 157,-162.5 157,-105.5 92,-105.5"/>
<text text-anchor="middle" x="124.5" y="-150.5" font-family="Helvetica,sans-Serif" font-size="10.00">Exception</text>
<polyline fill="none" stroke="#666666" points="92,-143.5 157,-143.5 "/>
<text text-anchor="middle" x="124.5" y="-131.5" font-family="Helvetica,sans-Serif" font-size="10.00"> </text>
<polyline fill="none" stroke="#666666" points="92,-124.5 157,-124.5 "/>
<text text-anchor="middle" x="124.5" y="-112.5" font-family="Helvetica,sans-Serif" font-size="10.00"> </text>
</a>
</g>
</g>
<!-- Node2&#45;&gt;Node1 -->
<g id="edge1" class="edge">
<title>Node2&#45;&gt;Node1</title>
<path fill="none" stroke="#63b8ff" d="M124.5,-95.06C124.5,-86.39 124.5,-77.24 124.5,-68.79"/>
<polygon fill="none" stroke="#63b8ff" points="121,-95.32 124.5,-105.32 128,-95.32 121,-95.32"/>
</g>
</g>
</svg>
