<?xml version="1.0" encoding="UTF-8" standalone="no"?>
<!DOCTYPE svg PUBLIC "-//W3C//DTD SVG 1.1//EN"
 "http://www.w3.org/Graphics/SVG/1.1/DTD/svg11.dtd">
<!-- Generated by graphviz version 2.43.0 (0)
 -->
<!-- Title: com.example.cleanarchitecture.infrastructure.inventory.gateway.InventoryDatabaseGateway.create Pages: 1 -->
<svg width="709pt" height="86pt"
 viewBox="0.00 0.00 709.00 86.00" xmlns="http://www.w3.org/2000/svg" xmlns:xlink="http://www.w3.org/1999/xlink">
<g id="graph0" class="graph" transform="scale(1 1) rotate(0) translate(4 82)">
<title>com.example.cleanarchitecture.infrastructure.inventory.gateway.InventoryDatabaseGateway.create</title>
<!-- Node1 -->
<g id="node1" class="node">
<title>Node1</title>
<g id="a_node1"><a xlink:title=" ">
<polygon fill="#999999" stroke="#666666" points="335,-54 0,-54 0,-24 335,-24 335,-54"/>
<text text-anchor="start" x="8" y="-42" font-family="Helvetica,sans-Serif" font-size="10.00">com.example.cleanarchitecture.infrastructure.inventory.gateway.</text>
<text text-anchor="middle" x="167.5" y="-31" font-family="Helvetica,sans-Serif" font-size="10.00">InventoryDatabaseGateway.create</text>
</a>
</g>
</g>
<!-- Node2 -->
<g id="node2" class="node">
<title>Node2</title>
<g id="a_node2"><a xlink:href="classcom_1_1example_1_1cleanarchitecture_1_1infrastructure_1_1config_1_1db_1_1mapper_1_1InventoryMapper.html#aad5b7221c07391b0ba4ea4bb2b3f2aa8" target="_top" xlink:title=" ">
<polygon fill="white" stroke="#666666" points="701,-78 371,-78 371,-48 701,-48 701,-78"/>
<text text-anchor="start" x="379" y="-66" font-family="Helvetica,sans-Serif" font-size="10.00">com.example.cleanarchitecture.infrastructure.config.db.mapper.</text>
<text text-anchor="middle" x="536" y="-55" font-family="Helvetica,sans-Serif" font-size="10.00">InventoryMapper.fromInventory</text>
</a>
</g>
</g>
<!-- Node1&#45;&gt;Node2 -->
<g id="edge1" class="edge">
<title>Node1&#45;&gt;Node2</title>
<path fill="none" stroke="#63b8ff" d="M335.13,-49.91C343.69,-50.47 352.3,-51.04 360.89,-51.6"/>
<polygon fill="#63b8ff" stroke="#63b8ff" points="360.74,-55.1 370.95,-52.26 361.2,-48.11 360.74,-55.1"/>
</g>
<!-- Node3 -->
<g id="node3" class="node">
<title>Node3</title>
<g id="a_node3"><a xlink:href="classcom_1_1example_1_1cleanarchitecture_1_1infrastructure_1_1config_1_1db_1_1mapper_1_1InventoryMapper.html#a771ce58b5e4120211c6285bf65f0c39b" target="_top" xlink:title=" ">
<polygon fill="white" stroke="#666666" points="701,-30 371,-30 371,0 701,0 701,-30"/>
<text text-anchor="start" x="379" y="-18" font-family="Helvetica,sans-Serif" font-size="10.00">com.example.cleanarchitecture.infrastructure.config.db.mapper.</text>
<text text-anchor="middle" x="536" y="-7" font-family="Helvetica,sans-Serif" font-size="10.00">InventoryMapper.toInventory</text>
</a>
</g>
</g>
<!-- Node1&#45;&gt;Node3 -->
<g id="edge2" class="edge">
<title>Node1&#45;&gt;Node3</title>
<path fill="none" stroke="#63b8ff" d="M335.13,-28.09C343.69,-27.53 352.3,-26.96 360.89,-26.4"/>
<polygon fill="#63b8ff" stroke="#63b8ff" points="361.2,-29.89 370.95,-25.74 360.74,-22.9 361.2,-29.89"/>
</g>
</g>
</svg>
