<?xml version="1.0" encoding="UTF-8" standalone="no"?>
<!DOCTYPE svg PUBLIC "-//W3C//DTD SVG 1.1//EN"
 "http://www.w3.org/Graphics/SVG/1.1/DTD/svg11.dtd">
<!-- Generated by graphviz version 2.43.0 (0)
 -->
<!-- Title: com.example.cleanarchitecture.infrastructure.order.gateway.OrderDatabaseGateway.create Pages: 1 -->
<svg width="688pt" height="86pt"
 viewBox="0.00 0.00 688.00 86.00" xmlns="http://www.w3.org/2000/svg" xmlns:xlink="http://www.w3.org/1999/xlink">
<g id="graph0" class="graph" transform="scale(1 1) rotate(0) translate(4 82)">
<title>com.example.cleanarchitecture.infrastructure.order.gateway.OrderDatabaseGateway.create</title>
<!-- Node1 -->
<g id="node1" class="node">
<title>Node1</title>
<g id="a_node1"><a xlink:title=" ">
<polygon fill="#999999" stroke="#666666" points="314,-54 0,-54 0,-24 314,-24 314,-54"/>
<text text-anchor="start" x="8" y="-42" font-family="Helvetica,sans-Serif" font-size="10.00">com.example.cleanarchitecture.infrastructure.order.gateway.</text>
<text text-anchor="middle" x="157" y="-31" font-family="Helvetica,sans-Serif" font-size="10.00">OrderDatabaseGateway.create</text>
</a>
</g>
</g>
<!-- Node2 -->
<g id="node2" class="node">
<title>Node2</title>
<g id="a_node2"><a xlink:href="classcom_1_1example_1_1cleanarchitecture_1_1infrastructure_1_1config_1_1db_1_1mapper_1_1OrderMapper.html#a0ca94548c5b69182b79521e07e68b155" target="_top" xlink:title=" ">
<polygon fill="white" stroke="#666666" points="680,-78 350,-78 350,-48 680,-48 680,-78"/>
<text text-anchor="start" x="358" y="-66" font-family="Helvetica,sans-Serif" font-size="10.00">com.example.cleanarchitecture.infrastructure.config.db.mapper.</text>
<text text-anchor="middle" x="515" y="-55" font-family="Helvetica,sans-Serif" font-size="10.00">OrderMapper.fromOrder</text>
</a>
</g>
</g>
<!-- Node1&#45;&gt;Node2 -->
<g id="edge1" class="edge">
<title>Node1&#45;&gt;Node2</title>
<path fill="none" stroke="#63b8ff" d="M314.15,-49.53C322.67,-50.1 331.27,-50.68 339.85,-51.26"/>
<polygon fill="#63b8ff" stroke="#63b8ff" points="339.7,-54.76 349.92,-51.94 340.17,-47.77 339.7,-54.76"/>
</g>
<!-- Node3 -->
<g id="node3" class="node">
<title>Node3</title>
<g id="a_node3"><a xlink:href="classcom_1_1example_1_1cleanarchitecture_1_1infrastructure_1_1config_1_1db_1_1mapper_1_1OrderMapper.html#aad750d1a92d91a1e43e131da262f8376" target="_top" xlink:title=" ">
<polygon fill="white" stroke="#666666" points="680,-30 350,-30 350,0 680,0 680,-30"/>
<text text-anchor="start" x="358" y="-18" font-family="Helvetica,sans-Serif" font-size="10.00">com.example.cleanarchitecture.infrastructure.config.db.mapper.</text>
<text text-anchor="middle" x="515" y="-7" font-family="Helvetica,sans-Serif" font-size="10.00">OrderMapper.toOrder</text>
</a>
</g>
</g>
<!-- Node1&#45;&gt;Node3 -->
<g id="edge2" class="edge">
<title>Node1&#45;&gt;Node3</title>
<path fill="none" stroke="#63b8ff" d="M314.15,-28.47C322.67,-27.9 331.27,-27.32 339.85,-26.74"/>
<polygon fill="#63b8ff" stroke="#63b8ff" points="340.17,-30.23 349.92,-26.06 339.7,-23.24 340.17,-30.23"/>
</g>
</g>
</svg>
