<?xml version="1.0" encoding="UTF-8" standalone="no"?>
<!DOCTYPE svg PUBLIC "-//W3C//DTD SVG 1.1//EN"
 "http://www.w3.org/Graphics/SVG/1.1/DTD/svg11.dtd">
<!-- Generated by graphviz version 2.43.0 (0)
 -->
<!-- Title: クラス階層図 Pages: 1 -->
<svg width="958pt" height="86pt"
 viewBox="0.00 0.00 958.00 86.00" xmlns="http://www.w3.org/2000/svg" xmlns:xlink="http://www.w3.org/1999/xlink">
<g id="graph0" class="graph" transform="scale(1 1) rotate(0) translate(4 82)">
<title>クラス階層図</title>
<!-- Node0 -->
<g id="node1" class="node">
<title>Node0</title>
<g id="a_node1"><a xlink:href="interfacecom_1_1example_1_1cleanarchitecture_1_1core_1_1domain_1_1IGateway.html" target="_top" xlink:title=" ">
<polygon fill="white" stroke="#666666" points="238,-54 0,-54 0,-24 238,-24 238,-54"/>
<text text-anchor="start" x="8" y="-42" font-family="Helvetica,sans-Serif" font-size="10.00">com.example.cleanarchitecture.core.domain.</text>
<text text-anchor="middle" x="119" y="-31" font-family="Helvetica,sans-Serif" font-size="10.00">IGateway&lt; S, ID &gt;</text>
</a>
</g>
</g>
<!-- Node1 -->
<g id="node2" class="node">
<title>Node1</title>
<g id="a_node2"><a xlink:href="interfacecom_1_1example_1_1cleanarchitecture_1_1domain_1_1inventory_1_1gateway_1_1InventoryGateway.html" target="_top" xlink:title=" ">
<polygon fill="white" stroke="#666666" points="579,-78 274,-78 274,-48 579,-48 579,-78"/>
<text text-anchor="start" x="282" y="-66" font-family="Helvetica,sans-Serif" font-size="10.00">com.example.cleanarchitecture.domain.inventory.gateway.</text>
<text text-anchor="middle" x="426.5" y="-55" font-family="Helvetica,sans-Serif" font-size="10.00">InventoryGateway</text>
</a>
</g>
</g>
<!-- Node0&#45;&gt;Node1 -->
<g id="edge1" class="edge">
<title>Node0&#45;&gt;Node1</title>
<path fill="none" stroke="#63b8ff" d="M248.09,-49.06C256.64,-49.73 265.29,-50.41 273.94,-51.09"/>
<polygon fill="#63b8ff" stroke="#63b8ff" points="248.36,-45.57 238.11,-48.28 247.81,-52.55 248.36,-45.57"/>
</g>
<!-- Node3 -->
<g id="node4" class="node">
<title>Node3</title>
<g id="a_node4"><a xlink:href="interfacecom_1_1example_1_1cleanarchitecture_1_1domain_1_1order_1_1gateway_1_1OrderGateway.html" target="_top" xlink:title=" ">
<polygon fill="white" stroke="#666666" points="569,-30 284,-30 284,0 569,0 569,-30"/>
<text text-anchor="start" x="292" y="-18" font-family="Helvetica,sans-Serif" font-size="10.00">com.example.cleanarchitecture.domain.order.gateway.</text>
<text text-anchor="middle" x="426.5" y="-7" font-family="Helvetica,sans-Serif" font-size="10.00">OrderGateway</text>
</a>
</g>
</g>
<!-- Node0&#45;&gt;Node3 -->
<g id="edge3" class="edge">
<title>Node0&#45;&gt;Node3</title>
<path fill="none" stroke="#63b8ff" d="M248.39,-28.91C260.16,-27.99 272.12,-27.05 283.99,-26.12"/>
<polygon fill="#63b8ff" stroke="#63b8ff" points="247.81,-25.45 238.11,-29.72 248.36,-32.43 247.81,-25.45"/>
</g>
<!-- Node2 -->
<g id="node3" class="node">
<title>Node2</title>
<g id="a_node3"><a xlink:href="classcom_1_1example_1_1cleanarchitecture_1_1infrastructure_1_1inventory_1_1gateway_1_1InventoryDatabaseGateway.html" target="_top" xlink:title=" ">
<polygon fill="white" stroke="#666666" points="950,-78 615,-78 615,-48 950,-48 950,-78"/>
<text text-anchor="start" x="623" y="-66" font-family="Helvetica,sans-Serif" font-size="10.00">com.example.cleanarchitecture.infrastructure.inventory.gateway.</text>
<text text-anchor="middle" x="782.5" y="-55" font-family="Helvetica,sans-Serif" font-size="10.00">InventoryDatabaseGateway</text>
</a>
</g>
</g>
<!-- Node1&#45;&gt;Node2 -->
<g id="edge2" class="edge">
<title>Node1&#45;&gt;Node2</title>
<path fill="none" stroke="#63b8ff" d="M589.18,-63C597.72,-63 606.32,-63 614.88,-63"/>
<polygon fill="#63b8ff" stroke="#63b8ff" points="589.17,-59.5 579.17,-63 589.17,-66.5 589.17,-59.5"/>
</g>
<!-- Node4 -->
<g id="node5" class="node">
<title>Node4</title>
<g id="a_node5"><a xlink:href="classcom_1_1example_1_1cleanarchitecture_1_1infrastructure_1_1order_1_1gateway_1_1OrderDatabaseGateway.html" target="_top" xlink:title=" ">
<polygon fill="white" stroke="#666666" points="939.5,-30 625.5,-30 625.5,0 939.5,0 939.5,-30"/>
<text text-anchor="start" x="633.5" y="-18" font-family="Helvetica,sans-Serif" font-size="10.00">com.example.cleanarchitecture.infrastructure.order.gateway.</text>
<text text-anchor="middle" x="782.5" y="-7" font-family="Helvetica,sans-Serif" font-size="10.00">OrderDatabaseGateway</text>
</a>
</g>
</g>
<!-- Node3&#45;&gt;Node4 -->
<g id="edge4" class="edge">
<title>Node3&#45;&gt;Node4</title>
<path fill="none" stroke="#63b8ff" d="M579.2,-15C594.49,-15 610.04,-15 625.38,-15"/>
<polygon fill="#63b8ff" stroke="#63b8ff" points="579.19,-11.5 569.19,-15 579.19,-18.5 579.19,-11.5"/>
</g>
</g>
</svg>
