<?xml version="1.0" encoding="UTF-8" standalone="no"?>
<!DOCTYPE svg PUBLIC "-//W3C//DTD SVG 1.1//EN"
 "http://www.w3.org/Graphics/SVG/1.1/DTD/svg11.dtd">
<!-- Generated by graphviz version 2.43.0 (0)
 -->
<!-- Title: クラス階層図 Pages: 1 -->
<svg width="469pt" height="86pt"
 viewBox="0.00 0.00 469.00 86.00" xmlns="http://www.w3.org/2000/svg" xmlns:xlink="http://www.w3.org/1999/xlink">
<g id="graph0" class="graph" transform="scale(1 1) rotate(0) translate(4 82)">
<title>クラス階層図</title>
<!-- Node0 -->
<g id="node1" class="node">
<title>Node0</title>
<g id="a_node1"><a xlink:title=" ">
<polygon fill="#e0e0e0" stroke="#999999" points="84,-48.5 0,-48.5 0,-29.5 84,-29.5 84,-48.5"/>
<text text-anchor="middle" x="42" y="-36.5" font-family="Helvetica,sans-Serif" font-size="10.00">JpaRepository</text>
</a>
</g>
</g>
<!-- Node1 -->
<g id="node2" class="node">
<title>Node1</title>
<g id="a_node2"><a xlink:href="interfacecom_1_1example_1_1cleanarchitecture_1_1infrastructure_1_1config_1_1db_1_1repository_1_1InventoryRepository.html" target="_top" xlink:title=" ">
<polygon fill="white" stroke="#666666" points="461,-78 120,-78 120,-48 461,-48 461,-78"/>
<text text-anchor="start" x="128" y="-66" font-family="Helvetica,sans-Serif" font-size="10.00">com.example.cleanarchitecture.infrastructure.config.db.repository.</text>
<text text-anchor="middle" x="290.5" y="-55" font-family="Helvetica,sans-Serif" font-size="10.00">InventoryRepository</text>
</a>
</g>
</g>
<!-- Node0&#45;&gt;Node1 -->
<g id="edge1" class="edge">
<title>Node0&#45;&gt;Node1</title>
<path fill="none" stroke="#63b8ff" d="M94.32,-44C106.74,-45.21 120.66,-46.56 135.19,-47.98"/>
<polygon fill="#63b8ff" stroke="#63b8ff" points="94.55,-40.5 84.26,-43.02 93.87,-47.47 94.55,-40.5"/>
</g>
<!-- Node2 -->
<g id="node3" class="node">
<title>Node2</title>
<g id="a_node3"><a xlink:href="interfacecom_1_1example_1_1cleanarchitecture_1_1infrastructure_1_1config_1_1db_1_1repository_1_1OrderRepository.html" target="_top" xlink:title=" ">
<polygon fill="white" stroke="#666666" points="461,-30 120,-30 120,0 461,0 461,-30"/>
<text text-anchor="start" x="128" y="-18" font-family="Helvetica,sans-Serif" font-size="10.00">com.example.cleanarchitecture.infrastructure.config.db.repository.</text>
<text text-anchor="middle" x="290.5" y="-7" font-family="Helvetica,sans-Serif" font-size="10.00">OrderRepository</text>
</a>
</g>
</g>
<!-- Node0&#45;&gt;Node2 -->
<g id="edge2" class="edge">
<title>Node0&#45;&gt;Node2</title>
<path fill="none" stroke="#63b8ff" d="M94.32,-34C106.74,-32.79 120.66,-31.44 135.19,-30.02"/>
<polygon fill="#63b8ff" stroke="#63b8ff" points="93.87,-30.53 84.26,-34.98 94.55,-37.5 93.87,-30.53"/>
</g>
</g>
</svg>
