<?xml version="1.0" encoding="UTF-8" standalone="no"?>
<!DOCTYPE svg PUBLIC "-//W3C//DTD SVG 1.1//EN"
 "http://www.w3.org/Graphics/SVG/1.1/DTD/svg11.dtd">
<!-- Generated by graphviz version 2.43.0 (0)
 -->
<!-- Title: クラス階層図 Pages: 1 -->
<svg width="782pt" height="110pt"
 viewBox="0.00 0.00 782.00 110.00" xmlns="http://www.w3.org/2000/svg" xmlns:xlink="http://www.w3.org/1999/xlink">
<g id="graph0" class="graph" transform="scale(1 1) rotate(0) translate(4 106)">
<title>クラス階層図</title>
<!-- Node0 -->
<g id="node1" class="node">
<title>Node0</title>
<g id="a_node1"><a xlink:title=" ">
<polygon fill="#e0e0e0" stroke="#999999" points="74,-48.5 0,-48.5 0,-29.5 74,-29.5 74,-48.5"/>
<text text-anchor="middle" x="37" y="-36.5" font-family="Helvetica,sans-Serif" font-size="10.00">Serializable</text>
</a>
</g>
</g>
<!-- Node1 -->
<g id="node2" class="node">
<title>Node1</title>
<g id="a_node2"><a xlink:href="classcom_1_1example_1_1cleanarchitecture_1_1core_1_1domain_1_1AbstractEntity.html" target="_top" xlink:title=" ">
<polygon fill="white" stroke="#666666" points="395,-78 157,-78 157,-48 395,-48 395,-78"/>
<text text-anchor="start" x="165" y="-66" font-family="Helvetica,sans-Serif" font-size="10.00">com.example.cleanarchitecture.core.domain.</text>
<text text-anchor="middle" x="276" y="-55" font-family="Helvetica,sans-Serif" font-size="10.00">AbstractEntity&lt; ID extends Serializable &gt;</text>
</a>
</g>
</g>
<!-- Node0&#45;&gt;Node1 -->
<g id="edge1" class="edge">
<title>Node0&#45;&gt;Node1</title>
<path fill="none" stroke="#63b8ff" d="M84.41,-43.7C105.32,-45.82 131.05,-48.42 156.76,-51.03"/>
<polygon fill="#63b8ff" stroke="#63b8ff" points="84.55,-40.2 74.25,-42.67 83.85,-47.16 84.55,-40.2"/>
</g>
<!-- Node4 -->
<g id="node5" class="node">
<title>Node4</title>
<g id="a_node5"><a xlink:href="classcom_1_1example_1_1cleanarchitecture_1_1infrastructure_1_1config_1_1db_1_1schema_1_1AbstractEntitySchema.html" target="_top" xlink:title=" ">
<polygon fill="white" stroke="#666666" points="442,-30 110,-30 110,0 442,0 442,-30"/>
<text text-anchor="start" x="118" y="-18" font-family="Helvetica,sans-Serif" font-size="10.00">com.example.cleanarchitecture.infrastructure.config.db.schema.</text>
<text text-anchor="middle" x="276" y="-7" font-family="Helvetica,sans-Serif" font-size="10.00">AbstractEntitySchema&lt; ID extends Serializable &gt;</text>
</a>
</g>
</g>
<!-- Node0&#45;&gt;Node4 -->
<g id="edge4" class="edge">
<title>Node0&#45;&gt;Node4</title>
<path fill="none" stroke="#63b8ff" d="M84.46,-34.3C97.14,-33.01 111.59,-31.55 126.73,-30.01"/>
<polygon fill="#63b8ff" stroke="#63b8ff" points="83.85,-30.84 74.25,-35.33 84.55,-37.8 83.85,-30.84"/>
</g>
<!-- Node2 -->
<g id="node3" class="node">
<title>Node2</title>
<g id="a_node3"><a xlink:href="classcom_1_1example_1_1cleanarchitecture_1_1domain_1_1inventory_1_1model_1_1Inventory.html" target="_top" xlink:title=" ">
<polygon fill="white" stroke="#666666" points="774,-102 478,-102 478,-72 774,-72 774,-102"/>
<text text-anchor="start" x="486" y="-90" font-family="Helvetica,sans-Serif" font-size="10.00">com.example.cleanarchitecture.domain.inventory.model.</text>
<text text-anchor="middle" x="626" y="-79" font-family="Helvetica,sans-Serif" font-size="10.00">Inventory</text>
</a>
</g>
</g>
<!-- Node1&#45;&gt;Node2 -->
<g id="edge2" class="edge">
<title>Node1&#45;&gt;Node2</title>
<path fill="none" stroke="#63b8ff" d="M405.33,-71.85C428.9,-73.48 453.67,-75.18 477.75,-76.84"/>
<polygon fill="#63b8ff" stroke="#63b8ff" points="405.52,-68.36 395.3,-71.16 405.04,-75.34 405.52,-68.36"/>
</g>
<!-- Node3 -->
<g id="node4" class="node">
<title>Node3</title>
<g id="a_node4"><a xlink:href="classcom_1_1example_1_1cleanarchitecture_1_1domain_1_1order_1_1model_1_1Order.html" target="_top" xlink:title=" ">
<polygon fill="white" stroke="#666666" points="763.5,-54 488.5,-54 488.5,-24 763.5,-24 763.5,-54"/>
<text text-anchor="start" x="496.5" y="-42" font-family="Helvetica,sans-Serif" font-size="10.00">com.example.cleanarchitecture.domain.order.model.</text>
<text text-anchor="middle" x="626" y="-31" font-family="Helvetica,sans-Serif" font-size="10.00">Order</text>
</a>
</g>
</g>
<!-- Node1&#45;&gt;Node3 -->
<g id="edge3" class="edge">
<title>Node1&#45;&gt;Node3</title>
<path fill="none" stroke="#63b8ff" d="M405.57,-54.13C432.58,-52.27 461.15,-50.3 488.44,-48.42"/>
<polygon fill="#63b8ff" stroke="#63b8ff" points="405.04,-50.66 395.3,-54.84 405.52,-57.64 405.04,-50.66"/>
</g>
</g>
</svg>
