<?xml version="1.0" encoding="UTF-8" standalone="no"?>
<!DOCTYPE svg PUBLIC "-//W3C//DTD SVG 1.1//EN"
 "http://www.w3.org/Graphics/SVG/1.1/DTD/svg11.dtd">
<!-- Generated by graphviz version 2.43.0 (0)
 -->
<!-- Title: クラス階層図 Pages: 1 -->
<svg width="707pt" height="86pt"
 viewBox="0.00 0.00 707.00 86.00" xmlns="http://www.w3.org/2000/svg" xmlns:xlink="http://www.w3.org/1999/xlink">
<g id="graph0" class="graph" transform="scale(1 1) rotate(0) translate(4 82)">
<title>クラス階層図</title>
<!-- Node0 -->
<g id="node1" class="node">
<title>Node0</title>
<g id="a_node1"><a xlink:title=" ">
<polygon fill="#e0e0e0" stroke="#999999" points="65,-48.5 0,-48.5 0,-29.5 65,-29.5 65,-48.5"/>
<text text-anchor="middle" x="32.5" y="-36.5" font-family="Helvetica,sans-Serif" font-size="10.00">Exception</text>
</a>
</g>
</g>
<!-- Node1 -->
<g id="node2" class="node">
<title>Node1</title>
<g id="a_node2"><a xlink:href="classcom_1_1example_1_1cleanarchitecture_1_1core_1_1exception_1_1BadRequestException.html" target="_top" xlink:title=" ">
<polygon fill="white" stroke="#666666" points="350,-78 101,-78 101,-48 350,-48 350,-78"/>
<text text-anchor="start" x="109" y="-66" font-family="Helvetica,sans-Serif" font-size="10.00">com.example.cleanarchitecture.core.exception.</text>
<text text-anchor="middle" x="225.5" y="-55" font-family="Helvetica,sans-Serif" font-size="10.00">BadRequestException</text>
</a>
</g>
</g>
<!-- Node0&#45;&gt;Node1 -->
<g id="edge1" class="edge">
<title>Node0&#45;&gt;Node1</title>
<path fill="none" stroke="#63b8ff" d="M75,-44.21C84.23,-45.37 94.46,-46.66 105.11,-48"/>
<polygon fill="#63b8ff" stroke="#63b8ff" points="75.4,-40.74 65.04,-42.96 74.53,-47.68 75.4,-40.74"/>
</g>
<!-- Node3 -->
<g id="node4" class="node">
<title>Node3</title>
<g id="a_node4"><a xlink:href="classcom_1_1example_1_1cleanarchitecture_1_1core_1_1exception_1_1NotFoundException.html" target="_top" xlink:title=" ">
<polygon fill="white" stroke="#666666" points="350,-30 101,-30 101,0 350,0 350,-30"/>
<text text-anchor="start" x="109" y="-18" font-family="Helvetica,sans-Serif" font-size="10.00">com.example.cleanarchitecture.core.exception.</text>
<text text-anchor="middle" x="225.5" y="-7" font-family="Helvetica,sans-Serif" font-size="10.00">NotFoundException</text>
</a>
</g>
</g>
<!-- Node0&#45;&gt;Node3 -->
<g id="edge3" class="edge">
<title>Node0&#45;&gt;Node3</title>
<path fill="none" stroke="#63b8ff" d="M75,-33.79C84.23,-32.63 94.46,-31.34 105.11,-30"/>
<polygon fill="#63b8ff" stroke="#63b8ff" points="74.53,-30.32 65.04,-35.04 75.4,-37.26 74.53,-30.32"/>
</g>
<!-- Node2 -->
<g id="node3" class="node">
<title>Node2</title>
<g id="a_node3"><a xlink:href="classcom_1_1example_1_1cleanarchitecture_1_1domain_1_1inventory_1_1exception_1_1InventoryIrreducibleException.html" target="_top" xlink:title=" ">
<polygon fill="white" stroke="#666666" points="699,-78 386,-78 386,-48 699,-48 699,-78"/>
<text text-anchor="start" x="394" y="-66" font-family="Helvetica,sans-Serif" font-size="10.00">com.example.cleanarchitecture.domain.inventory.exception.</text>
<text text-anchor="middle" x="542.5" y="-55" font-family="Helvetica,sans-Serif" font-size="10.00">InventoryIrreducibleException</text>
</a>
</g>
</g>
<!-- Node1&#45;&gt;Node2 -->
<g id="edge2" class="edge">
<title>Node1&#45;&gt;Node2</title>
<path fill="none" stroke="#63b8ff" d="M360.32,-63C368.74,-63 377.26,-63 385.77,-63"/>
<polygon fill="#63b8ff" stroke="#63b8ff" points="360.09,-59.5 350.09,-63 360.09,-66.5 360.09,-59.5"/>
</g>
<!-- Node4 -->
<g id="node5" class="node">
<title>Node4</title>
<g id="a_node5"><a xlink:href="classcom_1_1example_1_1cleanarchitecture_1_1domain_1_1inventory_1_1exception_1_1InventoryNotFoundException.html" target="_top" xlink:title=" ">
<polygon fill="white" stroke="#666666" points="699,-30 386,-30 386,0 699,0 699,-30"/>
<text text-anchor="start" x="394" y="-18" font-family="Helvetica,sans-Serif" font-size="10.00">com.example.cleanarchitecture.domain.inventory.exception.</text>
<text text-anchor="middle" x="542.5" y="-7" font-family="Helvetica,sans-Serif" font-size="10.00">InventoryNotFoundException</text>
</a>
</g>
</g>
<!-- Node3&#45;&gt;Node4 -->
<g id="edge4" class="edge">
<title>Node3&#45;&gt;Node4</title>
<path fill="none" stroke="#63b8ff" d="M360.32,-15C368.74,-15 377.26,-15 385.77,-15"/>
<polygon fill="#63b8ff" stroke="#63b8ff" points="360.09,-11.5 350.09,-15 360.09,-18.5 360.09,-11.5"/>
</g>
</g>
</svg>
