<?xml version="1.0" encoding="UTF-8" standalone="no"?>
<!DOCTYPE svg PUBLIC "-//W3C//DTD SVG 1.1//EN"
 "http://www.w3.org/Graphics/SVG/1.1/DTD/svg11.dtd">
<!-- Generated by graphviz version 2.43.0 (0)
 -->
<!-- Title: クラス階層図 Pages: 1 -->
<svg width="708pt" height="86pt"
 viewBox="0.00 0.00 708.00 86.00" xmlns="http://www.w3.org/2000/svg" xmlns:xlink="http://www.w3.org/1999/xlink">
<g id="graph0" class="graph" transform="scale(1 1) rotate(0) translate(4 82)">
<title>クラス階層図</title>
<!-- Node0 -->
<g id="node1" class="node">
<title>Node0</title>
<g id="a_node1"><a xlink:href="classcom_1_1example_1_1cleanarchitecture_1_1infrastructure_1_1config_1_1db_1_1schema_1_1AbstractEntitySchema.html" target="_top" xlink:title=" ">
<polygon fill="white" stroke="#666666" points="332,-54 0,-54 0,-24 332,-24 332,-54"/>
<text text-anchor="start" x="8" y="-42" font-family="Helvetica,sans-Serif" font-size="10.00">com.example.cleanarchitecture.infrastructure.config.db.schema.</text>
<text text-anchor="middle" x="166" y="-31" font-family="Helvetica,sans-Serif" font-size="10.00">AbstractEntitySchema&lt; Long &gt;</text>
</a>
</g>
</g>
<!-- Node1 -->
<g id="node2" class="node">
<title>Node1</title>
<g id="a_node2"><a xlink:href="classcom_1_1example_1_1cleanarchitecture_1_1infrastructure_1_1config_1_1db_1_1schema_1_1InventorySchema.html" target="_top" xlink:title=" ">
<polygon fill="white" stroke="#666666" points="700,-78 368,-78 368,-48 700,-48 700,-78"/>
<text text-anchor="start" x="376" y="-66" font-family="Helvetica,sans-Serif" font-size="10.00">com.example.cleanarchitecture.infrastructure.config.db.schema.</text>
<text text-anchor="middle" x="534" y="-55" font-family="Helvetica,sans-Serif" font-size="10.00">InventorySchema</text>
</a>
</g>
</g>
<!-- Node0&#45;&gt;Node1 -->
<g id="edge1" class="edge">
<title>Node0&#45;&gt;Node1</title>
<path fill="none" stroke="#63b8ff" d="M342.16,-50.49C350.78,-51.05 359.42,-51.62 368,-52.18"/>
<polygon fill="#63b8ff" stroke="#63b8ff" points="342.27,-46.99 332.07,-49.82 341.81,-53.97 342.27,-46.99"/>
</g>
<!-- Node2 -->
<g id="node3" class="node">
<title>Node2</title>
<g id="a_node3"><a xlink:href="classcom_1_1example_1_1cleanarchitecture_1_1infrastructure_1_1config_1_1db_1_1schema_1_1OrderSchema.html" target="_top" xlink:title=" ">
<polygon fill="white" stroke="#666666" points="700,-30 368,-30 368,0 700,0 700,-30"/>
<text text-anchor="start" x="376" y="-18" font-family="Helvetica,sans-Serif" font-size="10.00">com.example.cleanarchitecture.infrastructure.config.db.schema.</text>
<text text-anchor="middle" x="534" y="-7" font-family="Helvetica,sans-Serif" font-size="10.00">OrderSchema</text>
</a>
</g>
</g>
<!-- Node0&#45;&gt;Node2 -->
<g id="edge2" class="edge">
<title>Node0&#45;&gt;Node2</title>
<path fill="none" stroke="#63b8ff" d="M342.16,-27.51C350.78,-26.95 359.42,-26.38 368,-25.82"/>
<polygon fill="#63b8ff" stroke="#63b8ff" points="341.81,-24.03 332.07,-28.18 342.27,-31.01 341.81,-24.03"/>
</g>
</g>
</svg>
