<?xml version="1.0" encoding="UTF-8" standalone="no"?>
<!DOCTYPE svg PUBLIC "-//W3C//DTD SVG 1.1//EN"
 "http://www.w3.org/Graphics/SVG/1.1/DTD/svg11.dtd">
<!-- Generated by graphviz version 2.43.0 (0)
 -->
<!-- Title: com.example.cleanarchitecture.core.domain.IGateway&lt; S, ID &gt; Pages: 1 -->
<svg width="1167pt" height="442pt"
 viewBox="0.00 0.00 1166.50 442.00" xmlns="http://www.w3.org/2000/svg" xmlns:xlink="http://www.w3.org/1999/xlink">
<g id="graph0" class="graph" transform="scale(1 1) rotate(0) translate(4 438)">
<title>com.example.cleanarchitecture.core.domain.IGateway&lt; S, ID &gt;</title>
<!-- Node1 -->
<g id="node1" class="node">
<title>Node1</title>
<g id="a_node1"><a xlink:title=" ">
<polygon fill="#999999" stroke="#666666" points="594.5,-321.5 594.5,-433.5 832.5,-433.5 832.5,-321.5 594.5,-321.5"/>
<text text-anchor="start" x="602.5" y="-421.5" font-family="Helvetica,sans-Serif" font-size="10.00">com.example.cleanarchitecture.core.domain.</text>
<text text-anchor="middle" x="713.5" y="-410.5" font-family="Helvetica,sans-Serif" font-size="10.00">IGateway&lt; S, ID &gt;</text>
<polyline fill="none" stroke="#666666" points="594.5,-403.5 832.5,-403.5 "/>
<text text-anchor="middle" x="713.5" y="-391.5" font-family="Helvetica,sans-Serif" font-size="10.00"> </text>
<polyline fill="none" stroke="#666666" points="594.5,-384.5 832.5,-384.5 "/>
<text text-anchor="start" x="602.5" y="-372.5" font-family="Helvetica,sans-Serif" font-size="10.00">+ create()</text>
<text text-anchor="start" x="602.5" y="-361.5" font-family="Helvetica,sans-Serif" font-size="10.00">+ update()</text>
<text text-anchor="start" x="602.5" y="-350.5" font-family="Helvetica,sans-Serif" font-size="10.00">+ delete()</text>
<text text-anchor="start" x="602.5" y="-339.5" font-family="Helvetica,sans-Serif" font-size="10.00">+ findById()</text>
<text text-anchor="start" x="602.5" y="-328.5" font-family="Helvetica,sans-Serif" font-size="10.00">+ findAll()</text>
</a>
</g>
</g>
<!-- Node2 -->
<g id="node2" class="node">
<title>Node2</title>
<g id="a_node2"><a xlink:href="interfacecom_1_1example_1_1cleanarchitecture_1_1domain_1_1inventory_1_1gateway_1_1InventoryGateway.html" target="_top" xlink:title=" ">
<polygon fill="white" stroke="#666666" points="23,-183.5 23,-251.5 328,-251.5 328,-183.5 23,-183.5"/>
<text text-anchor="start" x="31" y="-239.5" font-family="Helvetica,sans-Serif" font-size="10.00">com.example.cleanarchitecture.domain.inventory.gateway.</text>
<text text-anchor="middle" x="175.5" y="-228.5" font-family="Helvetica,sans-Serif" font-size="10.00">InventoryGateway&lt; Inventory, Long &gt;</text>
<polyline fill="none" stroke="#666666" points="23,-221.5 328,-221.5 "/>
<text text-anchor="middle" x="175.5" y="-209.5" font-family="Helvetica,sans-Serif" font-size="10.00"> </text>
<polyline fill="none" stroke="#666666" points="23,-202.5 328,-202.5 "/>
<text text-anchor="start" x="31" y="-190.5" font-family="Helvetica,sans-Serif" font-size="10.00">+ findAll()</text>
</a>
</g>
</g>
<!-- Node1&#45;&gt;Node2 -->
<g id="edge1" class="edge">
<title>Node1&#45;&gt;Node2</title>
<path fill="none" stroke="#63b8ff" d="M584.57,-340.99C515.33,-321.67 428.6,-297.07 351.5,-274 327.87,-266.93 302.53,-259.09 278.64,-251.59"/>
<polygon fill="none" stroke="#63b8ff" points="583.65,-344.37 594.22,-343.68 585.53,-337.62 583.65,-344.37"/>
</g>
<!-- Node4 -->
<g id="node4" class="node">
<title>Node4</title>
<g id="a_node4"><a xlink:href="interfacecom_1_1example_1_1cleanarchitecture_1_1domain_1_1order_1_1gateway_1_1OrderGateway.html" target="_top" xlink:title=" ">
<polygon fill="white" stroke="#666666" points="361,-183.5 361,-251.5 646,-251.5 646,-183.5 361,-183.5"/>
<text text-anchor="start" x="369" y="-239.5" font-family="Helvetica,sans-Serif" font-size="10.00">com.example.cleanarchitecture.domain.order.gateway.</text>
<text text-anchor="middle" x="503.5" y="-228.5" font-family="Helvetica,sans-Serif" font-size="10.00">OrderGateway&lt; Order, Long &gt;</text>
<polyline fill="none" stroke="#666666" points="361,-221.5 646,-221.5 "/>
<text text-anchor="middle" x="503.5" y="-209.5" font-family="Helvetica,sans-Serif" font-size="10.00"> </text>
<polyline fill="none" stroke="#666666" points="361,-202.5 646,-202.5 "/>
<text text-anchor="middle" x="503.5" y="-190.5" font-family="Helvetica,sans-Serif" font-size="10.00"> </text>
</a>
</g>
</g>
<!-- Node1&#45;&gt;Node4 -->
<g id="edge3" class="edge">
<title>Node1&#45;&gt;Node4</title>
<path fill="none" stroke="#63b8ff" d="M632.3,-315.41C603.5,-293.74 572.19,-270.18 547.64,-251.71"/>
<polygon fill="none" stroke="#63b8ff" points="630.25,-318.25 640.35,-321.46 634.46,-312.65 630.25,-318.25"/>
</g>
<!-- Node6 -->
<g id="node6" class="node">
<title>Node6</title>
<g id="a_node6"><a xlink:href="interfacecom_1_1example_1_1cleanarchitecture_1_1core_1_1domain_1_1IGateway.html" target="_top" xlink:title=" ">
<polygon fill="white" stroke="#666666" points="664.5,-161.5 664.5,-273.5 902.5,-273.5 902.5,-161.5 664.5,-161.5"/>
<text text-anchor="start" x="672.5" y="-261.5" font-family="Helvetica,sans-Serif" font-size="10.00">com.example.cleanarchitecture.core.domain.</text>
<text text-anchor="middle" x="783.5" y="-250.5" font-family="Helvetica,sans-Serif" font-size="10.00">IGateway&lt; Inventory, Long &gt;</text>
<polyline fill="none" stroke="#666666" points="664.5,-243.5 902.5,-243.5 "/>
<text text-anchor="middle" x="783.5" y="-231.5" font-family="Helvetica,sans-Serif" font-size="10.00"> </text>
<polyline fill="none" stroke="#666666" points="664.5,-224.5 902.5,-224.5 "/>
<text text-anchor="start" x="672.5" y="-212.5" font-family="Helvetica,sans-Serif" font-size="10.00">+ create()</text>
<text text-anchor="start" x="672.5" y="-201.5" font-family="Helvetica,sans-Serif" font-size="10.00">+ update()</text>
<text text-anchor="start" x="672.5" y="-190.5" font-family="Helvetica,sans-Serif" font-size="10.00">+ delete()</text>
<text text-anchor="start" x="672.5" y="-179.5" font-family="Helvetica,sans-Serif" font-size="10.00">+ findById()</text>
<text text-anchor="start" x="672.5" y="-168.5" font-family="Helvetica,sans-Serif" font-size="10.00">+ findAll()</text>
</a>
</g>
</g>
<!-- Node1&#45;&gt;Node6 -->
<g id="edge5" class="edge">
<title>Node1&#45;&gt;Node6</title>
<path fill="none" stroke="orange" d="M742.04,-312.09C747.67,-299.36 753.54,-286.12 759.03,-273.73"/>
<polygon fill="orange" stroke="orange" points="738.83,-310.68 737.98,-321.24 745.23,-313.51 738.83,-310.68"/>
<text text-anchor="middle" x="802.5" y="-295" font-family="Helvetica,sans-Serif" font-size="10.00"> &lt; Inventory, Long &gt;</text>
</g>
<!-- Node7 -->
<g id="node7" class="node">
<title>Node7</title>
<g id="a_node7"><a xlink:href="interfacecom_1_1example_1_1cleanarchitecture_1_1core_1_1domain_1_1IGateway.html" target="_top" xlink:title=" ">
<polygon fill="white" stroke="#666666" points="920.5,-161.5 920.5,-273.5 1158.5,-273.5 1158.5,-161.5 920.5,-161.5"/>
<text text-anchor="start" x="928.5" y="-261.5" font-family="Helvetica,sans-Serif" font-size="10.00">com.example.cleanarchitecture.core.domain.</text>
<text text-anchor="middle" x="1039.5" y="-250.5" font-family="Helvetica,sans-Serif" font-size="10.00">IGateway&lt; Order, Long &gt;</text>
<polyline fill="none" stroke="#666666" points="920.5,-243.5 1158.5,-243.5 "/>
<text text-anchor="middle" x="1039.5" y="-231.5" font-family="Helvetica,sans-Serif" font-size="10.00"> </text>
<polyline fill="none" stroke="#666666" points="920.5,-224.5 1158.5,-224.5 "/>
<text text-anchor="start" x="928.5" y="-212.5" font-family="Helvetica,sans-Serif" font-size="10.00">+ create()</text>
<text text-anchor="start" x="928.5" y="-201.5" font-family="Helvetica,sans-Serif" font-size="10.00">+ update()</text>
<text text-anchor="start" x="928.5" y="-190.5" font-family="Helvetica,sans-Serif" font-size="10.00">+ delete()</text>
<text text-anchor="start" x="928.5" y="-179.5" font-family="Helvetica,sans-Serif" font-size="10.00">+ findById()</text>
<text text-anchor="start" x="928.5" y="-168.5" font-family="Helvetica,sans-Serif" font-size="10.00">+ findAll()</text>
</a>
</g>
</g>
<!-- Node1&#45;&gt;Node7 -->
<g id="edge6" class="edge">
<title>Node1&#45;&gt;Node7</title>
<path fill="none" stroke="orange" d="M836.12,-317.07C865.53,-302.82 896.81,-287.66 925.79,-273.61"/>
<polygon fill="orange" stroke="orange" points="834.53,-313.95 827.06,-321.46 837.59,-320.25 834.53,-313.95"/>
<text text-anchor="middle" x="927.5" y="-295" font-family="Helvetica,sans-Serif" font-size="10.00"> &lt; Order, Long &gt;</text>
</g>
<!-- Node3 -->
<g id="node3" class="node">
<title>Node3</title>
<g id="a_node3"><a xlink:href="classcom_1_1example_1_1cleanarchitecture_1_1infrastructure_1_1inventory_1_1gateway_1_1InventoryDatabaseGateway.html" target="_top" xlink:title=" ">
<polygon fill="white" stroke="#666666" points="0,-0.5 0,-123.5 335,-123.5 335,-0.5 0,-0.5"/>
<text text-anchor="start" x="8" y="-111.5" font-family="Helvetica,sans-Serif" font-size="10.00">com.example.cleanarchitecture.infrastructure.inventory.gateway.</text>
<text text-anchor="middle" x="167.5" y="-100.5" font-family="Helvetica,sans-Serif" font-size="10.00">InventoryDatabaseGateway</text>
<polyline fill="none" stroke="#666666" points="0,-93.5 335,-93.5 "/>
<text text-anchor="start" x="8" y="-81.5" font-family="Helvetica,sans-Serif" font-size="10.00">&#45; inventoryRepository</text>
<polyline fill="none" stroke="#666666" points="0,-74.5 335,-74.5 "/>
<text text-anchor="start" x="8" y="-62.5" font-family="Helvetica,sans-Serif" font-size="10.00">+ create()</text>
<text text-anchor="start" x="8" y="-51.5" font-family="Helvetica,sans-Serif" font-size="10.00">+ delete()</text>
<text text-anchor="start" x="8" y="-40.5" font-family="Helvetica,sans-Serif" font-size="10.00">+ findAll()</text>
<text text-anchor="start" x="8" y="-29.5" font-family="Helvetica,sans-Serif" font-size="10.00">+ findById()</text>
<text text-anchor="start" x="8" y="-18.5" font-family="Helvetica,sans-Serif" font-size="10.00">+ update()</text>
<text text-anchor="start" x="8" y="-7.5" font-family="Helvetica,sans-Serif" font-size="10.00">+ findAll()</text>
</a>
</g>
</g>
<!-- Node2&#45;&gt;Node3 -->
<g id="edge2" class="edge">
<title>Node2&#45;&gt;Node3</title>
<path fill="none" stroke="#63b8ff" d="M173.23,-172.99C172.44,-157.7 171.52,-140.23 170.67,-123.78"/>
<polygon fill="none" stroke="#63b8ff" points="169.75,-173.39 173.76,-183.19 176.74,-173.02 169.75,-173.39"/>
</g>
<!-- Node5 -->
<g id="node5" class="node">
<title>Node5</title>
<g id="a_node5"><a xlink:href="classcom_1_1example_1_1cleanarchitecture_1_1infrastructure_1_1order_1_1gateway_1_1OrderDatabaseGateway.html" target="_top" xlink:title=" ">
<polygon fill="white" stroke="#666666" points="353.5,-0.5 353.5,-123.5 667.5,-123.5 667.5,-0.5 353.5,-0.5"/>
<text text-anchor="start" x="361.5" y="-111.5" font-family="Helvetica,sans-Serif" font-size="10.00">com.example.cleanarchitecture.infrastructure.order.gateway.</text>
<text text-anchor="middle" x="510.5" y="-100.5" font-family="Helvetica,sans-Serif" font-size="10.00">OrderDatabaseGateway</text>
<polyline fill="none" stroke="#666666" points="353.5,-93.5 667.5,-93.5 "/>
<text text-anchor="start" x="361.5" y="-81.5" font-family="Helvetica,sans-Serif" font-size="10.00">&#45; orderRepository</text>
<text text-anchor="start" x="361.5" y="-70.5" font-family="Helvetica,sans-Serif" font-size="10.00">&#45; inventoryRepository</text>
<polyline fill="none" stroke="#666666" points="353.5,-63.5 667.5,-63.5 "/>
<text text-anchor="start" x="361.5" y="-51.5" font-family="Helvetica,sans-Serif" font-size="10.00">+ create()</text>
<text text-anchor="start" x="361.5" y="-40.5" font-family="Helvetica,sans-Serif" font-size="10.00">+ delete()</text>
<text text-anchor="start" x="361.5" y="-29.5" font-family="Helvetica,sans-Serif" font-size="10.00">+ findAll()</text>
<text text-anchor="start" x="361.5" y="-18.5" font-family="Helvetica,sans-Serif" font-size="10.00">+ findById()</text>
<text text-anchor="start" x="361.5" y="-7.5" font-family="Helvetica,sans-Serif" font-size="10.00">+ update()</text>
</a>
</g>
</g>
<!-- Node4&#45;&gt;Node5 -->
<g id="edge4" class="edge">
<title>Node4&#45;&gt;Node5</title>
<path fill="none" stroke="#63b8ff" d="M505.48,-172.99C506.18,-157.7 506.98,-140.23 507.73,-123.78"/>
<polygon fill="none" stroke="#63b8ff" points="501.98,-173.04 505.02,-183.19 508.97,-173.36 501.98,-173.04"/>
</g>
</g>
</svg>
