<?xml version="1.0" encoding="UTF-8" standalone="no"?>
<!DOCTYPE svg PUBLIC "-//W3C//DTD SVG 1.1//EN"
 "http://www.w3.org/Graphics/SVG/1.1/DTD/svg11.dtd">
<!-- Generated by graphviz version 2.43.0 (0)
 -->
<!-- Title: com.example.cleanarchitecture.core.domain.IGateway.create Pages: 1 -->
<svg width="1279pt" height="86pt"
 viewBox="0.00 0.00 1279.00 86.00" xmlns="http://www.w3.org/2000/svg" xmlns:xlink="http://www.w3.org/1999/xlink">
<g id="graph0" class="graph" transform="scale(1 1) rotate(0) translate(4 82)">
<title>com.example.cleanarchitecture.core.domain.IGateway.create</title>
<!-- Node1 -->
<g id="node1" class="node">
<title>Node1</title>
<g id="a_node1"><a xlink:title=" ">
<polygon fill="#999999" stroke="#666666" points="1271,-54 1033,-54 1033,-24 1271,-24 1271,-54"/>
<text text-anchor="start" x="1041" y="-42" font-family="Helvetica,sans-Serif" font-size="10.00">com.example.cleanarchitecture.core.domain.</text>
<text text-anchor="middle" x="1152" y="-31" font-family="Helvetica,sans-Serif" font-size="10.00">IGateway.create</text>
</a>
</g>
</g>
<!-- Node2 -->
<g id="node2" class="node">
<title>Node2</title>
<g id="a_node2"><a xlink:href="classcom_1_1example_1_1cleanarchitecture_1_1usecase_1_1inventory_1_1CreateInventoryUseCase.html#aaad5799d9fd2a08aa2c446a5cb954a0d" target="_top" xlink:title=" ">
<polygon fill="white" stroke="#666666" points="997,-78 732,-78 732,-48 997,-48 997,-78"/>
<text text-anchor="start" x="740" y="-66" font-family="Helvetica,sans-Serif" font-size="10.00">com.example.cleanarchitecture.usecase.inventory.</text>
<text text-anchor="middle" x="864.5" y="-55" font-family="Helvetica,sans-Serif" font-size="10.00">CreateInventoryUseCase.createInventory</text>
</a>
</g>
</g>
<!-- Node1&#45;&gt;Node2 -->
<g id="edge1" class="edge">
<title>Node1&#45;&gt;Node2</title>
<path fill="none" stroke="#63b8ff" d="M1022.8,-49.78C1014.24,-50.5 1005.6,-51.22 997.02,-51.94"/>
<polygon fill="#63b8ff" stroke="#63b8ff" points="1023.14,-53.26 1032.82,-48.93 1022.56,-46.29 1023.14,-53.26"/>
</g>
<!-- Node4 -->
<g id="node4" class="node">
<title>Node4</title>
<g id="a_node4"><a xlink:href="classcom_1_1example_1_1cleanarchitecture_1_1usecase_1_1order_1_1CreateOrderUseCase.html#a0359d71b84f30fcd46bcfb295d8e67e9" target="_top" xlink:title=" ">
<polygon fill="white" stroke="#666666" points="987,-30 742,-30 742,0 987,0 987,-30"/>
<text text-anchor="start" x="750" y="-18" font-family="Helvetica,sans-Serif" font-size="10.00">com.example.cleanarchitecture.usecase.order.</text>
<text text-anchor="middle" x="864.5" y="-7" font-family="Helvetica,sans-Serif" font-size="10.00">CreateOrderUseCase.createOrder</text>
</a>
</g>
</g>
<!-- Node1&#45;&gt;Node4 -->
<g id="edge3" class="edge">
<title>Node1&#45;&gt;Node4</title>
<path fill="none" stroke="#63b8ff" d="M1022.55,-28.2C1010.82,-27.22 998.95,-26.22 987.28,-25.24"/>
<polygon fill="#63b8ff" stroke="#63b8ff" points="1022.56,-31.71 1032.82,-29.07 1023.14,-24.74 1022.56,-31.71"/>
</g>
<!-- Node3 -->
<g id="node3" class="node">
<title>Node3</title>
<g id="a_node3"><a xlink:href="classcom_1_1example_1_1cleanarchitecture_1_1infrastructure_1_1inventory_1_1controller_1_1CreateInventoryController.html#aca7c36c6b44cb8e80faaf22cb5c74ffc" target="_top" xlink:title=" ">
<polygon fill="white" stroke="#666666" points="696,-78 356,-78 356,-48 696,-48 696,-78"/>
<text text-anchor="start" x="364" y="-66" font-family="Helvetica,sans-Serif" font-size="10.00">com.example.cleanarchitecture.infrastructure.inventory.controller.</text>
<text text-anchor="middle" x="526" y="-55" font-family="Helvetica,sans-Serif" font-size="10.00">CreateInventoryController.createInventory</text>
</a>
</g>
</g>
<!-- Node2&#45;&gt;Node3 -->
<g id="edge2" class="edge">
<title>Node2&#45;&gt;Node3</title>
<path fill="none" stroke="#63b8ff" d="M721.95,-63C713.38,-63 704.72,-63 696.05,-63"/>
<polygon fill="#63b8ff" stroke="#63b8ff" points="721.95,-66.5 731.95,-63 721.95,-59.5 721.95,-66.5"/>
</g>
<!-- Node5 -->
<g id="node5" class="node">
<title>Node5</title>
<g id="a_node5"><a xlink:href="classcom_1_1example_1_1cleanarchitecture_1_1application_1_1order_1_1CreateOrderService.html#a998b802d10319faf8d431dad9ff5ca43" target="_top" xlink:title=" ">
<polygon fill="white" stroke="#666666" points="655.5,-30 396.5,-30 396.5,0 655.5,0 655.5,-30"/>
<text text-anchor="start" x="404.5" y="-18" font-family="Helvetica,sans-Serif" font-size="10.00">com.example.cleanarchitecture.application.order.</text>
<text text-anchor="middle" x="526" y="-7" font-family="Helvetica,sans-Serif" font-size="10.00">CreateOrderService.createOrder</text>
</a>
</g>
</g>
<!-- Node4&#45;&gt;Node5 -->
<g id="edge4" class="edge">
<title>Node4&#45;&gt;Node5</title>
<path fill="none" stroke="#63b8ff" d="M731.32,-15C706.42,-15 680.42,-15 655.63,-15"/>
<polygon fill="#63b8ff" stroke="#63b8ff" points="731.54,-18.5 741.54,-15 731.54,-11.5 731.54,-18.5"/>
</g>
<!-- Node6 -->
<g id="node6" class="node">
<title>Node6</title>
<g id="a_node6"><a xlink:href="classcom_1_1example_1_1cleanarchitecture_1_1infrastructure_1_1order_1_1controller_1_1CreateOrderController.html#a5b34eda634820f3bfd0512b80593a70c" target="_top" xlink:title=" ">
<polygon fill="white" stroke="#666666" points="320,-30 0,-30 0,0 320,0 320,-30"/>
<text text-anchor="start" x="8" y="-18" font-family="Helvetica,sans-Serif" font-size="10.00">com.example.cleanarchitecture.infrastructure.order.controller.</text>
<text text-anchor="middle" x="160" y="-7" font-family="Helvetica,sans-Serif" font-size="10.00">CreateOrderController.createOrder</text>
</a>
</g>
</g>
<!-- Node5&#45;&gt;Node6 -->
<g id="edge5" class="edge">
<title>Node5&#45;&gt;Node6</title>
<path fill="none" stroke="#63b8ff" d="M386.22,-15C364.63,-15 342.18,-15 320.19,-15"/>
<polygon fill="#63b8ff" stroke="#63b8ff" points="386.41,-18.5 396.41,-15 386.41,-11.5 386.41,-18.5"/>
</g>
</g>
</svg>
