<?xml version="1.0" encoding="UTF-8" standalone="no"?>
<!DOCTYPE svg PUBLIC "-//W3C//DTD SVG 1.1//EN"
 "http://www.w3.org/Graphics/SVG/1.1/DTD/svg11.dtd">
<!-- Generated by graphviz version 2.43.0 (0)
 -->
<!-- Title: com.example.cleanarchitecture.domain.inventory.gateway.InventoryGateway Pages: 1 -->
<svg width="313pt" height="226pt"
 viewBox="0.00 0.00 313.00 226.00" xmlns="http://www.w3.org/2000/svg" xmlns:xlink="http://www.w3.org/1999/xlink">
<g id="graph0" class="graph" transform="scale(1 1) rotate(0) translate(4 222)">
<title>com.example.cleanarchitecture.domain.inventory.gateway.InventoryGateway</title>
<!-- Node1 -->
<g id="node1" class="node">
<title>Node1</title>
<g id="a_node1"><a xlink:title=" ">
<polygon fill="#999999" stroke="#666666" points="0,-0.5 0,-68.5 305,-68.5 305,-0.5 0,-0.5"/>
<text text-anchor="start" x="8" y="-56.5" font-family="Helvetica,sans-Serif" font-size="10.00">com.example.cleanarchitecture.domain.inventory.gateway.</text>
<text text-anchor="middle" x="152.5" y="-45.5" font-family="Helvetica,sans-Serif" font-size="10.00">InventoryGateway</text>
<polyline fill="none" stroke="#666666" points="0,-38.5 305,-38.5 "/>
<text text-anchor="middle" x="152.5" y="-26.5" font-family="Helvetica,sans-Serif" font-size="10.00"> </text>
<polyline fill="none" stroke="#666666" points="0,-19.5 305,-19.5 "/>
<text text-anchor="start" x="8" y="-7.5" font-family="Helvetica,sans-Serif" font-size="10.00">+ findAll()</text>
</a>
</g>
</g>
<!-- Node2 -->
<g id="node2" class="node">
<title>Node2</title>
<g id="a_node2"><a xlink:href="interfacecom_1_1example_1_1cleanarchitecture_1_1core_1_1domain_1_1IGateway.html" target="_top" xlink:title=" ">
<polygon fill="white" stroke="#666666" points="33.5,-105.5 33.5,-217.5 271.5,-217.5 271.5,-105.5 33.5,-105.5"/>
<text text-anchor="start" x="41.5" y="-205.5" font-family="Helvetica,sans-Serif" font-size="10.00">com.example.cleanarchitecture.core.domain.</text>
<text text-anchor="middle" x="152.5" y="-194.5" font-family="Helvetica,sans-Serif" font-size="10.00">IGateway&lt; S, ID &gt;</text>
<polyline fill="none" stroke="#666666" points="33.5,-187.5 271.5,-187.5 "/>
<text text-anchor="middle" x="152.5" y="-175.5" font-family="Helvetica,sans-Serif" font-size="10.00"> </text>
<polyline fill="none" stroke="#666666" points="33.5,-168.5 271.5,-168.5 "/>
<text text-anchor="start" x="41.5" y="-156.5" font-family="Helvetica,sans-Serif" font-size="10.00">+ create()</text>
<text text-anchor="start" x="41.5" y="-145.5" font-family="Helvetica,sans-Serif" font-size="10.00">+ update()</text>
<text text-anchor="start" x="41.5" y="-134.5" font-family="Helvetica,sans-Serif" font-size="10.00">+ delete()</text>
<text text-anchor="start" x="41.5" y="-123.5" font-family="Helvetica,sans-Serif" font-size="10.00">+ findById()</text>
<text text-anchor="start" x="41.5" y="-112.5" font-family="Helvetica,sans-Serif" font-size="10.00">+ findAll()</text>
</a>
</g>
</g>
<!-- Node2&#45;&gt;Node1 -->
<g id="edge1" class="edge">
<title>Node2&#45;&gt;Node1</title>
<path fill="none" stroke="#63b8ff" d="M152.5,-95.26C152.5,-85.99 152.5,-76.8 152.5,-68.51"/>
<polygon fill="none" stroke="#63b8ff" points="149,-95.31 152.5,-105.31 156,-95.31 149,-95.31"/>
</g>
</g>
</svg>
