<?xml version="1.0" encoding="UTF-8" standalone="no"?>
<!DOCTYPE svg PUBLIC "-//W3C//DTD SVG 1.1//EN"
 "http://www.w3.org/Graphics/SVG/1.1/DTD/svg11.dtd">
<!-- Generated by graphviz version 2.43.0 (0)
 -->
<!-- Title: com.example.cleanarchitecture.core.domain.IGateway.findById Pages: 1 -->
<svg width="1279pt" height="86pt"
 viewBox="0.00 0.00 1279.00 86.00" xmlns="http://www.w3.org/2000/svg" xmlns:xlink="http://www.w3.org/1999/xlink">
<g id="graph0" class="graph" transform="scale(1 1) rotate(0) translate(4 82)">
<title>com.example.cleanarchitecture.core.domain.IGateway.findById</title>
<!-- Node1 -->
<g id="node1" class="node">
<title>Node1</title>
<g id="a_node1"><a xlink:title=" ">
<polygon fill="#999999" stroke="#666666" points="1271,-54 1033,-54 1033,-24 1271,-24 1271,-54"/>
<text text-anchor="start" x="1041" y="-42" font-family="Helvetica,sans-Serif" font-size="10.00">com.example.cleanarchitecture.core.domain.</text>
<text text-anchor="middle" x="1152" y="-31" font-family="Helvetica,sans-Serif" font-size="10.00">IGateway.findById</text>
</a>
</g>
</g>
<!-- Node2 -->
<g id="node2" class="node">
<title>Node2</title>
<g id="a_node2"><a xlink:href="classcom_1_1example_1_1cleanarchitecture_1_1usecase_1_1order_1_1CreateOrderUseCase.html#a0359d71b84f30fcd46bcfb295d8e67e9" target="_top" xlink:title=" ">
<polygon fill="white" stroke="#666666" points="987,-78 742,-78 742,-48 987,-48 987,-78"/>
<text text-anchor="start" x="750" y="-66" font-family="Helvetica,sans-Serif" font-size="10.00">com.example.cleanarchitecture.usecase.order.</text>
<text text-anchor="middle" x="864.5" y="-55" font-family="Helvetica,sans-Serif" font-size="10.00">CreateOrderUseCase.createOrder</text>
</a>
</g>
</g>
<!-- Node1&#45;&gt;Node2 -->
<g id="edge1" class="edge">
<title>Node1&#45;&gt;Node2</title>
<path fill="none" stroke="#63b8ff" d="M1022.55,-49.8C1010.82,-50.78 998.95,-51.78 987.28,-52.76"/>
<polygon fill="#63b8ff" stroke="#63b8ff" points="1023.14,-53.26 1032.82,-48.93 1022.56,-46.29 1023.14,-53.26"/>
</g>
<!-- Node5 -->
<g id="node5" class="node">
<title>Node5</title>
<g id="a_node5"><a xlink:href="classcom_1_1example_1_1cleanarchitecture_1_1usecase_1_1inventory_1_1GetInventoryUseCase.html#a60dc2310b6ede73f186b811770b35fd6" target="_top" xlink:title=" ">
<polygon fill="white" stroke="#666666" points="997,-30 732,-30 732,0 997,0 997,-30"/>
<text text-anchor="start" x="740" y="-18" font-family="Helvetica,sans-Serif" font-size="10.00">com.example.cleanarchitecture.usecase.inventory.</text>
<text text-anchor="middle" x="864.5" y="-7" font-family="Helvetica,sans-Serif" font-size="10.00">GetInventoryUseCase.getInventory</text>
</a>
</g>
</g>
<!-- Node1&#45;&gt;Node5 -->
<g id="edge4" class="edge">
<title>Node1&#45;&gt;Node5</title>
<path fill="none" stroke="#63b8ff" d="M1022.8,-28.22C1014.24,-27.5 1005.6,-26.78 997.02,-26.06"/>
<polygon fill="#63b8ff" stroke="#63b8ff" points="1022.56,-31.71 1032.82,-29.07 1023.14,-24.74 1022.56,-31.71"/>
</g>
<!-- Node3 -->
<g id="node3" class="node">
<title>Node3</title>
<g id="a_node3"><a xlink:href="classcom_1_1example_1_1cleanarchitecture_1_1application_1_1order_1_1CreateOrderService.html#a998b802d10319faf8d431dad9ff5ca43" target="_top" xlink:title=" ">
<polygon fill="white" stroke="#666666" points="655.5,-78 396.5,-78 396.5,-48 655.5,-48 655.5,-78"/>
<text text-anchor="start" x="404.5" y="-66" font-family="Helvetica,sans-Serif" font-size="10.00">com.example.cleanarchitecture.application.order.</text>
<text text-anchor="middle" x="526" y="-55" font-family="Helvetica,sans-Serif" font-size="10.00">CreateOrderService.createOrder</text>
</a>
</g>
</g>
<!-- Node2&#45;&gt;Node3 -->
<g id="edge2" class="edge">
<title>Node2&#45;&gt;Node3</title>
<path fill="none" stroke="#63b8ff" d="M731.32,-63C706.42,-63 680.42,-63 655.63,-63"/>
<polygon fill="#63b8ff" stroke="#63b8ff" points="731.54,-66.5 741.54,-63 731.54,-59.5 731.54,-66.5"/>
</g>
<!-- Node4 -->
<g id="node4" class="node">
<title>Node4</title>
<g id="a_node4"><a xlink:href="classcom_1_1example_1_1cleanarchitecture_1_1infrastructure_1_1order_1_1controller_1_1CreateOrderController.html#a5b34eda634820f3bfd0512b80593a70c" target="_top" xlink:title=" ">
<polygon fill="white" stroke="#666666" points="320,-78 0,-78 0,-48 320,-48 320,-78"/>
<text text-anchor="start" x="8" y="-66" font-family="Helvetica,sans-Serif" font-size="10.00">com.example.cleanarchitecture.infrastructure.order.controller.</text>
<text text-anchor="middle" x="160" y="-55" font-family="Helvetica,sans-Serif" font-size="10.00">CreateOrderController.createOrder</text>
</a>
</g>
</g>
<!-- Node3&#45;&gt;Node4 -->
<g id="edge3" class="edge">
<title>Node3&#45;&gt;Node4</title>
<path fill="none" stroke="#63b8ff" d="M386.22,-63C364.63,-63 342.18,-63 320.19,-63"/>
<polygon fill="#63b8ff" stroke="#63b8ff" points="386.41,-66.5 396.41,-63 386.41,-59.5 386.41,-66.5"/>
</g>
<!-- Node6 -->
<g id="node6" class="node">
<title>Node6</title>
<g id="a_node6"><a xlink:href="classcom_1_1example_1_1cleanarchitecture_1_1infrastructure_1_1inventory_1_1controller_1_1GetInventoryController.html#ab29ca566ae8f8291fdab0710c871391a" target="_top" xlink:title=" ">
<polygon fill="white" stroke="#666666" points="696,-30 356,-30 356,0 696,0 696,-30"/>
<text text-anchor="start" x="364" y="-18" font-family="Helvetica,sans-Serif" font-size="10.00">com.example.cleanarchitecture.infrastructure.inventory.controller.</text>
<text text-anchor="middle" x="526" y="-7" font-family="Helvetica,sans-Serif" font-size="10.00">GetInventoryController.getInventory</text>
</a>
</g>
</g>
<!-- Node5&#45;&gt;Node6 -->
<g id="edge5" class="edge">
<title>Node5&#45;&gt;Node6</title>
<path fill="none" stroke="#63b8ff" d="M721.95,-15C713.38,-15 704.72,-15 696.05,-15"/>
<polygon fill="#63b8ff" stroke="#63b8ff" points="721.95,-18.5 731.95,-15 721.95,-11.5 721.95,-18.5"/>
</g>
</g>
</svg>
