<?xml version="1.0" encoding="UTF-8" standalone="no"?>
<!DOCTYPE svg PUBLIC "-//W3C//DTD SVG 1.1//EN"
 "http://www.w3.org/Graphics/SVG/1.1/DTD/svg11.dtd">
<!-- Generated by graphviz version 2.43.0 (0)
 -->
<!-- Title: com.example.cleanarchitecture.infrastructure.config.db.repository.InventoryRepository Pages: 1 -->
<svg width="349pt" height="182pt"
 viewBox="0.00 0.00 349.00 182.00" xmlns="http://www.w3.org/2000/svg" xmlns:xlink="http://www.w3.org/1999/xlink">
<g id="graph0" class="graph" transform="scale(1 1) rotate(0) translate(4 178)">
<title>com.example.cleanarchitecture.infrastructure.config.db.repository.InventoryRepository</title>
<!-- Node1 -->
<g id="node1" class="node">
<title>Node1</title>
<g id="a_node1"><a xlink:title=" ">
<polygon fill="#999999" stroke="#666666" points="0,-0.5 0,-68.5 341,-68.5 341,-0.5 0,-0.5"/>
<text text-anchor="start" x="8" y="-56.5" font-family="Helvetica,sans-Serif" font-size="10.00">com.example.cleanarchitecture.infrastructure.config.db.repository.</text>
<text text-anchor="middle" x="170.5" y="-45.5" font-family="Helvetica,sans-Serif" font-size="10.00">InventoryRepository</text>
<polyline fill="none" stroke="#666666" points="0,-38.5 341,-38.5 "/>
<text text-anchor="middle" x="170.5" y="-26.5" font-family="Helvetica,sans-Serif" font-size="10.00"> </text>
<polyline fill="none" stroke="#666666" points="0,-19.5 341,-19.5 "/>
<text text-anchor="start" x="8" y="-7.5" font-family="Helvetica,sans-Serif" font-size="10.00">+ existsByName()</text>
</a>
</g>
</g>
<!-- Node2 -->
<g id="node2" class="node">
<title>Node2</title>
<g id="a_node2"><a xlink:title=" ">
<polygon fill="white" stroke="#666666" points="99.5,-105.5 99.5,-173.5 241.5,-173.5 241.5,-105.5 99.5,-105.5"/>
<text text-anchor="start" x="107.5" y="-161.5" font-family="Helvetica,sans-Serif" font-size="10.00">JpaRepository&lt; Inventory</text>
<text text-anchor="middle" x="170.5" y="-150.5" font-family="Helvetica,sans-Serif" font-size="10.00">Schema, Long &gt;</text>
<polyline fill="none" stroke="#666666" points="99.5,-143.5 241.5,-143.5 "/>
<text text-anchor="middle" x="170.5" y="-131.5" font-family="Helvetica,sans-Serif" font-size="10.00"> </text>
<polyline fill="none" stroke="#666666" points="99.5,-124.5 241.5,-124.5 "/>
<text text-anchor="middle" x="170.5" y="-112.5" font-family="Helvetica,sans-Serif" font-size="10.00"> </text>
</a>
</g>
</g>
<!-- Node2&#45;&gt;Node1 -->
<g id="edge1" class="edge">
<title>Node2&#45;&gt;Node1</title>
<path fill="none" stroke="#63b8ff" d="M170.5,-95.14C170.5,-86.26 170.5,-77.04 170.5,-68.59"/>
<polygon fill="none" stroke="#63b8ff" points="167,-95.34 170.5,-105.34 174,-95.34 167,-95.34"/>
</g>
</g>
</svg>
