<?xml version="1.0" encoding="UTF-8" standalone="no"?>
<!DOCTYPE svg PUBLIC "-//W3C//DTD SVG 1.1//EN"
 "http://www.w3.org/Graphics/SVG/1.1/DTD/svg11.dtd">
<!-- Generated by graphviz version 2.43.0 (0)
 -->
<!-- Title: com.example.cleanarchitecture.usecase.inventory.dto.IInventoryRegistrationData.name Pages: 1 -->
<svg width="969pt" height="38pt"
 viewBox="0.00 0.00 969.00 38.00" xmlns="http://www.w3.org/2000/svg" xmlns:xlink="http://www.w3.org/1999/xlink">
<g id="graph0" class="graph" transform="scale(1 1) rotate(0) translate(4 34)">
<title>com.example.cleanarchitecture.usecase.inventory.dto.IInventoryRegistrationData.name</title>
<!-- Node1 -->
<g id="node1" class="node">
<title>Node1</title>
<g id="a_node1"><a xlink:title=" ">
<polygon fill="#999999" stroke="#666666" points="961,-30 677,-30 677,0 961,0 961,-30"/>
<text text-anchor="start" x="685" y="-18" font-family="Helvetica,sans-Serif" font-size="10.00">com.example.cleanarchitecture.usecase.inventory.dto.</text>
<text text-anchor="middle" x="819" y="-7" font-family="Helvetica,sans-Serif" font-size="10.00">IInventoryRegistrationData.name</text>
</a>
</g>
</g>
<!-- Node2 -->
<g id="node2" class="node">
<title>Node2</title>
<g id="a_node2"><a xlink:href="classcom_1_1example_1_1cleanarchitecture_1_1usecase_1_1inventory_1_1CreateInventoryUseCase.html#aaad5799d9fd2a08aa2c446a5cb954a0d" target="_top" xlink:title=" ">
<polygon fill="white" stroke="#666666" points="641,-30 376,-30 376,0 641,0 641,-30"/>
<text text-anchor="start" x="384" y="-18" font-family="Helvetica,sans-Serif" font-size="10.00">com.example.cleanarchitecture.usecase.inventory.</text>
<text text-anchor="middle" x="508.5" y="-7" font-family="Helvetica,sans-Serif" font-size="10.00">CreateInventoryUseCase.createInventory</text>
</a>
</g>
</g>
<!-- Node1&#45;&gt;Node2 -->
<g id="edge1" class="edge">
<title>Node1&#45;&gt;Node2</title>
<path fill="none" stroke="#63b8ff" d="M666.78,-15C658.2,-15 649.61,-15 641.12,-15"/>
<polygon fill="#63b8ff" stroke="#63b8ff" points="666.84,-18.5 676.84,-15 666.84,-11.5 666.84,-18.5"/>
</g>
<!-- Node3 -->
<g id="node3" class="node">
<title>Node3</title>
<g id="a_node3"><a xlink:href="classcom_1_1example_1_1cleanarchitecture_1_1infrastructure_1_1inventory_1_1controller_1_1CreateInventoryController.html#aca7c36c6b44cb8e80faaf22cb5c74ffc" target="_top" xlink:title=" ">
<polygon fill="white" stroke="#666666" points="340,-30 0,-30 0,0 340,0 340,-30"/>
<text text-anchor="start" x="8" y="-18" font-family="Helvetica,sans-Serif" font-size="10.00">com.example.cleanarchitecture.infrastructure.inventory.controller.</text>
<text text-anchor="middle" x="170" y="-7" font-family="Helvetica,sans-Serif" font-size="10.00">CreateInventoryController.createInventory</text>
</a>
</g>
</g>
<!-- Node2&#45;&gt;Node3 -->
<g id="edge2" class="edge">
<title>Node2&#45;&gt;Node3</title>
<path fill="none" stroke="#63b8ff" d="M365.95,-15C357.38,-15 348.72,-15 340.05,-15"/>
<polygon fill="#63b8ff" stroke="#63b8ff" points="365.95,-18.5 375.95,-15 365.95,-11.5 365.95,-18.5"/>
</g>
</g>
</svg>
